font.ufo
<glyph name="plus" format="2">
	<unicode hex="002B"/>
	<advance width="500"/>
	<outline>
		<contour>
			<point x="239" y="101" type="line"/>
			<point x="262" y="101" type="line"/>
			<point x="262" y="560" type="line"/>
			<point x="239" y="560" type="line"/>
		</contour>
		<contour>
			<point x="465" y="323" type="line"/>
			<point x="465" y="345" type="line"/>
			<point x="35" y="345" type="line"/>
			<point x="35" y="323" type="line"/>
		</contour>
	</outline>
</glyph>
<glyph name="less" format="2">
	<unicode hex="003C"/>
	<advance width="496"/>
	<outline>
		<contour>
			<point x="59" y="329" type="line"/>
			<point x="424" y="97" type="line"/>
			<point x="435" y="116" type="line"/>
			<point x="81" y="340" type="line"/>
			<point x="81" y="329" type="line"/>
			<point x="435" y="550" type="line"/>
			<point x="424" y="569" type="line"/>
			<point x="59" y="340" type="line"/>
		</contour>
	</outline>
</glyph>
<glyph name="at" format="2">
	<unicode hex="0040"/>
	<advance width="816"/>
	<outline>
		<contour>
			<point x="326" y="53" type="curve" smooth="yes"/>
			<point x="389" y="53"/>
			<point x="445" y="109"/>
			<point x="501" y="188" type="curve"/>
			<point x="498" y="191" type="line"/>
			<point x="496" y="193" type="line"/>
			<point x="432" y="117"/>
			<point x="384" y="83"/>
			<point x="336" y="83" type="curve" smooth="yes"/>
			<point x="296" y="83"/>
			<point x="272" y="112"/>
			<point x="272" y="176" type="curve" smooth="yes"/>
			<point x="272" y="282"/>
			<point x="348" y="445"/>
			<point x="463" y="445" type="curve" smooth="yes"/>
			<point x="497" y="445"/>
			<point x="524" y="428"/>
			<point x="540" y="407" type="curve"/>
			<point x="551" y="429" type="line"/>
			<point x="535" y="454"/>
			<point x="503" y="470"/>
			<point x="473" y="470" type="curve" smooth="yes"/>
			<point x="358" y="470"/>
			<point x="235" y="299"/>
			<point x="235" y="164" type="curve" smooth="yes"/>
			<point x="235" y="81"/>
			<point x="283" y="53"/>
		</contour>
		<contour>
			<point x="558" y="53" type="curve" smooth="yes"/>
			<point x="659" y="53"/>
			<point x="785" y="152"/>
			<point x="785" y="340" type="curve" smooth="yes"/>
			<point x="785" y="528"/>
			<point x="659" y="663"/>
			<point x="463" y="663" type="curve" smooth="yes"/>
			<point x="215" y="663"/>
			<point x="31" y="449"/>
			<point x="31" y="202" type="curve" smooth="yes"/>
			<point x="31" y="-29"/>
			<point x="175" y="-156"/>
			<point x="378" y="-156" type="curve" smooth="yes"/>
			<point x="448" y="-156"/>
			<point x="512" y="-140"/>
			<point x="568" y="-111" type="curve"/>
			<point x="563" y="-101" type="line"/>
			<point x="506" y="-127"/>
			<point x="452" y="-140"/>
			<point x="378" y="-140" type="curve" smooth="yes"/>
			<point x="194" y="-140"/>
			<point x="61" y="-14"/>
			<point x="61" y="202" type="curve" smooth="yes"/>
			<point x="61" y="441"/>
			<point x="229" y="646"/>
			<point x="463" y="646" type="curve" smooth="yes"/>
			<point x="636" y="646"/>
			<point x="755" y="525"/>
			<point x="755" y="340" type="curve" smooth="yes"/>
			<point x="755" y="163"/>
			<point x="651" y="70"/>
			<point x="566" y="70" type="curve" smooth="yes"/>
			<point x="519" y="70"/>
			<point x="497" y="106"/>
			<point x="510" y="167" type="curve" smooth="yes"/>
			<point x="571" y="466" type="line"/>
			<point x="566" y="471" type="line"/>
			<point x="530" y="435" type="line"/>
			<point x="475" y="165" type="line"/>
			<point x="476" y="162" type="line"/>
			<point x="462" y="95"/>
			<point x="497" y="53"/>
		</contour>
	</outline>
</glyph>
<glyph name="A" format="2">
	<unicode hex="0041"/>
	<advance width="613"/>
	<outline>
		<contour>
			<point x="9" y="0" type="line"/>
			<point x="200" y="0" type="line"/>
			<point x="200" y="12" type="line"/>
			<point x="104" y="20" type="line"/>
			<point x="91" y="20" type="line"/>
			<point x="9" y="12" type="line"/>
		</contour>
		<contour>
			<point x="79" y="0" type="line"/>
			<point x="101" y="0" type="line"/>
			<point x="298" y="620" type="line"/>
			<point x="301" y="627" type="line"/>
			<point x="290" y="627" type="line"/>
			<point x="488" y="0" type="line"/>
			<point x="535" y="0" type="line"/>
			<point x="313" y="684" type="line"/>
			<point x="299" y="684" type="line"/>
		</contour>
		<contour>
			<point x="174" y="251" type="line"/>
			<point x="429" y="251" type="line"/>
			<point x="429" y="269" type="line"/>
			<point x="174" y="269" type="line"/>
		</contour>
		<contour>
			<point x="390" y="0" type="line"/>
			<point x="604" y="0" type="line"/>
			<point x="604" y="12" type="line"/>
			<point x="517" y="20" type="line"/>
			<point x="493" y="20" type="line"/>
			<point x="390" y="12" type="line"/>
		</contour>
	</outline>
	<anchor name="aboveUC" x="307" y="694"/>
	<anchor name="belowLC" x="297" y="-20"/>
	<anchor name="ogonek" x="507" y="0"/>
</glyph>
<glyph name="C" format="2">
	<unicode hex="0043"/>
	<advance width="588"/>
	<outline>
		<contour>
			<point x="346" y="-13" type="curve" smooth="yes"/>
			<point x="409" y="-13"/>
			<point x="461" y="-4"/>
			<point x="522" y="37" type="curve"/>
			<point x="529" y="187" type="line"/>
			<point x="517" y="187" type="line"/>
			<point x="482" y="30" type="line"/>
			<point x="507" y="36" type="line"/>
			<point x="508" y="52" type="line"/>
			<point x="456" y="12"/>
			<point x="400" y="2"/>
			<point x="347" y="2" type="curve" smooth="yes"/>
			<point x="203" y="2"/>
			<point x="102" y="127"/>
			<point x="102" y="336" type="curve" smooth="yes"/>
			<point x="102" y="543"/>
			<point x="202" y="671"/>
			<point x="349" y="671" type="curve" smooth="yes"/>
			<point x="407" y="671"/>
			<point x="450" y="660"/>
			<point x="502" y="622" type="curve"/>
			<point x="502" y="638" type="line"/>
			<point x="475" y="643" type="line"/>
			<point x="510" y="487" type="line"/>
			<point x="522" y="487" type="line"/>
			<point x="514" y="636" type="line"/>
			<point x="461" y="675"/>
			<point x="407" y="687"/>
			<point x="348" y="687" type="curve" smooth="yes"/>
			<point x="176" y="687"/>
			<point x="55" y="548"/>
			<point x="55" y="337" type="curve" smooth="yes"/>
			<point x="55" y="125"/>
			<point x="169" y="-13"/>
		</contour>
	</outline>
	<anchor name="aboveUC" x="346" y="694"/>
	<anchor name="baseLC" x="347" y="0"/>
	<anchor name="belowLC" x="346" y="-20"/>
</glyph>
<glyph name="I" format="2">
	<unicode hex="0049"/>
	<advance width="313"/>
	<outline>
		<contour>
			<point x="45" y="0" type="line"/>
			<point x="268" y="0" type="line"/>
			<point x="268" y="12" type="line"/>
			<point x="166" y="20" type="line"/>
			<point x="146" y="20" type="line"/>
			<point x="45" y="12" type="line"/>
		</contour>
		<contour>
			<point x="132" y="0" type="curve"/>
			<point x="180" y="0" type="line"/>
			<point x="178" y="85"/>
			<point x="178" y="214"/>
			<point x="178" y="321" type="curve" smooth="yes"/>
			<point x="178" y="360" type="line" smooth="yes"/>
			<point x="178" y="464"/>
			<point x="178" y="590"/>
			<point x="180" y="674" type="curve"/>
			<point x="132" y="674" type="line"/>
			<point x="135" y="590"/>
			<point x="135" y="464"/>
			<point x="135" y="360" type="curve" smooth="yes"/>
			<point x="135" y="321" type="line" smooth="yes"/>
			<point x="135" y="214"/>
			<point x="135" y="85"/>
		</contour>
		<contour>
			<point x="45" y="662" type="line"/>
			<point x="146" y="653" type="line"/>
			<point x="166" y="653" type="line"/>
			<point x="268" y="662" type="line"/>
			<point x="268" y="674" type="line"/>
			<point x="45" y="674" type="line"/>
		</contour>
	</outline>
	<anchor name="aboveUC" x="156" y="694"/>
	<anchor name="belowLC" x="156" y="-20"/>
	<anchor name="ogonek" x="161" y="0"/>
</glyph>
<glyph name="O" format="2">
	<unicode hex="004F"/>
	<advance width="645"/>
	<outline>
		<contour>
			<point x="323" y="-13" type="curve" smooth="yes"/>
			<point x="471" y="-13"/>
			<point x="590" y="118"/>
			<point x="590" y="337" type="curve" smooth="yes"/>
			<point x="590" y="559"/>
			<point x="472" y="687"/>
			<point x="323" y="687" type="curve" smooth="yes"/>
			<point x="174" y="687"/>
			<point x="55" y="554"/>
			<point x="55" y="336" type="curve" smooth="yes"/>
			<point x="55" y="114"/>
			<point x="173" y="-13"/>
		</contour>
		<contour>
			<point x="323" y="3" type="curve" smooth="yes"/>
			<point x="182" y="3"/>
			<point x="102" y="141"/>
			<point x="102" y="336" type="curve" smooth="yes"/>
			<point x="102" y="531"/>
			<point x="182" y="671"/>
			<point x="323" y="671" type="curve" smooth="yes"/>
			<point x="463" y="671"/>
			<point x="543" y="531"/>
			<point x="543" y="337" type="curve" smooth="yes"/>
			<point x="543" y="142"/>
			<point x="463" y="3"/>
		</contour>
	</outline>
	<anchor name="aboveUC" x="323" y="694"/>
	<anchor name="belowLC" x="326" y="-20"/>
	<anchor name="hornLC" x="491" y="593"/>
	<anchor name="ogonek" x="391" y="0"/>
</glyph>
<glyph name="X" format="2">
	<unicode hex="0058"/>
	<advance width="597"/>
	<outline>
		<contour>
			<point x="15" y="0" type="line"/>
			<point x="207" y="0" type="line"/>
			<point x="207" y="12" type="line"/>
			<point x="114" y="20" type="line"/>
			<point x="97" y="20" type="line"/>
			<point x="15" y="12" type="line"/>
		</contour>
		<contour>
			<point x="81" y="0" type="line"/>
			<point x="104" y="0" type="line"/>
			<point x="294" y="333" type="line"/>
			<point x="298" y="339" type="line"/>
			<point x="305" y="339" type="line"/>
			<point x="286" y="355" type="line"/>
		</contour>
		<contour>
			<point x="367" y="0" type="line"/>
			<point x="583" y="0" type="line"/>
			<point x="583" y="12" type="line"/>
			<point x="493" y="20" type="line"/>
			<point x="472" y="20" type="line"/>
			<point x="367" y="12" type="line"/>
		</contour>
		<contour>
			<point x="313" y="345" type="line"/>
			<point x="500" y="674" type="line"/>
			<point x="477" y="674" type="line"/>
			<point x="305" y="368" type="line"/>
			<point x="302" y="362" type="line"/>
			<point x="295" y="362" type="line"/>
		</contour>
		<contour>
			<point x="469" y="0" type="line"/>
			<point x="518" y="0" type="line"/>
			<point x="141" y="674" type="line"/>
			<point x="92" y="674" type="line"/>
		</contour>
		<contour>
			<point x="28" y="662" type="line"/>
			<point x="119" y="653" type="line"/>
			<point x="140" y="653" type="line"/>
			<point x="243" y="662" type="line"/>
			<point x="243" y="674" type="line"/>
			<point x="28" y="674" type="line"/>
		</contour>
		<contour>
			<point x="374" y="662" type="line"/>
			<point x="468" y="654" type="line"/>
			<point x="484" y="654" type="line"/>
			<point x="567" y="662" type="line"/>
			<point x="567" y="674" type="line"/>
			<point x="374" y="674" type="line"/>
		</contour>
	</outline>
	<anchor name="aboveUC" x="309" y="694"/>
	<anchor name="belowLC" x="288" y="-20"/>
</glyph>
<glyph name="b" format="2">
	<unicode hex="0062"/>
	<advance width="530"/>
	<outline>
		<contour>
			<point x="39" y="0" type="line"/>
			<point x="157" y="-5" type="line"/>
			<point x="157" y="74" type="line"/>
			<point x="157" y="76" type="line"/>
			<point x="157" y="365" type="line"/>
			<point x="157" y="368" type="line"/>
			<point x="157" y="563" type="line"/>
			<point x="160" y="740" type="line"/>
			<point x="153" y="747" type="line"/>
			<point x="37" y="728" type="line"/>
			<point x="37" y="717" type="line"/>
			<point x="117" y="710" type="line"/>
			<point x="117" y="209" type="line" smooth="yes"/>
			<point x="117" y="149"/>
			<point x="117" y="83"/>
			<point x="115" y="19" type="curve"/>
			<point x="39" y="12" type="line"/>
		</contour>
		<contour>
			<point x="300" y="-12" type="curve" smooth="yes"/>
			<point x="398" y="-12"/>
			<point x="484" y="69"/>
			<point x="484" y="235" type="curve" smooth="yes"/>
			<point x="484" y="384"/>
			<point x="403" y="461"/>
			<point x="306" y="461" type="curve" smooth="yes"/>
			<point x="245" y="461"/>
			<point x="193" y="429"/>
			<point x="152" y="367" type="curve"/>
			<point x="143" y="367" type="line"/>
			<point x="150" y="348" type="line"/>
			<point x="193" y="409"/>
			<point x="240" y="439"/>
			<point x="295" y="439" type="curve" smooth="yes"/>
			<point x="379" y="439"/>
			<point x="441" y="370"/>
			<point x="441" y="232" type="curve" smooth="yes"/>
			<point x="441" y="79"/>
			<point x="374" y="11"/>
			<point x="295" y="11" type="curve" smooth="yes"/>
			<point x="239" y="11"/>
			<point x="199" y="33"/>
			<point x="148" y="93" type="curve"/>
			<point x="141" y="75" type="line"/>
			<point x="151" y="75" type="line"/>
			<point x="194" y="11"/>
			<point x="249" y="-12"/>
		</contour>
	</outline>
	<anchor name="aboveLC" x="136" y="750"/>
	<anchor name="belowLC" x="289" y="-20"/>
</glyph>
<glyph name="c" format="2">
	<unicode hex="0063"/>
	<advance width="431"/>
	<outline>
		<contour>
			<point x="245" y="-12" type="curve" smooth="yes"/>
			<point x="307" y="-12"/>
			<point x="363" y="17"/>
			<point x="399" y="77" type="curve"/>
			<point x="389" y="85" type="line"/>
			<point x="354" y="43"/>
			<point x="309" y="19"/>
			<point x="251" y="19" type="curve" smooth="yes"/>
			<point x="150" y="19"/>
			<point x="88" y="109"/>
			<point x="88" y="231" type="curve" smooth="yes"/>
			<point x="88" y="359"/>
			<point x="157" y="445"/>
			<point x="251" y="445" type="curve" smooth="yes"/>
			<point x="288" y="445"/>
			<point x="314" y="436"/>
			<point x="343" y="408" type="curve"/>
			<point x="320" y="437" type="line"/>
			<point x="341" y="353" type="line" smooth="yes"/>
			<point x="345" y="335"/>
			<point x="355" y="327"/>
			<point x="371" y="327" type="curve" smooth="yes"/>
			<point x="385" y="327"/>
			<point x="395" y="335"/>
			<point x="396" y="351" type="curve"/>
			<point x="380" y="421"/>
			<point x="326" y="461"/>
			<point x="251" y="461" type="curve" smooth="yes"/>
			<point x="148" y="461"/>
			<point x="45" y="377"/>
			<point x="45" y="223" type="curve" smooth="yes"/>
			<point x="45" y="69"/>
			<point x="132" y="-12"/>
		</contour>
	</outline>
	<anchor name="aboveLC" x="248" y="469"/>
	<anchor name="baseLC" x="243" y="0"/>
	<anchor name="belowLC" x="243" y="-20"/>
</glyph>
<glyph name="d" format="2">
	<unicode hex="0064"/>
	<advance width="523"/>
	<outline>
		<contour>
			<point x="224" y="-12" type="curve" smooth="yes"/>
			<point x="285" y="-12"/>
			<point x="338" y="20"/>
			<point x="378" y="82" type="curve"/>
			<point x="388" y="82" type="line"/>
			<point x="380" y="102" type="line"/>
			<point x="336" y="41"/>
			<point x="291" y="10"/>
			<point x="235" y="10" type="curve" smooth="yes"/>
			<point x="151" y="10"/>
			<point x="89" y="80"/>
			<point x="89" y="217" type="curve" smooth="yes"/>
			<point x="89" y="371"/>
			<point x="165" y="439"/>
			<point x="244" y="439" type="curve" smooth="yes"/>
			<point x="300" y="439"/>
			<point x="336" y="416"/>
			<point x="382" y="356" type="curve"/>
			<point x="389" y="375" type="line"/>
			<point x="379" y="375" type="line"/>
			<point x="342" y="438"/>
			<point x="290" y="461"/>
			<point x="239" y="461" type="curve" smooth="yes"/>
			<point x="140" y="461"/>
			<point x="47" y="379"/>
			<point x="47" y="215" type="curve" smooth="yes"/>
			<point x="47" y="65"/>
			<point x="128" y="-12"/>
		</contour>
		<contour>
			<point x="373" y="-5" type="line"/>
			<point x="488" y="0" type="line"/>
			<point x="488" y="12" type="line"/>
			<point x="413" y="19" type="line"/>
			<point x="413" y="563" type="line"/>
			<point x="416" y="740" type="line"/>
			<point x="409" y="747" type="line"/>
			<point x="294" y="728" type="line"/>
			<point x="294" y="717" type="line"/>
			<point x="373" y="710" type="line"/>
			<point x="373" y="379" type="line"/>
			<point x="373" y="373" type="line"/>
			<point x="373" y="82" type="line"/>
			<point x="373" y="79" type="line"/>
		</contour>
	</outline>
	<anchor name="aboveLC" x="395" y="750"/>
	<anchor name="belowLC" x="240" y="-20"/>
</glyph>
<glyph name="i" format="2">
	<unicode hex="0069"/>
	<advance width="267"/>
	<outline>
		<contour>
			<point x="38" y="0" type="line"/>
			<point x="232" y="0" type="line"/>
			<point x="232" y="12" type="line"/>
			<point x="141" y="20" type="line"/>
			<point x="132" y="20" type="line"/>
			<point x="38" y="12" type="line"/>
		</contour>
		<contour>
			<point x="114" y="0" type="curve"/>
			<point x="160" y="0" type="line"/>
			<point x="158" y="45"/>
			<point x="157" y="147"/>
			<point x="157" y="209" type="curve" smooth="yes"/>
			<point x="157" y="336" type="line"/>
			<point x="160" y="450" type="line"/>
			<point x="153" y="456" type="line"/>
			<point x="34" y="435" type="line"/>
			<point x="34" y="424" type="line"/>
			<point x="114" y="417" type="line"/>
			<point x="116" y="363"/>
			<point x="117" y="314"/>
			<point x="117" y="254" type="curve" smooth="yes"/>
			<point x="117" y="209" type="line" smooth="yes"/>
			<point x="117" y="147"/>
			<point x="116" y="45"/>
		</contour>
		<contour>
			<point x="136" y="602" type="curve" smooth="yes"/>
			<point x="157" y="602"/>
			<point x="173" y="616"/>
			<point x="173" y="639" type="curve" smooth="yes"/>
			<point x="173" y="662"/>
			<point x="157" y="676"/>
			<point x="136" y="676" type="curve" smooth="yes"/>
			<point x="116" y="676"/>
			<point x="99" y="662"/>
			<point x="99" y="639" type="curve" smooth="yes"/>
			<point x="99" y="616"/>
			<point x="116" y="602"/>
		</contour>
	</outline>
	<anchor name="aboveLC" x="135" y="676"/>
	<anchor name="belowLC" x="139" y="-20"/>
	<anchor name="ogonek" x="155" y="0"/>
</glyph>
<glyph name="j" format="2">
	<unicode hex="006A"/>
	<advance width="253"/>
	<outline>
		<contour>
			<point x="15" y="-262" type="curve" smooth="yes"/>
			<point x="51" y="-262"/>
			<point x="78" y="-250"/>
			<point x="104" y="-224" type="curve" smooth="yes"/>
			<point x="151" y="-175"/>
			<point x="157" y="-109"/>
			<point x="157" y="48" type="curve" smooth="yes"/>
			<point x="157" y="336" type="line"/>
			<point x="160" y="450" type="line"/>
			<point x="153" y="456" type="line"/>
			<point x="34" y="435" type="line"/>
			<point x="34" y="424" type="line"/>
			<point x="114" y="417" type="line"/>
			<point x="116" y="363"/>
			<point x="117" y="314"/>
			<point x="117" y="254" type="curve" smooth="yes"/>
			<point x="117" y="26" type="line" smooth="yes"/>
			<point x="117" y="-86"/>
			<point x="115" y="-171"/>
			<point x="88" y="-214" type="curve" smooth="yes"/>
			<point x="77" y="-231"/>
			<point x="65" y="-241"/>
			<point x="47" y="-247" type="curve"/>
			<point x="47" y="-251" type="line"/>
			<point x="61" y="-251" type="line"/>
			<point x="61" y="-246" type="line"/>
			<point x="38" y="-227" type="line" smooth="yes"/>
			<point x="21" y="-214"/>
			<point x="4" y="-206"/>
			<point x="-13" y="-206" type="curve" smooth="yes"/>
			<point x="-35" y="-206"/>
			<point x="-48" y="-215"/>
			<point x="-49" y="-232" type="curve"/>
			<point x="-41" y="-252"/>
			<point x="-14" y="-262"/>
		</contour>
		<contour>
			<point x="137" y="602" type="curve" smooth="yes"/>
			<point x="157" y="602"/>
			<point x="174" y="616"/>
			<point x="174" y="639" type="curve" smooth="yes"/>
			<point x="174" y="662"/>
			<point x="157" y="676"/>
			<point x="137" y="676" type="curve" smooth="yes"/>
			<point x="117" y="676"/>
			<point x="100" y="662"/>
			<point x="100" y="639" type="curve" smooth="yes"/>
			<point x="100" y="616"/>
			<point x="117" y="602"/>
		</contour>
	</outline>
	<anchor name="aboveLC" x="136" y="676"/>
	<anchor name="belowLC" x="53" y="-282"/>
</glyph>
<glyph name="k" format="2">
	<unicode hex="006B"/>
	<advance width="495"/>
	<outline>
		<contour>
			<point x="38" y="0" type="line"/>
			<point x="232" y="0" type="line"/>
			<point x="232" y="12" type="line"/>
			<point x="141" y="20" type="line"/>
			<point x="132" y="20" type="line"/>
			<point x="38" y="12" type="line"/>
		</contour>
		<contour>
			<point x="114" y="0" type="curve"/>
			<point x="160" y="0" type="line"/>
			<point x="158" y="45"/>
			<point x="157" y="147"/>
			<point x="157" y="209" type="curve" smooth="yes"/>
			<point x="157" y="563" type="line"/>
			<point x="160" y="740" type="line"/>
			<point x="153" y="747" type="line"/>
			<point x="37" y="728" type="line"/>
			<point x="37" y="717" type="line"/>
			<point x="117" y="710" type="line"/>
			<point x="117" y="209" type="line" smooth="yes"/>
			<point x="117" y="147"/>
			<point x="116" y="45"/>
		</contour>
		<contour>
			<point x="138" y="158" type="line"/>
			<point x="410" y="449" type="line"/>
			<point x="385" y="449" type="line"/>
			<point x="143" y="187" type="line"/>
			<point x="138" y="187" type="line"/>
		</contour>
		<contour>
			<point x="385" y="0" type="line"/>
			<point x="488" y="0" type="line"/>
			<point x="488" y="12" type="line"/>
			<point x="422" y="18" type="line"/>
			<point x="256" y="292" type="line"/>
			<point x="228" y="265" type="line"/>
		</contour>
		<contour>
			<point x="273" y="437" type="line"/>
			<point x="374" y="429" type="line"/>
			<point x="382" y="429" type="line"/>
			<point x="471" y="437" type="line"/>
			<point x="471" y="449" type="line"/>
			<point x="273" y="449" type="line"/>
		</contour>
	</outline>
	<anchor name="aboveLC" x="142" y="750"/>
	<anchor name="belowLC" x="271" y="-20"/>
</glyph>
<glyph name="m" format="2">
	<unicode hex="006D"/>
	<advance width="814"/>
	<outline>
		<contour>
			<point x="38" y="0" type="line"/>
			<point x="232" y="0" type="line"/>
			<point x="232" y="12" type="line"/>
			<point x="141" y="20" type="line"/>
			<point x="132" y="20" type="line"/>
			<point x="38" y="12" type="line"/>
		</contour>
		<contour>
			<point x="114" y="0" type="curve"/>
			<point x="160" y="0" type="line"/>
			<point x="158" y="45"/>
			<point x="157" y="147"/>
			<point x="157" y="209" type="curve" smooth="yes"/>
			<point x="157" y="351" type="line"/>
			<point x="157" y="354" type="line"/>
			<point x="157" y="450" type="line"/>
			<point x="150" y="456" type="line"/>
			<point x="34" y="435" type="line"/>
			<point x="34" y="424" type="line"/>
			<point x="114" y="417" type="line"/>
			<point x="116" y="363"/>
			<point x="117" y="314"/>
			<point x="117" y="254" type="curve" smooth="yes"/>
			<point x="117" y="209" type="line" smooth="yes"/>
			<point x="117" y="147"/>
			<point x="116" y="45"/>
		</contour>
		<contour>
			<point x="315" y="0" type="line"/>
			<point x="506" y="0" type="line"/>
			<point x="506" y="12" type="line"/>
			<point x="418" y="20" type="line"/>
			<point x="409" y="20" type="line"/>
			<point x="315" y="12" type="line"/>
		</contour>
		<contour>
			<point x="390" y="0" type="curve"/>
			<point x="437" y="0" type="line"/>
			<point x="435" y="45"/>
			<point x="434" y="147"/>
			<point x="434" y="209" type="curve" smooth="yes"/>
			<point x="434" y="303" type="line" smooth="yes"/>
			<point x="434" y="420"/>
			<point x="396" y="461"/>
			<point x="325" y="461" type="curve" smooth="yes"/>
			<point x="265" y="461"/>
			<point x="206" y="424"/>
			<point x="147" y="350" type="curve"/>
			<point x="143" y="350" type="line"/>
			<point x="149" y="337" type="line"/>
			<point x="216" y="413"/>
			<point x="269" y="433"/>
			<point x="309" y="433" type="curve" smooth="yes"/>
			<point x="368" y="433"/>
			<point x="394" y="401"/>
			<point x="394" y="304" type="curve" smooth="yes"/>
			<point x="394" y="209" type="line" smooth="yes"/>
			<point x="394" y="147"/>
			<point x="393" y="45"/>
		</contour>
		<contour>
			<point x="592" y="0" type="line"/>
			<point x="783" y="0" type="line"/>
			<point x="783" y="12" type="line"/>
			<point x="695" y="20" type="line"/>
			<point x="686" y="20" type="line"/>
			<point x="592" y="12" type="line"/>
		</contour>
		<contour>
			<point x="667" y="0" type="curve"/>
			<point x="714" y="0" type="line"/>
			<point x="712" y="45"/>
			<point x="711" y="147"/>
			<point x="711" y="209" type="curve" smooth="yes"/>
			<point x="711" y="303" type="line" smooth="yes"/>
			<point x="711" y="420"/>
			<point x="673" y="461"/>
			<point x="602" y="461" type="curve" smooth="yes"/>
			<point x="542" y="461"/>
			<point x="482" y="424"/>
			<point x="424" y="350" type="curve"/>
			<point x="419" y="350" type="line"/>
			<point x="426" y="337" type="line"/>
			<point x="493" y="413"/>
			<point x="546" y="433"/>
			<point x="586" y="433" type="curve" smooth="yes"/>
			<point x="645" y="433"/>
			<point x="671" y="401"/>
			<point x="671" y="304" type="curve" smooth="yes"/>
			<point x="671" y="209" type="line" smooth="yes"/>
			<point x="671" y="147"/>
			<point x="670" y="45"/>
		</contour>
	</outline>
	<anchor name="aboveLC" x="413" y="469"/>
	<anchor name="belowLC" x="414" y="-20"/>
</glyph>
<glyph name="r" format="2">
	<unicode hex="0072"/>
	<advance width="379"/>
	<outline>
		<contour>
			<point x="38" y="0" type="line"/>
			<point x="249" y="0" type="line"/>
			<point x="249" y="12" type="line"/>
			<point x="141" y="20" type="line"/>
			<point x="132" y="20" type="line"/>
			<point x="38" y="12" type="line"/>
		</contour>
		<contour>
			<point x="114" y="0" type="curve"/>
			<point x="160" y="0" type="line"/>
			<point x="158" y="45"/>
			<point x="157" y="147"/>
			<point x="157" y="209" type="curve" smooth="yes"/>
			<point x="157" y="310" type="line"/>
			<point x="157" y="312" type="line"/>
			<point x="157" y="450" type="line"/>
			<point x="150" y="456" type="line"/>
			<point x="34" y="435" type="line"/>
			<point x="34" y="424" type="line"/>
			<point x="114" y="417" type="line"/>
			<point x="116" y="363"/>
			<point x="117" y="314"/>
			<point x="117" y="254" type="curve" smooth="yes"/>
			<point x="117" y="209" type="line" smooth="yes"/>
			<point x="117" y="147"/>
			<point x="116" y="45"/>
		</contour>
		<contour>
			<point x="153" y="280" type="line"/>
			<point x="181" y="373"/>
			<point x="232" y="428"/>
			<point x="284" y="441" type="curve"/>
			<point x="258" y="439" type="line"/>
			<point x="277" y="422" type="line" smooth="yes"/>
			<point x="293" y="409"/>
			<point x="310" y="399"/>
			<point x="328" y="399" type="curve" smooth="yes"/>
			<point x="348" y="399"/>
			<point x="364" y="408"/>
			<point x="366" y="430" type="curve"/>
			<point x="359" y="450"/>
			<point x="335" y="461"/>
			<point x="305" y="461" type="curve" smooth="yes"/>
			<point x="241" y="461"/>
			<point x="183" y="404"/>
			<point x="154" y="316" type="curve"/>
			<point x="144" y="316" type="line"/>
		</contour>
	</outline>
	<anchor name="aboveLC" x="220" y="469"/>
	<anchor name="belowLC" x="138" y="-20"/>
</glyph>
<glyph name="x" format="2">
	<unicode hex="0078"/>
	<advance width="454"/>
	<outline>
		<contour>
			<point x="9" y="0" type="line"/>
			<point x="156" y="0" type="line"/>
			<point x="156" y="12" type="line"/>
			<point x="87" y="19" type="line"/>
			<point x="78" y="19" type="line"/>
			<point x="9" y="12" type="line"/>
		</contour>
		<contour>
			<point x="57" y="0" type="line"/>
			<point x="80" y="0" type="line"/>
			<point x="229" y="222" type="line"/>
			<point x="225" y="228" type="line"/>
			<point x="218" y="235" type="line"/>
		</contour>
		<contour>
			<point x="272" y="0" type="line"/>
			<point x="445" y="0" type="line"/>
			<point x="445" y="12" type="line"/>
			<point x="364" y="20" type="line"/>
			<point x="354" y="20" type="line"/>
			<point x="272" y="12" type="line"/>
		</contour>
		<contour>
			<point x="230" y="215" type="line"/>
			<point x="392" y="449" type="line"/>
			<point x="370" y="449" type="line"/>
			<point x="220" y="227" type="line"/>
			<point x="224" y="222" type="line"/>
		</contour>
		<contour>
			<point x="352" y="0" type="line"/>
			<point x="402" y="0" type="line"/>
			<point x="243" y="239" type="line"/>
			<point x="107" y="449" type="line"/>
			<point x="57" y="449" type="line"/>
			<point x="212" y="217" type="line"/>
		</contour>
		<contour>
			<point x="15" y="437" type="line"/>
			<point x="95" y="429" type="line"/>
			<point x="104" y="429" type="line"/>
			<point x="187" y="438" type="line"/>
			<point x="187" y="449" type="line"/>
			<point x="15" y="449" type="line"/>
		</contour>
		<contour>
			<point x="291" y="438" type="line"/>
			<point x="363" y="431" type="line"/>
			<point x="371" y="431" type="line"/>
			<point x="437" y="437" type="line"/>
			<point x="437" y="449" type="line"/>
			<point x="291" y="449" type="line"/>
		</contour>
	</outline>
	<anchor name="aboveLC" x="239" y="469"/>
	<anchor name="belowLC" x="217" y="-20"/>
</glyph>
<glyph name="bar" format="2">
	<unicode hex="007C"/>
	<advance width="240"/>
	<outline>
		<contour>
			<point x="105" y="-252" type="line"/>
			<point x="135" y="-252" type="line"/>
			<point x="135" y="748" type="line"/>
			<point x="105" y="748" type="line"/>
		</contour>
	</outline>
</glyph>
<glyph name="asciitilde" format="2">
	<unicode hex="007E"/>
	<advance width="500"/>
	<outline>
		<contour>
			<point x="257" y="347" type="curve" smooth="yes"/>
			<point x="229" y="372"/>
			<point x="201" y="398"/>
			<point x="158" y="398" type="curve" smooth="yes"/>
			<point x="102" y="398"/>
			<point x="66" y="357"/>
			<point x="58" y="292" type="curve"/>
			<point x="77" y="288" type="line"/>
			<point x="87" y="351"/>
			<point x="116" y="376"/>
			<point x="157" y="376" type="curve" smooth="yes"/>
			<point x="192" y="376"/>
			<point x="217" y="354"/>
			<point x="242" y="331" type="curve" smooth="yes"/>
			<point x="270" y="306"/>
			<point x="299" y="280"/>
			<point x="342" y="280" type="curve" smooth="yes"/>
			<point x="398" y="280"/>
			<point x="434" y="321"/>
			<point x="442" y="386" type="curve"/>
			<point x="423" y="390" type="line"/>
			<point x="413" y="326"/>
			<point x="384" y="302"/>
			<point x="343" y="302" type="curve" smooth="yes"/>
			<point x="308" y="302"/>
			<point x="283" y="324"/>
		</contour>
	</outline>
</glyph>
<glyph name="yen" format="2">
	<unicode hex="00A5"/>
	<advance width="464"/>
	<outline>
		<contour>
			<point x="237" y="244" type="line"/>
			<point x="415" y="653" type="line"/>
			<point x="394" y="653" type="line"/>
			<point x="243" y="301" type="line"/>
			<point x="241" y="296" type="line"/>
			<point x="249" y="296" type="line"/>
			<point x="91" y="653" type="line"/>
			<point x="44" y="653" type="line"/>
			<point x="227" y="244" type="line"/>
		</contour>
		<contour>
			<point x="69" y="632" type="line"/>
			<point x="89" y="632" type="line"/>
			<point x="192" y="640" type="line"/>
			<point x="192" y="653" type="line"/>
			<point x="-7" y="653" type="line"/>
			<point x="-7" y="640" type="line"/>
		</contour>
		<contour>
			<point x="223" y="20" type="line"/>
			<point x="108" y="12" type="line"/>
			<point x="108" y="0" type="line"/>
			<point x="357" y="0" type="line"/>
			<point x="357" y="12" type="line"/>
			<point x="242" y="20" type="line"/>
		</contour>
		<contour>
			<point x="211" y="177" type="line" smooth="yes"/>
			<point x="211" y="118"/>
			<point x="210" y="63"/>
			<point x="208" y="0" type="curve"/>
			<point x="256" y="0" type="line"/>
			<point x="255" y="63"/>
			<point x="254" y="118"/>
			<point x="254" y="177" type="curve" smooth="yes"/>
			<point x="254" y="297" type="line"/>
			<point x="211" y="297" type="line"/>
		</contour>
		<contour>
			<point x="387" y="633" type="line"/>
			<point x="401" y="633" type="line"/>
			<point x="468" y="640" type="line"/>
			<point x="468" y="653" type="line"/>
			<point x="293" y="653" type="line"/>
			<point x="293" y="640" type="line"/>
		</contour>
		<contour>
			<point x="53" y="171" type="line"/>
			<point x="411" y="171" type="line"/>
			<point x="411" y="185" type="line"/>
			<point x="53" y="185" type="line"/>
		</contour>
		<contour>
			<point x="53" y="276" type="line"/>
			<point x="411" y="276" type="line"/>
			<point x="411" y="291" type="line"/>
			<point x="53" y="291" type="line"/>
		</contour>
	</outline>
</glyph>
<glyph name="logicalnot" format="2">
	<unicode hex="00AC"/>
	<advance width="496"/>
	<outline>
		<contour>
			<point x="32" y="361" type="line"/>
			<point x="449" y="361" type="line"/>
			<point x="438" y="373" type="line"/>
			<point x="438" y="175" type="line"/>
			<point x="461" y="175" type="line"/>
			<point x="461" y="383" type="line"/>
			<point x="32" y="383" type="line"/>
		</contour>
	</outline>
</glyph>
<glyph name="Eth" format="2">
	<unicode hex="00D0"/>
	<advance width="636"/>
	<outline>
		<contour>
			<point x="360" y="338" type="line"/>
			<point x="360" y="354" type="line"/>
			<point x="46" y="354" type="line"/>
			<point x="46" y="338" type="line"/>
		</contour>
		<component base="D"/>
	</outline>
</glyph>
<glyph name="Thorn" format="2">
	<unicode hex="00DE"/>
	<advance width="529"/>
	<outline>
		<contour>
			<point x="154" y="176" type="line"/>
			<point x="269" y="176" type="line" smooth="yes"/>
			<point x="415" y="176"/>
			<point x="495" y="248"/>
			<point x="495" y="359" type="curve" smooth="yes"/>
			<point x="495" y="470"/>
			<point x="415" y="535"/>
			<point x="269" y="535" type="curve" smooth="yes"/>
			<point x="154" y="535" type="line"/>
			<point x="154" y="517" type="line"/>
			<point x="265" y="517" type="line" smooth="yes"/>
			<point x="387" y="517"/>
			<point x="451" y="465"/>
			<point x="451" y="359" type="curve" smooth="yes"/>
			<point x="451" y="252"/>
			<point x="387" y="194"/>
			<point x="265" y="194" type="curve" smooth="yes"/>
			<point x="154" y="194" type="line"/>
		</contour>
		<contour>
			<point x="132" y="0" type="curve"/>
			<point x="180" y="0" type="line"/>
			<point x="178" y="85"/>
			<point x="178" y="214"/>
			<point x="178" y="321" type="curve" smooth="yes"/>
			<point x="178" y="360" type="line" smooth="yes"/>
			<point x="178" y="464"/>
			<point x="178" y="590"/>
			<point x="180" y="674" type="curve"/>
			<point x="132" y="674" type="line"/>
			<point x="135" y="590"/>
			<point x="135" y="464"/>
			<point x="135" y="360" type="curve" smooth="yes"/>
			<point x="135" y="321" type="line" smooth="yes"/>
			<point x="135" y="214"/>
			<point x="135" y="85"/>
		</contour>
		<contour>
			<point x="146" y="653" type="line"/>
			<point x="166" y="653" type="line"/>
			<point x="268" y="662" type="line"/>
			<point x="268" y="674" type="line"/>
			<point x="45" y="674" type="line"/>
			<point x="45" y="662" type="line"/>
		</contour>
		<contour>
			<point x="45" y="0" type="line"/>
			<point x="268" y="0" type="line"/>
			<point x="268" y="12" type="line"/>
			<point x="166" y="20" type="line"/>
			<point x="146" y="20" type="line"/>
			<point x="45" y="12" type="line"/>
		</contour>
	</outline>
</glyph>
<glyph name="divide" format="2">
	<unicode hex="00F7"/>
	<advance width="500"/>
	<outline>
		<contour>
			<point x="250" y="110" type="curve" smooth="yes"/>
			<point x="270" y="110"/>
			<point x="288" y="125"/>
			<point x="288" y="148" type="curve" smooth="yes"/>
			<point x="288" y="170"/>
			<point x="270" y="185"/>
			<point x="250" y="185" type="curve" smooth="yes"/>
			<point x="230" y="185"/>
			<point x="213" y="170"/>
			<point x="213" y="148" type="curve" smooth="yes"/>
			<point x="213" y="125"/>
			<point x="230" y="110"/>
		</contour>
		<contour>
			<point x="250" y="480" type="curve" smooth="yes"/>
			<point x="270" y="480"/>
			<point x="288" y="495"/>
			<point x="288" y="517" type="curve" smooth="yes"/>
			<point x="288" y="540"/>
			<point x="270" y="555"/>
			<point x="250" y="555" type="curve" smooth="yes"/>
			<point x="230" y="555"/>
			<point x="213" y="540"/>
			<point x="213" y="517" type="curve" smooth="yes"/>
			<point x="213" y="495"/>
			<point x="230" y="480"/>
		</contour>
		<component base="minus"/>
	</outline>
</glyph>
<glyph name="oslash" format="2">
	<unicode hex="00F8"/>
	<advance width="491"/>
	<outline>
		<contour>
			<point x="441" y="458" type="line"/>
			<point x="428" y="467" type="line"/>
			<point x="49" y="-9" type="line"/>
			<point x="62" y="-17" type="line"/>
		</contour>
		<contour>
			<point x="246" y="-12" type="curve" smooth="yes"/>
			<point x="345" y="-12"/>
			<point x="445" y="68"/>
			<point x="445" y="228" type="curve" smooth="yes"/>
			<point x="445" y="388"/>
			<point x="345" y="461"/>
			<point x="246" y="461" type="curve" smooth="yes"/>
			<point x="146" y="461"/>
			<point x="47" y="382"/>
			<point x="47" y="221" type="curve" smooth="yes"/>
			<point x="47" y="62"/>
			<point x="146" y="-12"/>
		</contour>
		<contour>
			<point x="246" y="4" type="curve" smooth="yes"/>
			<point x="160" y="4"/>
			<point x="90" y="76"/>
			<point x="90" y="221" type="curve" smooth="yes"/>
			<point x="90" y="367"/>
			<point x="160" y="446"/>
			<point x="246" y="446" type="curve" smooth="yes"/>
			<point x="331" y="446"/>
			<point x="401" y="373"/>
			<point x="401" y="228" type="curve" smooth="yes"/>
			<point x="401" y="82"/>
			<point x="331" y="4"/>
		</contour>
	</outline>
	<anchor name="aboveLC" x="244" y="469"/>
</glyph>
<glyph name="thorn" format="2">
	<unicode hex="00FE"/>
	<advance width="522"/>
	<outline>
		<contour>
			<point x="107" y="-262" type="curve"/>
			<point x="152" y="-262" type="line"/>
			<point x="150" y="-208"/>
			<point x="149" y="-118"/>
			<point x="149" y="-53" type="curve" smooth="yes"/>
			<point x="149" y="73" type="line"/>
			<point x="149" y="76" type="line"/>
			<point x="149" y="367" type="line"/>
			<point x="149" y="369" type="line"/>
			<point x="149" y="570" type="line"/>
			<point x="152" y="740" type="line"/>
			<point x="144" y="747" type="line"/>
			<point x="29" y="728" type="line"/>
			<point x="29" y="717" type="line"/>
			<point x="109" y="710" type="line"/>
			<point x="109" y="-53" type="line" smooth="yes"/>
			<point x="109" y="-116"/>
			<point x="108" y="-217"/>
		</contour>
		<contour>
			<point x="292" y="-12" type="curve" smooth="yes"/>
			<point x="400" y="-12"/>
			<point x="476" y="82"/>
			<point x="476" y="233" type="curve" smooth="yes"/>
			<point x="476" y="373"/>
			<point x="402" y="461"/>
			<point x="298" y="461" type="curve" smooth="yes"/>
			<point x="241" y="461"/>
			<point x="185" y="431"/>
			<point x="144" y="368" type="curve"/>
			<point x="135" y="368" type="line"/>
			<point x="142" y="348" type="line"/>
			<point x="185" y="409"/>
			<point x="232" y="439"/>
			<point x="287" y="439" type="curve" smooth="yes"/>
			<point x="371" y="439"/>
			<point x="433" y="370"/>
			<point x="433" y="232" type="curve" smooth="yes"/>
			<point x="433" y="79"/>
			<point x="366" y="11"/>
			<point x="287" y="11" type="curve" smooth="yes"/>
			<point x="231" y="11"/>
			<point x="191" y="33"/>
			<point x="140" y="93" type="curve"/>
			<point x="133" y="75" type="line"/>
			<point x="143" y="75" type="line"/>
			<point x="186" y="11"/>
			<point x="242" y="-12"/>
		</contour>
		<contour>
			<point x="31" y="-262" type="line"/>
			<point x="235" y="-262" type="line"/>
			<point x="235" y="-250" type="line"/>
			<point x="132" y="-242" type="line"/>
			<point x="124" y="-242" type="line"/>
			<point x="31" y="-250" type="line"/>
		</contour>
	</outline>
	<anchor name="aboveLC" x="130" y="750"/>
	<anchor name="belowLC" x="307" y="-20"/>
</glyph>
<glyph name="aogonek" format="2">
	<unicode hex="0105"/>
	<advance width="458"/>
	<outline>
		<contour>
			<point x="161" y="-12" type="curve" smooth="yes"/>
			<point x="215" y="-12"/>
			<point x="260" y="13"/>
			<point x="312" y="76" type="curve"/>
			<point x="328" y="76" type="line"/>
			<point x="325" y="105" type="line"/>
			<point x="262" y="36"/>
			<point x="223" y="16"/>
			<point x="174" y="16" type="curve" smooth="yes"/>
			<point x="123" y="16"/>
			<point x="89" y="46"/>
			<point x="89" y="105" type="curve" smooth="yes"/>
			<point x="89" y="151"/>
			<point x="114" y="192"/>
			<point x="192" y="222" type="curve" smooth="yes"/>
			<point x="229" y="235"/>
			<point x="279" y="250"/>
			<point x="328" y="263" type="curve"/>
			<point x="328" y="275" type="line"/>
			<point x="275" y="263"/>
			<point x="224" y="250"/>
			<point x="184" y="237" type="curve" smooth="yes"/>
			<point x="83" y="203"/>
			<point x="47" y="159"/>
			<point x="47" y="97" type="curve" smooth="yes"/>
			<point x="47" y="26"/>
			<point x="94" y="-12"/>
		</contour>
		<contour>
			<point x="378" y="-222" type="curve" smooth="yes"/>
			<point x="414" y="-222"/>
			<point x="447" y="-205"/>
			<point x="466" y="-178" type="curve"/>
			<point x="459" y="-170" type="line"/>
			<point x="439" y="-188"/>
			<point x="416" y="-196"/>
			<point x="392" y="-196" type="curve" smooth="yes"/>
			<point x="353" y="-196"/>
			<point x="324" y="-171"/>
			<point x="324" y="-127" type="curve" smooth="yes"/>
			<point x="324" y="-75"/>
			<point x="375" y="-30"/>
			<point x="416" y="1" type="curve" smooth="yes"/>
			<point x="426" y="8"/>
			<point x="434" y="17"/>
			<point x="439" y="27" type="curve"/>
			<point x="431" y="34" type="line"/>
			<point x="416" y="18"/>
			<point x="402" y="11"/>
			<point x="387" y="11" type="curve" smooth="yes"/>
			<point x="363" y="11"/>
			<point x="350" y="25"/>
			<point x="350" y="65" type="curve" smooth="yes"/>
			<point x="350" y="315" type="line" smooth="yes"/>
			<point x="350" y="416"/>
			<point x="309" y="461"/>
			<point x="219" y="461" type="curve" smooth="yes"/>
			<point x="148" y="461"/>
			<point x="80" y="425"/>
			<point x="64" y="352" type="curve"/>
			<point x="65" y="336"/>
			<point x="73" y="327"/>
			<point x="88" y="327" type="curve" smooth="yes"/>
			<point x="104" y="327"/>
			<point x="113" y="336"/>
			<point x="117" y="353" type="curve" smooth="yes"/>
			<point x="136" y="433" type="line"/>
			<point x="107" y="409" type="line"/>
			<point x="157" y="437"/>
			<point x="180" y="444"/>
			<point x="208" y="444" type="curve" smooth="yes"/>
			<point x="277" y="444"/>
			<point x="309" y="408"/>
			<point x="309" y="305" type="curve" smooth="yes"/>
			<point x="309" y="64" type="line"/>
			<point x="309" y="62" type="line" smooth="yes"/>
			<point x="310" y="14"/>
			<point x="333" y="-11"/>
			<point x="376" y="-11" type="curve" smooth="yes"/>
			<point x="379" y="-11"/>
			<point x="384" y="-10"/>
			<point x="396" y="-7" type="curve"/>
			<point x="396" y="-1" type="line"/>
			<point x="334" y="-42"/>
			<point x="292" y="-86"/>
			<point x="292" y="-139" type="curve" smooth="yes"/>
			<point x="292" y="-189"/>
			<point x="329" y="-222"/>
		</contour>
	</outline>
	<anchor name="aboveLC" x="212" y="469"/>
	<anchor name="belowLC" x="221" y="-20"/>
</glyph>
<glyph name="hbar" format="2">
	<unicode hex="0127"/>
	<advance width="550"/>
	<outline>
		<contour>
			<point x="114" y="0" type="curve"/>
			<point x="160" y="0" type="line"/>
			<point x="158" y="45"/>
			<point x="157" y="147"/>
			<point x="157" y="209" type="curve" smooth="yes"/>
			<point x="157" y="344" type="line"/>
			<point x="157" y="349" type="line"/>
			<point x="157" y="563" type="line"/>
			<point x="160" y="740" type="line"/>
			<point x="153" y="747" type="line"/>
			<point x="37" y="728" type="line"/>
			<point x="37" y="717" type="line"/>
			<point x="117" y="710" type="line"/>
			<point x="117" y="209" type="line" smooth="yes"/>
			<point x="117" y="147"/>
			<point x="116" y="45"/>
		</contour>
		<contour>
			<point x="38" y="0" type="line"/>
			<point x="232" y="0" type="line"/>
			<point x="232" y="12" type="line"/>
			<point x="141" y="20" type="line"/>
			<point x="132" y="20" type="line"/>
			<point x="38" y="12" type="line"/>
		</contour>
		<contour>
			<point x="329" y="0" type="line"/>
			<point x="520" y="0" type="line"/>
			<point x="520" y="12" type="line"/>
			<point x="432" y="20" type="line"/>
			<point x="423" y="20" type="line"/>
			<point x="329" y="12" type="line"/>
		</contour>
		<contour>
			<point x="38" y="576" type="line"/>
			<point x="345" y="576" type="line"/>
			<point x="345" y="592" type="line"/>
			<point x="38" y="592" type="line"/>
		</contour>
		<contour>
			<point x="405" y="0" type="curve"/>
			<point x="451" y="0" type="line"/>
			<point x="449" y="45"/>
			<point x="448" y="147"/>
			<point x="448" y="209" type="curve" smooth="yes"/>
			<point x="448" y="297" type="line" smooth="yes"/>
			<point x="448" y="417"/>
			<point x="407" y="456"/>
			<point x="333" y="456" type="curve" smooth="yes"/>
			<point x="271" y="456"/>
			<point x="206" y="418"/>
			<point x="147" y="344" type="curve"/>
			<point x="143" y="344" type="line"/>
			<point x="149" y="331" type="line"/>
			<point x="216" y="407"/>
			<point x="275" y="427"/>
			<point x="317" y="427" type="curve" smooth="yes"/>
			<point x="379" y="427"/>
			<point x="408" y="395"/>
			<point x="408" y="298" type="curve" smooth="yes"/>
			<point x="408" y="209" type="line" smooth="yes"/>
			<point x="408" y="147"/>
			<point x="407" y="45"/>
		</contour>
	</outline>
</glyph>
<glyph name="kgreenlandic" format="2">
	<unicode hex="0138"/>
	<advance width="495"/>
	<outline>
		<contour>
			<point x="38" y="0" type="line"/>
			<point x="232" y="0" type="line"/>
			<point x="232" y="12" type="line"/>
			<point x="141" y="20" type="line"/>
			<point x="132" y="20" type="line"/>
			<point x="38" y="12" type="line"/>
		</contour>
		<contour>
			<point x="114" y="0" type="curve"/>
			<point x="160" y="0" type="line"/>
			<point x="158" y="45"/>
			<point x="157" y="147"/>
			<point x="157" y="209" type="curve" smooth="yes"/>
			<point x="157" y="336" type="line"/>
			<point x="160" y="450" type="line"/>
			<point x="153" y="456" type="line"/>
			<point x="34" y="435" type="line"/>
			<point x="34" y="424" type="line"/>
			<point x="114" y="417" type="line"/>
			<point x="116" y="363"/>
			<point x="117" y="314"/>
			<point x="117" y="254" type="curve" smooth="yes"/>
			<point x="117" y="209" type="line" smooth="yes"/>
			<point x="117" y="147"/>
			<point x="116" y="45"/>
		</contour>
		<contour>
			<point x="138" y="150" type="line"/>
			<point x="410" y="449" type="line"/>
			<point x="385" y="449" type="line"/>
			<point x="264" y="315" type="line"/>
			<point x="143" y="179" type="line"/>
			<point x="138" y="179" type="line"/>
		</contour>
		<contour>
			<point x="385" y="0" type="line"/>
			<point x="488" y="0" type="line"/>
			<point x="488" y="12" type="line"/>
			<point x="400" y="20" type="line"/>
			<point x="427" y="9" type="line"/>
			<point x="256" y="292" type="line"/>
			<point x="228" y="265" type="line"/>
		</contour>
		<contour>
			<point x="374" y="429" type="line"/>
			<point x="382" y="429" type="line"/>
			<point x="471" y="437" type="line"/>
			<point x="471" y="449" type="line"/>
			<point x="273" y="449" type="line"/>
			<point x="273" y="437" type="line"/>
		</contour>
	</outline>
</glyph>
<glyph name="Eng" format="2">
	<unicode hex="014A"/>
	<advance width="688"/>
	<outline>
		<contour>
			<point x="45" y="0" type="line"/>
			<point x="255" y="0" type="line"/>
			<point x="255" y="12" type="line"/>
			<point x="150" y="20" type="line"/>
			<point x="142" y="20" type="line"/>
			<point x="45" y="12" type="line"/>
		</contour>
		<contour>
			<point x="136" y="0" type="line"/>
			<point x="156" y="0" type="line"/>
			<point x="156" y="663" type="line"/>
			<point x="136" y="663" type="line"/>
		</contour>
		<contour>
			<point x="420" y="-125" type="curve" smooth="yes"/>
			<point x="458" y="-125"/>
			<point x="486" y="-106"/>
			<point x="517" y="-66" type="curve" smooth="yes"/>
			<point x="551" y="-22"/>
			<point x="560" y="39"/>
			<point x="560" y="125" type="curve" smooth="yes"/>
			<point x="560" y="673" type="line"/>
			<point x="540" y="673" type="line"/>
			<point x="540" y="109" type="line" smooth="yes"/>
			<point x="540" y="-16"/>
			<point x="503" y="-72"/>
			<point x="446" y="-105" type="curve"/>
			<point x="446" y="-111" type="line"/>
			<point x="465" y="-111" type="line"/>
			<point x="465" y="-104" type="line"/>
			<point x="444" y="-88" type="line" smooth="yes"/>
			<point x="426" y="-74"/>
			<point x="411" y="-67"/>
			<point x="393" y="-67" type="curve" smooth="yes"/>
			<point x="371" y="-67"/>
			<point x="359" y="-77"/>
			<point x="358" y="-93" type="curve"/>
			<point x="361" y="-114"/>
			<point x="391" y="-125"/>
		</contour>
		<contour>
			<point x="539" y="0" type="line"/>
			<point x="545" y="0" type="line"/>
			<point x="545" y="74" type="line"/>
			<point x="542" y="74" type="line"/>
			<point x="164" y="673" type="line"/>
			<point x="45" y="673" type="line"/>
			<point x="45" y="661" type="line"/>
			<point x="125" y="654" type="line"/>
			<point x="151" y="612" type="line"/>
			<point x="152" y="612" type="line"/>
		</contour>
		<contour>
			<point x="546" y="653" type="line"/>
			<point x="553" y="653" type="line"/>
			<point x="643" y="661" type="line"/>
			<point x="643" y="673" type="line"/>
			<point x="441" y="673" type="line"/>
			<point x="442" y="661" type="line"/>
		</contour>
	</outline>
</glyph>
<glyph name="Uogonek" format="2">
	<unicode hex="0172"/>
	<advance width="681"/>
	<outline>
		<contour>
			<point x="412" y="-222" type="curve" smooth="yes"/>
			<point x="448" y="-222"/>
			<point x="481" y="-205"/>
			<point x="499" y="-178" type="curve"/>
			<point x="492" y="-170" type="line"/>
			<point x="473" y="-188"/>
			<point x="450" y="-196"/>
			<point x="426" y="-196" type="curve" smooth="yes"/>
			<point x="387" y="-196"/>
			<point x="357" y="-169"/>
			<point x="357" y="-125" type="curve" smooth="yes"/>
			<point x="357" y="-70"/>
			<point x="411" y="-17"/>
			<point x="457" y="12" type="curve" smooth="yes"/>
			<point x="520" y="52"/>
			<point x="553" y="125"/>
			<point x="553" y="243" type="curve" smooth="yes"/>
			<point x="553" y="674" type="line"/>
			<point x="533" y="674" type="line"/>
			<point x="533" y="255" type="line" smooth="yes"/>
			<point x="533" y="81"/>
			<point x="471" y="16"/>
			<point x="346" y="16" type="curve" smooth="yes"/>
			<point x="243" y="16"/>
			<point x="172" y="76"/>
			<point x="172" y="239" type="curve" smooth="yes"/>
			<point x="172" y="333" type="line" smooth="yes"/>
			<point x="172" y="482"/>
			<point x="172" y="580"/>
			<point x="175" y="674" type="curve"/>
			<point x="127" y="674" type="line"/>
			<point x="130" y="580"/>
			<point x="130" y="482"/>
			<point x="130" y="333" type="curve" smooth="yes"/>
			<point x="130" y="232" type="line" smooth="yes"/>
			<point x="130" y="56"/>
			<point x="216" y="-13"/>
			<point x="342" y="-13" type="curve" smooth="yes"/>
			<point x="373" y="-13"/>
			<point x="400" y="-10"/>
			<point x="424" y="-1" type="curve"/>
			<point x="433" y="8" type="line"/>
			<point x="386" y="-22"/>
			<point x="325" y="-71"/>
			<point x="325" y="-136" type="curve" smooth="yes"/>
			<point x="325" y="-186"/>
			<point x="363" y="-222"/>
		</contour>
		<contour>
			<point x="47" y="662" type="line"/>
			<point x="141" y="653" type="line"/>
			<point x="161" y="653" type="line"/>
			<point x="262" y="662" type="line"/>
			<point x="262" y="674" type="line"/>
			<point x="47" y="674" type="line"/>
		</contour>
		<contour>
			<point x="443" y="662" type="line"/>
			<point x="540" y="654" type="line"/>
			<point x="547" y="654" type="line"/>
			<point x="634" y="662" type="line"/>
			<point x="634" y="674" type="line"/>
			<point x="443" y="674" type="line"/>
		</contour>
	</outline>
	<anchor name="aboveUC" x="352" y="694"/>
	<anchor name="belowLC" x="343" y="-20"/>
</glyph>
<glyph name="uogonek" format="2">
	<unicode hex="0173"/>
	<advance width="548"/>
	<outline>
		<contour>
			<point x="454" y="-232" type="curve" smooth="yes"/>
			<point x="486" y="-232"/>
			<point x="509" y="-222"/>
			<point x="533" y="-201" type="curve"/>
			<point x="529" y="-192" type="line"/>
			<point x="505" y="-203"/>
			<point x="488" y="-206"/>
			<point x="465" y="-206" type="curve" smooth="yes"/>
			<point x="426" y="-206"/>
			<point x="403" y="-177"/>
			<point x="403" y="-131" type="curve" smooth="yes"/>
			<point x="403" y="-77"/>
			<point x="432" y="-29"/>
			<point x="467" y="0" type="curve"/>
			<point x="454" y="8" type="line"/>
			<point x="454" y="0" type="line"/>
			<point x="410" y="-31"/>
			<point x="371" y="-84"/>
			<point x="371" y="-143" type="curve" smooth="yes"/>
			<point x="371" y="-196"/>
			<point x="406" y="-232"/>
		</contour>
		<component base="u"/>
	</outline>
	<anchor name="aboveLC" x="271" y="469"/>
</glyph>
<glyph name="Uhorn" format="2">
	<unicode hex="01AF"/>
	<advance width="681"/>
	<outline>
		<contour>
			<point x="342" y="-13" type="curve" smooth="yes"/>
			<point x="479" y="-13"/>
			<point x="553" y="67"/>
			<point x="553" y="243" type="curve" smooth="yes"/>
			<point x="553" y="674" type="line"/>
			<point x="533" y="674" type="line"/>
			<point x="533" y="255" type="line" smooth="yes"/>
			<point x="533" y="81"/>
			<point x="471" y="16"/>
			<point x="346" y="16" type="curve" smooth="yes"/>
			<point x="243" y="16"/>
			<point x="172" y="76"/>
			<point x="172" y="239" type="curve" smooth="yes"/>
			<point x="172" y="333" type="line" smooth="yes"/>
			<point x="172" y="482"/>
			<point x="172" y="580"/>
			<point x="175" y="674" type="curve"/>
			<point x="127" y="674" type="line"/>
			<point x="130" y="580"/>
			<point x="130" y="482"/>
			<point x="130" y="333" type="curve" smooth="yes"/>
			<point x="130" y="232" type="line" smooth="yes"/>
			<point x="130" y="56"/>
			<point x="216" y="-13"/>
		</contour>
		<contour>
			<point x="550" y="654" type="line"/>
			<point x="608" y="656"/>
			<point x="651" y="673"/>
			<point x="651" y="730" type="curve" smooth="yes"/>
			<point x="651" y="752"/>
			<point x="644" y="775"/>
			<point x="637" y="788" type="curve"/>
			<point x="633" y="792"/>
			<point x="627" y="794"/>
			<point x="620" y="794" type="curve" smooth="yes"/>
			<point x="609" y="794"/>
			<point x="600" y="785"/>
			<point x="600" y="772" type="curve" smooth="yes"/>
			<point x="600" y="752"/>
			<point x="625" y="732"/>
			<point x="625" y="708" type="curve" smooth="yes"/>
			<point x="625" y="688"/>
			<point x="606" y="674"/>
			<point x="550" y="674" type="curve"/>
		</contour>
		<contour>
			<point x="47" y="662" type="line"/>
			<point x="141" y="653" type="line"/>
			<point x="161" y="653" type="line"/>
			<point x="262" y="662" type="line"/>
			<point x="262" y="674" type="line"/>
			<point x="47" y="674" type="line"/>
		</contour>
		<contour>
			<point x="443" y="662" type="line"/>
			<point x="540" y="654" type="line"/>
			<point x="549" y="654" type="line"/>
			<point x="549" y="674" type="line"/>
			<point x="443" y="674" type="line"/>
		</contour>
	</outline>
	<anchor name="aboveUC" x="352" y="694"/>
	<anchor name="belowLC" x="343" y="-20"/>
</glyph>
<glyph name="uhorn" format="2">
	<unicode hex="01B0"/>
	<advance width="548"/>
	<outline>
		<contour>
			<point x="231" y="-12" type="curve" smooth="yes"/>
			<point x="294" y="-12"/>
			<point x="347" y="22"/>
			<point x="405" y="96" type="curve"/>
			<point x="410" y="96" type="line"/>
			<point x="403" y="108" type="line"/>
			<point x="337" y="32"/>
			<point x="288" y="16"/>
			<point x="246" y="16" type="curve" smooth="yes"/>
			<point x="185" y="16"/>
			<point x="147" y="49"/>
			<point x="147" y="146" type="curve" smooth="yes"/>
			<point x="147" y="336" type="line"/>
			<point x="150" y="450" type="line"/>
			<point x="143" y="456" type="line"/>
			<point x="32" y="440" type="line"/>
			<point x="32" y="428" type="line"/>
			<point x="120" y="421" type="line"/>
			<point x="108" y="436" type="line"/>
			<point x="108" y="139" type="line" smooth="yes"/>
			<point x="108" y="29"/>
			<point x="157" y="-12"/>
		</contour>
		<contour>
			<point x="396" y="-6" type="line"/>
			<point x="512" y="0" type="line"/>
			<point x="512" y="12" type="line"/>
			<point x="436" y="19" type="line"/>
			<point x="436" y="336" type="line"/>
			<point x="439" y="450" type="line"/>
			<point x="423" y="439" type="line"/>
			<point x="492" y="449"/>
			<point x="522" y="497"/>
			<point x="522" y="546" type="curve" smooth="yes"/>
			<point x="522" y="579"/>
			<point x="513" y="600"/>
			<point x="505" y="614" type="curve"/>
			<point x="500" y="618"/>
			<point x="496" y="620"/>
			<point x="489" y="620" type="curve" smooth="yes"/>
			<point x="478" y="620"/>
			<point x="468" y="611"/>
			<point x="468" y="597" type="curve" smooth="yes"/>
			<point x="468" y="576"/>
			<point x="491" y="560"/>
			<point x="491" y="524" type="curve" smooth="yes"/>
			<point x="491" y="486"/>
			<point x="472" y="461"/>
			<point x="425" y="455" type="curve" smooth="yes"/>
			<point x="317" y="440" type="line"/>
			<point x="317" y="428" type="line"/>
			<point x="396" y="423" type="line"/>
			<point x="396" y="93" type="line"/>
			<point x="396" y="91" type="line"/>
		</contour>
	</outline>
	<anchor name="aboveLC" x="271" y="469"/>
	<anchor name="belowLC" x="279" y="-20"/>
</glyph>
<glyph name="gscript" format="2">
	<unicode hex="0261"/>
	<advance width="500"/>
	<outline>
		<contour>
			<point x="216" y="-262" type="curve" smooth="yes"/>
			<point x="271" y="-262"/>
			<point x="320" y="-246"/>
			<point x="358" y="-207" type="curve" smooth="yes"/>
			<point x="391" y="-173"/>
			<point x="413" y="-122"/>
			<point x="413" y="-49" type="curve"/>
			<point x="413" y="257" type="line"/>
			<point x="416" y="450" type="line"/>
			<point x="407" y="453" type="line"/>
			<point x="373" y="376" type="line"/>
			<point x="373" y="373" type="line"/>
			<point x="373" y="87" type="line"/>
			<point x="373" y="83" type="line"/>
			<point x="373" y="37"/>
			<point x="373" y="-9"/>
			<point x="373" y="-55" type="curve" smooth="yes"/>
			<point x="373" y="-116"/>
			<point x="361" y="-160"/>
			<point x="335" y="-192" type="curve" smooth="yes"/>
			<point x="306" y="-230"/>
			<point x="266" y="-246"/>
			<point x="215" y="-246" type="curve" smooth="yes"/>
			<point x="173" y="-246"/>
			<point x="134" y="-235"/>
			<point x="104" y="-208" type="curve"/>
			<point x="125" y="-231" type="line"/>
			<point x="108" y="-154" type="line" smooth="yes"/>
			<point x="103" y="-137"/>
			<point x="93" y="-128"/>
			<point x="78" y="-128" type="curve" smooth="yes"/>
			<point x="63" y="-128"/>
			<point x="55" y="-136"/>
			<point x="53" y="-152" type="curve"/>
			<point x="67" y="-221"/>
			<point x="140" y="-262"/>
		</contour>
		<contour>
			<point x="224" y="-12" type="curve" smooth="yes"/>
			<point x="285" y="-12"/>
			<point x="338" y="20"/>
			<point x="378" y="82" type="curve"/>
			<point x="388" y="82" type="line"/>
			<point x="380" y="102" type="line"/>
			<point x="336" y="41"/>
			<point x="291" y="10"/>
			<point x="235" y="10" type="curve" smooth="yes"/>
			<point x="151" y="10"/>
			<point x="89" y="80"/>
			<point x="89" y="217" type="curve" smooth="yes"/>
			<point x="89" y="371"/>
			<point x="165" y="439"/>
			<point x="244" y="439" type="curve" smooth="yes"/>
			<point x="300" y="439"/>
			<point x="336" y="416"/>
			<point x="382" y="356" type="curve"/>
			<point x="389" y="375" type="line"/>
			<point x="379" y="375" type="line"/>
			<point x="342" y="438"/>
			<point x="290" y="461"/>
			<point x="239" y="461" type="curve" smooth="yes"/>
			<point x="140" y="461"/>
			<point x="47" y="379"/>
			<point x="47" y="215" type="curve" smooth="yes"/>
			<point x="47" y="65"/>
			<point x="128" y="-12"/>
		</contour>
	</outline>
	<anchor name="aboveLC" x="249" y="469"/>
	<anchor name="belowLC" x="233" y="-282"/>
</glyph>
<glyph name="s.sups" format="2">
	<unicode hex="02E2"/>
	<advance width="264"/>
	<outline>
		<contour>
			<point x="126" y="421" type="curve" smooth="yes"/>
			<point x="198" y="421"/>
			<point x="233" y="455"/>
			<point x="233" y="502" type="curve" smooth="yes"/>
			<point x="233" y="548"/>
			<point x="200" y="566"/>
			<point x="154" y="583" type="curve" smooth="yes"/>
			<point x="134" y="590" type="line" smooth="yes"/>
			<point x="97" y="604"/>
			<point x="69" y="620"/>
			<point x="69" y="652" type="curve" smooth="yes"/>
			<point x="69" y="683"/>
			<point x="92" y="708"/>
			<point x="137" y="708" type="curve" smooth="yes"/>
			<point x="164" y="708"/>
			<point x="182" y="703"/>
			<point x="200" y="693" type="curve"/>
			<point x="200" y="700" type="line"/>
			<point x="192" y="702" type="line"/>
			<point x="210" y="627" type="line"/>
			<point x="219" y="627" type="line"/>
			<point x="221" y="697" type="line"/>
			<point x="196" y="711"/>
			<point x="172" y="718"/>
			<point x="137" y="718" type="curve" smooth="yes"/>
			<point x="75" y="718"/>
			<point x="41" y="685"/>
			<point x="41" y="640" type="curve" smooth="yes"/>
			<point x="41" y="595"/>
			<point x="76" y="577"/>
			<point x="117" y="562" type="curve" smooth="yes"/>
			<point x="137" y="555" type="line" smooth="yes"/>
			<point x="180" y="540"/>
			<point x="203" y="523"/>
			<point x="203" y="491" type="curve" smooth="yes"/>
			<point x="203" y="456"/>
			<point x="178" y="431"/>
			<point x="126" y="431" type="curve" smooth="yes"/>
			<point x="99" y="431"/>
			<point x="80" y="435"/>
			<point x="59" y="445" type="curve"/>
			<point x="59" y="440" type="line"/>
			<point x="66" y="440" type="line"/>
			<point x="49" y="519" type="line"/>
			<point x="40" y="519" type="line"/>
			<point x="36" y="442" type="line"/>
			<point x="66" y="427"/>
			<point x="90" y="421"/>
		</contour>
	</outline>
</glyph>
<glyph name="x.sups" format="2">
	<unicode hex="02E3"/>
	<advance width="310"/>
	<outline>
		<contour>
			<point x="6" y="429" type="line"/>
			<point x="105" y="429" type="line"/>
			<point x="105" y="437" type="line"/>
			<point x="58" y="442" type="line"/>
			<point x="52" y="442" type="line"/>
			<point x="6" y="437" type="line"/>
		</contour>
		<contour>
			<point x="10" y="702" type="line"/>
			<point x="63" y="696" type="line"/>
			<point x="76" y="696" type="line"/>
			<point x="134" y="702" type="line"/>
			<point x="134" y="710" type="line"/>
			<point x="10" y="710" type="line"/>
		</contour>
		<contour>
			<point x="232" y="429" type="line"/>
			<point x="276" y="429" type="line"/>
			<point x="169" y="580" type="line"/>
			<point x="80" y="710" type="line"/>
			<point x="36" y="710" type="line"/>
			<point x="140" y="563" type="line"/>
		</contour>
		<contour>
			<point x="179" y="429" type="line"/>
			<point x="304" y="429" type="line"/>
			<point x="304" y="437" type="line"/>
			<point x="249" y="443" type="line"/>
			<point x="235" y="443" type="line"/>
			<point x="179" y="437" type="line"/>
		</contour>
		<contour>
			<point x="200" y="702" type="line"/>
			<point x="247" y="697" type="line"/>
			<point x="254" y="697" type="line"/>
			<point x="297" y="702" type="line"/>
			<point x="297" y="710" type="line"/>
			<point x="200" y="710" type="line"/>
		</contour>
		<contour>
			<point x="37" y="429" type="line"/>
			<point x="54" y="429" type="line"/>
			<point x="150" y="562" type="line"/>
			<point x="155" y="562" type="line"/>
			<point x="147" y="577" type="line"/>
		</contour>
		<contour>
			<point x="158" y="562" type="line"/>
			<point x="269" y="710" type="line"/>
			<point x="252" y="710" type="line"/>
			<point x="156" y="578" type="line"/>
			<point x="151" y="578" type="line"/>
		</contour>
	</outline>
</glyph>
<glyph name="tildecmb" format="2">
	<unicode hex="0303"/>
	<outline>
		<contour>
			<point x="-137" y="573" type="curve"/>
			<point x="-125" y="570" type="line"/>
			<point x="-113" y="618"/>
			<point x="-96" y="644"/>
			<point x="-65" y="644" type="curve" smooth="yes"/>
			<point x="-40" y="644"/>
			<point x="-23" y="621"/>
			<point x="-3" y="600" type="curve" smooth="yes"/>
			<point x="17" y="580"/>
			<point x="34" y="566"/>
			<point x="63" y="566" type="curve" smooth="yes"/>
			<point x="106" y="566"/>
			<point x="128" y="605"/>
			<point x="137" y="663" type="curve"/>
			<point x="125" y="665" type="line"/>
			<point x="113" y="618"/>
			<point x="96" y="592"/>
			<point x="65" y="592" type="curve" smooth="yes"/>
			<point x="40" y="592"/>
			<point x="24" y="614"/>
			<point x="3" y="636" type="curve" smooth="yes"/>
			<point x="-17" y="656"/>
			<point x="-34" y="670"/>
			<point x="-63" y="670" type="curve" smooth="yes"/>
			<point x="-106" y="670"/>
			<point x="-128" y="631"/>
		</contour>
	</outline>
	<anchor name="_aboveLC" x="0" y="469"/>
	<anchor name="aboveLC" x="0" y="670"/>
</glyph>
<glyph name="brevecmb" format="2">
	<unicode hex="0306"/>
	<outline>
		<contour>
			<point x="-138" y="669" type="line"/>
			<point x="-125" y="594"/>
			<point x="-75" y="537"/>
			<point x="0" y="537" type="curve" smooth="yes"/>
			<point x="75" y="537"/>
			<point x="125" y="595"/>
			<point x="138" y="670" type="curve"/>
			<point x="124" y="673" type="line"/>
			<point x="104" y="612"/>
			<point x="67" y="570"/>
			<point x="0" y="570" type="curve" smooth="yes"/>
			<point x="-67" y="570"/>
			<point x="-104" y="612"/>
			<point x="-124" y="673" type="curve"/>
		</contour>
	</outline>
	<anchor name="_aboveLC" x="0" y="469"/>
	<anchor name="aboveLC" x="-4" y="673"/>
</glyph>
<glyph name="dieresiscmb" format="2">
	<unicode hex="0308"/>
	<outline>
		<contour>
			<point x="-84" y="602" type="curve" smooth="yes"/>
			<point x="-65" y="602"/>
			<point x="-50" y="615"/>
			<point x="-50" y="636" type="curve" smooth="yes"/>
			<point x="-50" y="658"/>
			<point x="-65" y="670"/>
			<point x="-84" y="670" type="curve" smooth="yes"/>
			<point x="-102" y="670"/>
			<point x="-118" y="658"/>
			<point x="-118" y="636" type="curve" smooth="yes"/>
			<point x="-118" y="615"/>
			<point x="-102" y="602"/>
		</contour>
		<contour>
			<point x="84" y="602" type="curve" smooth="yes"/>
			<point x="102" y="602"/>
			<point x="118" y="615"/>
			<point x="118" y="636" type="curve" smooth="yes"/>
			<point x="118" y="658"/>
			<point x="102" y="670"/>
			<point x="84" y="670" type="curve" smooth="yes"/>
			<point x="65" y="670"/>
			<point x="50" y="658"/>
			<point x="50" y="636" type="curve" smooth="yes"/>
			<point x="50" y="615"/>
			<point x="65" y="602"/>
		</contour>
	</outline>
	<anchor name="_aboveLC" x="0" y="469"/>
	<anchor name="aboveLC" x="0" y="670"/>
</glyph>
<glyph name="horncmb" format="2">
	<unicode hex="031B"/>
	<outline>
		<contour>
			<point x="0" y="449" type="line"/>
			<point x="67" y="460"/>
			<point x="98" y="517"/>
			<point x="98" y="575" type="curve" smooth="yes"/>
			<point x="98" y="612"/>
			<point x="90" y="636"/>
			<point x="81" y="650" type="curve"/>
			<point x="76" y="654"/>
			<point x="72" y="656"/>
			<point x="65" y="656" type="curve" smooth="yes"/>
			<point x="54" y="656"/>
			<point x="44" y="647"/>
			<point x="44" y="633" type="curve" smooth="yes"/>
			<point x="44" y="611"/>
			<point x="67" y="591"/>
			<point x="67" y="549" type="curve" smooth="yes"/>
			<point x="67" y="502"/>
			<point x="46" y="473"/>
			<point x="0" y="464" type="curve"/>
		</contour>
	</outline>
	<anchor name="_hornLC" x="0" y="449"/>
</glyph>
<glyph name="commabelowcmb" format="2">
	<unicode hex="0326"/>
	<outline>
		<contour>
			<point x="35" y="-113" type="curve" smooth="yes"/>
			<point x="35" y="-104"/>
			<point x="33" y="-89"/>
			<point x="29" y="-80" type="curve"/>
			<point x="22" y="-74"/>
			<point x="11" y="-70"/>
			<point x="0" y="-70" type="curve" smooth="yes"/>
			<point x="-18" y="-70"/>
			<point x="-33" y="-82"/>
			<point x="-33" y="-103" type="curve" smooth="yes"/>
			<point x="-33" y="-123"/>
			<point x="-17" y="-140"/>
			<point x="9" y="-148" type="curve"/>
			<point x="9" y="-141" type="line"/>
			<point x="-6" y="-172"/>
			<point x="-23" y="-191"/>
			<point x="-52" y="-207" type="curve"/>
			<point x="-44" y="-222" type="line"/>
			<point x="-1" y="-201"/>
			<point x="35" y="-162"/>
		</contour>
	</outline>
	<anchor name="_belowLC" x="0" y="-20"/>
	<anchor name="belowLC" x="0" y="-222"/>
</glyph>
<glyph name="ogonekcmb" format="2">
	<unicode hex="0328"/>
	<outline>
		<contour>
			<point x="-8" y="-232" type="curve" smooth="yes"/>
			<point x="24" y="-232"/>
			<point x="47" y="-222"/>
			<point x="71" y="-201" type="curve"/>
			<point x="67" y="-192" type="line"/>
			<point x="43" y="-203"/>
			<point x="26" y="-206"/>
			<point x="4" y="-206" type="curve" smooth="yes"/>
			<point x="-39" y="-206"/>
			<point x="-64" y="-177"/>
			<point x="-64" y="-132" type="curve" smooth="yes"/>
			<point x="-64" y="-77"/>
			<point x="-26" y="-33"/>
			<point x="13" y="0" type="curve"/>
			<point x="-1" y="8" type="line"/>
			<point x="-1" y="0" type="line"/>
			<point x="-48" y="-35"/>
			<point x="-96" y="-84"/>
			<point x="-96" y="-143" type="curve" smooth="yes"/>
			<point x="-96" y="-196"/>
			<point x="-60" y="-232"/>
		</contour>
	</outline>
	<anchor name="_ogonek" x="0" y="0"/>
</glyph>
<glyph name="Delta" format="2">
	<unicode hex="0394"/>
	<unicode hex="2206"/>
	<advance width="528"/>
	<outline>
		<contour>
			<point x="21" y="0" type="line"/>
			<point x="37" y="0" type="line"/>
			<point x="256" y="627" type="line"/>
			<point x="246" y="627" type="line"/>
			<point x="468" y="0" type="line"/>
			<point x="506" y="0" type="line"/>
			<point x="506" y="14" type="line"/>
			<point x="270" y="682" type="line"/>
			<point x="256" y="682" type="line"/>
			<point x="21" y="14" type="line"/>
		</contour>
		<contour>
			<point x="32" y="0" type="line"/>
			<point x="484" y="0" type="line"/>
			<point x="484" y="37" type="line"/>
			<point x="37" y="37" type="line"/>
		</contour>
	</outline>
</glyph>
<glyph name="Sigma" format="2">
	<unicode hex="03A3"/>
	<advance width="533"/>
	<outline>
		<contour>
			<point x="476" y="504" type="line"/>
			<point x="488" y="504" type="line"/>
			<point x="477" y="674" type="line"/>
			<point x="72" y="674" type="line"/>
			<point x="72" y="656" type="line"/>
			<point x="459" y="656" type="line"/>
			<point x="437" y="666" type="line"/>
		</contour>
		<contour>
			<point x="489" y="0" type="line"/>
			<point x="500" y="186" type="line"/>
			<point x="488" y="186" type="line"/>
			<point x="451" y="26" type="line"/>
			<point x="471" y="38" type="line"/>
			<point x="81" y="38" type="line"/>
			<point x="78" y="26" type="line"/>
			<point x="311" y="351" type="line"/>
			<point x="102" y="658" type="line"/>
			<point x="102" y="674" type="line"/>
			<point x="51" y="674" type="line"/>
			<point x="51" y="660" type="line"/>
			<point x="278" y="326" type="line"/>
			<point x="279" y="339" type="line"/>
			<point x="46" y="14" type="line"/>
			<point x="46" y="0" type="line"/>
		</contour>
	</outline>
</glyph>
<glyph name="alpha" format="2">
	<unicode hex="03B1"/>
	<advance width="514"/>
	<outline>
		<contour>
			<point x="223" y="-12" type="curve" smooth="yes"/>
			<point x="285" y="-12"/>
			<point x="358" y="28"/>
			<point x="380" y="133" type="curve"/>
			<point x="374" y="130" type="line"/>
			<point x="366" y="30"/>
			<point x="386" y="-12"/>
			<point x="440" y="-12" type="curve" smooth="yes"/>
			<point x="474" y="-12"/>
			<point x="498" y="12"/>
			<point x="509" y="35" type="curve"/>
			<point x="502" y="41" type="line"/>
			<point x="487" y="29"/>
			<point x="470" y="20"/>
			<point x="449" y="20" type="curve" smooth="yes"/>
			<point x="421" y="20"/>
			<point x="405" y="40"/>
			<point x="405" y="95" type="curve" smooth="yes"/>
			<point x="405" y="170"/>
			<point x="418" y="279"/>
			<point x="438" y="451" type="curve"/>
			<point x="432" y="456" type="line"/>
			<point x="394" y="444" type="line"/>
			<point x="388" y="351" type="line"/>
			<point x="375" y="181" type="line"/>
			<point x="366" y="58"/>
			<point x="291" y="10"/>
			<point x="230" y="10" type="curve" smooth="yes"/>
			<point x="135" y="10"/>
			<point x="89" y="96"/>
			<point x="89" y="218" type="curve" smooth="yes"/>
			<point x="89" y="357"/>
			<point x="149" y="439"/>
			<point x="252" y="439" type="curve" smooth="yes"/>
			<point x="323" y="439"/>
			<point x="370" y="383"/>
			<point x="399" y="315" type="curve"/>
			<point x="405" y="328" type="line"/>
			<point x="403" y="330" type="line"/>
			<point x="378" y="400"/>
			<point x="322" y="461"/>
			<point x="243" y="461" type="curve" smooth="yes"/>
			<point x="127" y="461"/>
			<point x="47" y="373"/>
			<point x="47" y="207" type="curve" smooth="yes"/>
			<point x="47" y="67"/>
			<point x="115" y="-12"/>
		</contour>
	</outline>
	<anchor name="aboveLC" x="255" y="469"/>
	<anchor name="belowLC" x="249" y="-20"/>
</glyph>
<glyph name="omicron" format="2">
	<unicode hex="03BF"/>
	<advance width="488"/>
	<outline>
		<contour>
			<point x="240" y="-12" type="curve" smooth="yes"/>
			<point x="343" y="-12"/>
			<point x="442" y="78"/>
			<point x="442" y="231" type="curve" smooth="yes"/>
			<point x="442" y="377"/>
			<point x="356" y="461"/>
			<point x="249" y="461" type="curve" smooth="yes"/>
			<point x="145" y="461"/>
			<point x="47" y="371"/>
			<point x="47" y="220" type="curve" smooth="yes"/>
			<point x="47" y="67"/>
			<point x="133" y="-12"/>
		</contour>
		<contour>
			<point x="247" y="4" type="curve" smooth="yes"/>
			<point x="158" y="4"/>
			<point x="90" y="83"/>
			<point x="90" y="239" type="curve" smooth="yes"/>
			<point x="90" y="350"/>
			<point x="143" y="446"/>
			<point x="241" y="446" type="curve" smooth="yes"/>
			<point x="331" y="446"/>
			<point x="398" y="365"/>
			<point x="398" y="209" type="curve" smooth="yes"/>
			<point x="398" y="97"/>
			<point x="344" y="4"/>
		</contour>
	</outline>
	<anchor name="aboveLC" x="247" y="469"/>
</glyph>
<glyph name="rho" format="2">
	<unicode hex="03C1"/>
	<advance width="514"/>
	<outline>
		<contour>
			<point x="77" y="-204" type="line"/>
			<point x="84" y="-209" type="line"/>
			<point x="124" y="-199" type="line"/>
			<point x="118" y="69" type="line"/>
			<point x="120" y="73" type="line"/>
			<point x="120" y="229" type="line" smooth="yes"/>
			<point x="120" y="363"/>
			<point x="176" y="446"/>
			<point x="272" y="446" type="curve" smooth="yes"/>
			<point x="359" y="446"/>
			<point x="424" y="358"/>
			<point x="424" y="231" type="curve" smooth="yes"/>
			<point x="424" y="98"/>
			<point x="365" y="11"/>
			<point x="265" y="11" type="curve" smooth="yes"/>
			<point x="207" y="11"/>
			<point x="160" y="31"/>
			<point x="110" y="90" type="curve"/>
			<point x="106" y="77" type="line"/>
			<point x="112" y="72" type="line"/>
			<point x="154" y="9"/>
			<point x="215" y="-12"/>
			<point x="270" y="-12" type="curve" smooth="yes"/>
			<point x="382" y="-12"/>
			<point x="467" y="80"/>
			<point x="467" y="231" type="curve" smooth="yes"/>
			<point x="467" y="369"/>
			<point x="391" y="461"/>
			<point x="274" y="461" type="curve" smooth="yes"/>
			<point x="158" y="461"/>
			<point x="83" y="372"/>
			<point x="81" y="213" type="curve" smooth="yes"/>
			<point x="79" y="0" type="line"/>
		</contour>
	</outline>
	<anchor name="aboveLC" x="275" y="469"/>
</glyph>
<glyph name="omega" format="2">
	<unicode hex="03C9"/>
	<advance width="680"/>
	<outline>
		<contour>
			<point x="209" y="-12" type="curve" smooth="yes"/>
			<point x="281" y="-12"/>
			<point x="341" y="40"/>
			<point x="342" y="135" type="curve"/>
			<point x="338" y="135" type="line"/>
			<point x="339" y="40"/>
			<point x="399" y="-12"/>
			<point x="469" y="-12" type="curve" smooth="yes"/>
			<point x="557" y="-12"/>
			<point x="630" y="57"/>
			<point x="630" y="196" type="curve" smooth="yes"/>
			<point x="630" y="322"/>
			<point x="566" y="413"/>
			<point x="474" y="461" type="curve"/>
			<point x="466" y="452" type="line"/>
			<point x="547" y="402"/>
			<point x="588" y="316"/>
			<point x="588" y="196" type="curve" smooth="yes"/>
			<point x="588" y="77"/>
			<point x="536" y="12"/>
			<point x="470" y="12" type="curve" smooth="yes"/>
			<point x="407" y="12"/>
			<point x="358" y="57"/>
			<point x="358" y="144" type="curve" smooth="yes"/>
			<point x="358" y="172"/>
			<point x="358" y="231"/>
			<point x="362" y="301" type="curve"/>
			<point x="355" y="307" type="line"/>
			<point x="318" y="295" type="line"/>
			<point x="321" y="225"/>
			<point x="322" y="172"/>
			<point x="322" y="144" type="curve" smooth="yes"/>
			<point x="322" y="57"/>
			<point x="273" y="12"/>
			<point x="210" y="12" type="curve" smooth="yes"/>
			<point x="144" y="12"/>
			<point x="92" y="77"/>
			<point x="92" y="196" type="curve" smooth="yes"/>
			<point x="92" y="316"/>
			<point x="133" y="402"/>
			<point x="214" y="452" type="curve"/>
			<point x="206" y="461" type="line"/>
			<point x="114" y="413"/>
			<point x="50" y="322"/>
			<point x="50" y="196" type="curve" smooth="yes"/>
			<point x="50" y="57"/>
			<point x="123" y="-12"/>
		</contour>
	</outline>
	<anchor name="aboveLC" x="341" y="469"/>
	<anchor name="belowLC" x="340" y="-20"/>
</glyph>
<glyph name="Ucyr" format="2">
	<unicode hex="0423"/>
	<advance width="608"/>
	<outline>
		<contour>
			<point x="109" y="-12" type="curve"/>
			<point x="111" y="-35"/>
			<point x="132" y="-51"/>
			<point x="165" y="-51" type="curve" smooth="yes"/>
			<point x="226" y="-51"/>
			<point x="273" y="3"/>
			<point x="319" y="123" type="curve" smooth="yes"/>
			<point x="530" y="674" type="line"/>
			<point x="508" y="674" type="line"/>
			<point x="415" y="431" type="line"/>
			<point x="304" y="139" type="line"/>
			<point x="302" y="132" type="line" smooth="yes"/>
			<point x="264" y="30"/>
			<point x="231" y="-13"/>
			<point x="184" y="-27" type="curve"/>
			<point x="184" y="-33" type="line"/>
			<point x="212" y="-24" type="line"/>
			<point x="187" y="8"/>
			<point x="172" y="18"/>
			<point x="150" y="18" type="curve" smooth="yes"/>
			<point x="129" y="18"/>
			<point x="113" y="8"/>
		</contour>
		<contour>
			<point x="9" y="662" type="line"/>
			<point x="97" y="653" type="line"/>
			<point x="120" y="653" type="line"/>
			<point x="223" y="662" type="line"/>
			<point x="223" y="674" type="line"/>
			<point x="9" y="674" type="line"/>
		</contour>
		<contour>
			<point x="410" y="662" type="line"/>
			<point x="506" y="654" type="line"/>
			<point x="518" y="654" type="line"/>
			<point x="599" y="662" type="line"/>
			<point x="599" y="674" type="line"/>
			<point x="410" y="674" type="line"/>
		</contour>
		<contour>
			<point x="299" y="99" type="line"/>
			<point x="319" y="157" type="line"/>
			<point x="125" y="674" type="line"/>
			<point x="79" y="674" type="line"/>
		</contour>
	</outline>
	<anchor name="aboveUC" x="315" y="694"/>
</glyph>
<glyph name="zhe" format="2">
	<unicode hex="0436"/>
	<advance width="684"/>
	<outline>
		<contour>
			<point x="12" y="0" type="line"/>
			<point x="29" y="-3"/>
			<point x="50" y="-5"/>
			<point x="65" y="-5" type="curve" smooth="yes"/>
			<point x="107" y="-5"/>
			<point x="121" y="2"/>
			<point x="133" y="33" type="curve" smooth="yes"/>
			<point x="181" y="147" type="line" smooth="yes"/>
			<point x="206" y="204"/>
			<point x="228" y="224"/>
			<point x="288" y="224" type="curve" smooth="yes"/>
			<point x="336" y="224" type="line"/>
			<point x="336" y="241" type="line"/>
			<point x="282" y="241" type="line" smooth="yes"/>
			<point x="232" y="241"/>
			<point x="204" y="261"/>
			<point x="163" y="365" type="curve" smooth="yes"/>
			<point x="137" y="433"/>
			<point x="123" y="453"/>
			<point x="71" y="456" type="curve"/>
			<point x="52" y="451"/>
			<point x="42" y="441"/>
			<point x="42" y="426" type="curve" smooth="yes"/>
			<point x="42" y="408"/>
			<point x="57" y="397"/>
			<point x="76" y="397" type="curve" smooth="yes"/>
			<point x="96" y="397"/>
			<point x="118" y="405"/>
			<point x="128" y="410" type="curve"/>
			<point x="115" y="418" type="line"/>
			<point x="128" y="402"/>
			<point x="136" y="383"/>
			<point x="146" y="359" type="curve" smooth="yes"/>
			<point x="183" y="264"/>
			<point x="208" y="236"/>
			<point x="265" y="227" type="curve"/>
			<point x="270" y="237" type="line"/>
			<point x="196" y="232"/>
			<point x="166" y="204"/>
			<point x="133" y="132" type="curve" smooth="yes"/>
			<point x="75" y="5" type="line"/>
			<point x="105" y="21" type="line"/>
			<point x="12" y="12" type="line"/>
		</contour>
		<contour>
			<point x="672" y="0" type="curve"/>
			<point x="672" y="12" type="line"/>
			<point x="580" y="21" type="line"/>
			<point x="609" y="5" type="line"/>
			<point x="552" y="132" type="line" smooth="yes"/>
			<point x="519" y="204"/>
			<point x="488" y="232"/>
			<point x="414" y="237" type="curve"/>
			<point x="419" y="227" type="line"/>
			<point x="476" y="236"/>
			<point x="502" y="264"/>
			<point x="539" y="359" type="curve" smooth="yes"/>
			<point x="548" y="383"/>
			<point x="557" y="402"/>
			<point x="569" y="418" type="curve"/>
			<point x="557" y="410" type="line"/>
			<point x="566" y="405"/>
			<point x="588" y="397"/>
			<point x="609" y="397" type="curve" smooth="yes"/>
			<point x="627" y="397"/>
			<point x="642" y="408"/>
			<point x="642" y="426" type="curve" smooth="yes"/>
			<point x="642" y="441"/>
			<point x="633" y="451"/>
			<point x="613" y="456" type="curve"/>
			<point x="561" y="453"/>
			<point x="548" y="433"/>
			<point x="521" y="365" type="curve" smooth="yes"/>
			<point x="481" y="261"/>
			<point x="453" y="241"/>
			<point x="403" y="241" type="curve" smooth="yes"/>
			<point x="348" y="241" type="line"/>
			<point x="348" y="224" type="line"/>
			<point x="397" y="224" type="line" smooth="yes"/>
			<point x="457" y="224"/>
			<point x="478" y="204"/>
			<point x="503" y="147" type="curve" smooth="yes"/>
			<point x="552" y="33" type="line" smooth="yes"/>
			<point x="564" y="2"/>
			<point x="578" y="-5"/>
			<point x="619" y="-5" type="curve" smooth="yes"/>
			<point x="634" y="-5"/>
			<point x="655" y="-3"/>
		</contour>
		<contour>
			<point x="320" y="0" type="curve"/>
			<point x="365" y="0" type="line"/>
			<point x="362" y="44"/>
			<point x="361" y="143"/>
			<point x="361" y="204" type="curve" smooth="yes"/>
			<point x="361" y="245" type="line" smooth="yes"/>
			<point x="361" y="306"/>
			<point x="362" y="405"/>
			<point x="365" y="449" type="curve"/>
			<point x="320" y="449" type="line"/>
			<point x="322" y="405"/>
			<point x="323" y="306"/>
			<point x="323" y="245" type="curve" smooth="yes"/>
			<point x="323" y="204" type="line" smooth="yes"/>
			<point x="323" y="143"/>
			<point x="322" y="44"/>
		</contour>
		<contour>
			<point x="250" y="0" type="line"/>
			<point x="435" y="0" type="line"/>
			<point x="435" y="12" type="line"/>
			<point x="346" y="20" type="line"/>
			<point x="339" y="20" type="line"/>
			<point x="250" y="12" type="line"/>
		</contour>
		<contour>
			<point x="250" y="437" type="line"/>
			<point x="339" y="429" type="line"/>
			<point x="346" y="429" type="line"/>
			<point x="435" y="437" type="line"/>
			<point x="435" y="449" type="line"/>
			<point x="250" y="449" type="line"/>
		</contour>
	</outline>
	<anchor name="aboveLC" x="342" y="469"/>
</glyph>
<glyph name="icyr" format="2">
	<unicode hex="0438"/>
	<advance width="572"/>
	<outline>
		<contour>
			<point x="38" y="0" type="line"/>
			<point x="236" y="0" type="line"/>
			<point x="236" y="12" type="line"/>
			<point x="142" y="20" type="line"/>
			<point x="132" y="20" type="line"/>
			<point x="38" y="12" type="line"/>
		</contour>
		<contour>
			<point x="337" y="0" type="line"/>
			<point x="534" y="0" type="line"/>
			<point x="534" y="12" type="line"/>
			<point x="443" y="20" type="line"/>
			<point x="433" y="20" type="line"/>
			<point x="337" y="12" type="line"/>
		</contour>
		<contour>
			<point x="114" y="0" type="curve"/>
			<point x="157" y="0" type="line"/>
			<point x="157" y="449" type="line"/>
			<point x="114" y="449" type="line"/>
			<point x="116" y="405"/>
			<point x="117" y="306"/>
			<point x="117" y="245" type="curve" smooth="yes"/>
			<point x="117" y="204" type="line" smooth="yes"/>
			<point x="117" y="143"/>
			<point x="116" y="44"/>
		</contour>
		<contour>
			<point x="149" y="45" type="line"/>
			<point x="427" y="371" type="line"/>
			<point x="433" y="371" type="line"/>
			<point x="426" y="397" type="line"/>
			<point x="150" y="72" type="line"/>
			<point x="139" y="72" type="line"/>
		</contour>
		<contour>
			<point x="419" y="0" type="line"/>
			<point x="461" y="0" type="line"/>
			<point x="459" y="44"/>
			<point x="458" y="143"/>
			<point x="458" y="204" type="curve" smooth="yes"/>
			<point x="458" y="245" type="line" smooth="yes"/>
			<point x="458" y="306"/>
			<point x="459" y="405"/>
			<point x="461" y="449" type="curve"/>
			<point x="419" y="449" type="line"/>
		</contour>
		<contour>
			<point x="38" y="437" type="line"/>
			<point x="132" y="429" type="line"/>
			<point x="142" y="429" type="line"/>
			<point x="236" y="437" type="line"/>
			<point x="236" y="449" type="line"/>
			<point x="38" y="449" type="line"/>
		</contour>
		<contour>
			<point x="337" y="437" type="line"/>
			<point x="433" y="429" type="line"/>
			<point x="443" y="429" type="line"/>
			<point x="534" y="437" type="line"/>
			<point x="534" y="449" type="line"/>
			<point x="337" y="449" type="line"/>
		</contour>
	</outline>
	<anchor name="aboveLC" x="286" y="469"/>
</glyph>
<glyph name="ecyr" format="2">
	<unicode hex="044D"/>
	<advance width="446"/>
	<outline>
		<contour>
			<point x="198" y="-12" type="curve" smooth="yes"/>
			<point x="309" y="-12"/>
			<point x="400" y="72"/>
			<point x="400" y="227" type="curve" smooth="yes"/>
			<point x="400" y="381"/>
			<point x="311" y="461"/>
			<point x="211" y="461" type="curve" smooth="yes"/>
			<point x="161" y="461"/>
			<point x="107" y="449"/>
			<point x="71" y="421" type="curve"/>
			<point x="77" y="313" type="line"/>
			<point x="89" y="313" type="line"/>
			<point x="110" y="430" type="line"/>
			<point x="96" y="416" type="line"/>
			<point x="125" y="437"/>
			<point x="163" y="445"/>
			<point x="206" y="445" type="curve" smooth="yes"/>
			<point x="299" y="445"/>
			<point x="357" y="351"/>
			<point x="357" y="221" type="curve" smooth="yes"/>
			<point x="357" y="89"/>
			<point x="295" y="4"/>
			<point x="198" y="4" type="curve" smooth="yes"/>
			<point x="162" y="4"/>
			<point x="128" y="13"/>
			<point x="99" y="40" type="curve"/>
			<point x="122" y="14" type="line"/>
			<point x="101" y="89" type="line" smooth="yes"/>
			<point x="97" y="106"/>
			<point x="89" y="115"/>
			<point x="75" y="115" type="curve" smooth="yes"/>
			<point x="62" y="115"/>
			<point x="53" y="107"/>
			<point x="52" y="91" type="curve"/>
			<point x="67" y="25"/>
			<point x="126" y="-12"/>
		</contour>
		<contour>
			<point x="137" y="216" type="line"/>
			<point x="379" y="219" type="line"/>
			<point x="379" y="235" type="line"/>
			<point x="137" y="238" type="line"/>
		</contour>
	</outline>
	<anchor name="aboveLC" x="209" y="469"/>
</glyph>
<glyph name="ya" format="2">
	<unicode hex="044F"/>
	<advance width="485"/>
	<outline>
		<contour>
			<point x="257" y="449" type="line" smooth="yes"/>
			<point x="168" y="449"/>
			<point x="93" y="414"/>
			<point x="93" y="329" type="curve" smooth="yes"/>
			<point x="93" y="262"/>
			<point x="139" y="210"/>
			<point x="245" y="209" type="curve"/>
			<point x="275" y="216" type="line"/>
			<point x="201" y="211"/>
			<point x="173" y="188"/>
			<point x="138" y="116" type="curve" smooth="yes"/>
			<point x="83" y="5" type="line"/>
			<point x="113" y="21" type="line"/>
			<point x="21" y="12" type="line"/>
			<point x="21" y="0" type="line"/>
			<point x="39" y="-3"/>
			<point x="58" y="-5"/>
			<point x="73" y="-5" type="curve" smooth="yes"/>
			<point x="114" y="-5"/>
			<point x="128" y="2"/>
			<point x="141" y="33" type="curve" smooth="yes"/>
			<point x="186" y="131" type="line" smooth="yes"/>
			<point x="212" y="188"/>
			<point x="232" y="204"/>
			<point x="292" y="204" type="curve" smooth="yes"/>
			<point x="344" y="204" type="line"/>
			<point x="344" y="221" type="line"/>
			<point x="272" y="221" type="line" smooth="yes"/>
			<point x="176" y="221"/>
			<point x="133" y="260"/>
			<point x="133" y="330" type="curve" smooth="yes"/>
			<point x="133" y="401"/>
			<point x="181" y="433"/>
			<point x="261" y="433" type="curve" smooth="yes"/>
			<point x="344" y="433" type="line"/>
			<point x="354" y="429" type="line"/>
			<point x="447" y="437" type="line"/>
			<point x="447" y="449" type="line"/>
		</contour>
		<contour>
			<point x="325" y="0" type="curve"/>
			<point x="371" y="0" type="line"/>
			<point x="369" y="44"/>
			<point x="368" y="143"/>
			<point x="368" y="204" type="curve" smooth="yes"/>
			<point x="368" y="245" type="line" smooth="yes"/>
			<point x="368" y="306"/>
			<point x="369" y="405"/>
			<point x="371" y="449" type="curve"/>
			<point x="325" y="449" type="line"/>
			<point x="327" y="405"/>
			<point x="328" y="306"/>
			<point x="328" y="245" type="curve" smooth="yes"/>
			<point x="328" y="204" type="line" smooth="yes"/>
			<point x="328" y="143"/>
			<point x="327" y="44"/>
		</contour>
		<contour>
			<point x="249" y="0" type="line"/>
			<point x="447" y="0" type="line"/>
			<point x="447" y="12" type="line"/>
			<point x="354" y="20" type="line"/>
			<point x="343" y="20" type="line"/>
			<point x="249" y="12" type="line"/>
		</contour>
	</outline>
	<anchor name="aboveLC" x="273" y="469"/>
</glyph>
<glyph name="dje" format="2">
	<unicode hex="0452"/>
	<advance width="505"/>
	<outline>
		<contour>
			<point x="114" y="0" type="curve"/>
			<point x="160" y="0" type="line"/>
			<point x="158" y="45"/>
			<point x="157" y="147"/>
			<point x="157" y="209" type="curve" smooth="yes"/>
			<point x="157" y="349" type="line"/>
			<point x="157" y="354" type="line"/>
			<point x="157" y="563" type="line"/>
			<point x="160" y="740" type="line"/>
			<point x="153" y="747" type="line"/>
			<point x="37" y="728" type="line"/>
			<point x="37" y="717" type="line"/>
			<point x="117" y="710" type="line"/>
			<point x="117" y="209" type="line" smooth="yes"/>
			<point x="117" y="147"/>
			<point x="116" y="45"/>
		</contour>
		<contour>
			<point x="358" y="-157" type="line"/>
			<point x="416" y="-37"/>
			<point x="453" y="114"/>
			<point x="453" y="246" type="curve" smooth="yes"/>
			<point x="453" y="357"/>
			<point x="433" y="461"/>
			<point x="333" y="461" type="curve" smooth="yes"/>
			<point x="274" y="461"/>
			<point x="209" y="428"/>
			<point x="149" y="351" type="curve"/>
			<point x="140" y="351" type="line"/>
			<point x="149" y="336" type="line"/>
			<point x="219" y="415"/>
			<point x="279" y="433"/>
			<point x="318" y="433" type="curve" smooth="yes"/>
			<point x="400" y="433"/>
			<point x="413" y="331"/>
			<point x="413" y="246" type="curve" smooth="yes"/>
			<point x="413" y="105"/>
			<point x="392" y="-33"/>
			<point x="341" y="-157" type="curve"/>
		</contour>
		<contour>
			<point x="38" y="0" type="line"/>
			<point x="232" y="0" type="line"/>
			<point x="232" y="12" type="line"/>
			<point x="141" y="20" type="line"/>
			<point x="132" y="20" type="line"/>
			<point x="38" y="12" type="line"/>
		</contour>
		<contour>
			<point x="37" y="579" type="line"/>
			<point x="344" y="579" type="line"/>
			<point x="344" y="595" type="line"/>
			<point x="37" y="595" type="line"/>
		</contour>
	</outline>
</glyph>
<glyph name="yat" format="2">
	<unicode hex="0463"/>
	<advance width="518"/>
	<outline>
		<contour>
			<point x="24" y="329" type="line"/>
			<point x="36" y="329" type="line"/>
			<point x="73" y="453" type="line"/>
			<point x="53" y="445" type="line"/>
			<point x="392" y="445" type="line"/>
			<point x="373" y="453" type="line"/>
			<point x="409" y="329" type="line"/>
			<point x="422" y="329" type="line"/>
			<point x="410" y="461" type="line"/>
			<point x="35" y="461" type="line"/>
		</contour>
		<contour>
			<point x="116" y="0" type="line"/>
			<point x="219" y="0" type="line"/>
			<point x="219" y="20" type="line"/>
			<point x="210" y="20" type="line"/>
			<point x="116" y="12" type="line"/>
		</contour>
		<contour>
			<point x="192" y="0" type="curve"/>
			<point x="238" y="0" type="line"/>
			<point x="236" y="45"/>
			<point x="235" y="147"/>
			<point x="235" y="209" type="curve" smooth="yes"/>
			<point x="235" y="252" type="line"/>
			<point x="235" y="254" type="line"/>
			<point x="235" y="453" type="line"/>
			<point x="238" y="610" type="line"/>
			<point x="231" y="616" type="line"/>
			<point x="115" y="598" type="line"/>
			<point x="115" y="586" type="line"/>
			<point x="195" y="580" type="line"/>
			<point x="195" y="209" type="line" smooth="yes"/>
			<point x="195" y="147"/>
			<point x="194" y="45"/>
		</contour>
		<contour>
			<point x="225" y="0" type="line"/>
			<point x="302" y="0" type="line" smooth="yes"/>
			<point x="429" y="0"/>
			<point x="483" y="61"/>
			<point x="483" y="141" type="curve" smooth="yes"/>
			<point x="483" y="222"/>
			<point x="428" y="270"/>
			<point x="323" y="270" type="curve" smooth="yes"/>
			<point x="291" y="270"/>
			<point x="261" y="265"/>
			<point x="228" y="258" type="curve"/>
			<point x="227" y="244" type="line"/>
			<point x="258" y="249"/>
			<point x="284" y="252"/>
			<point x="314" y="252" type="curve" smooth="yes"/>
			<point x="401" y="252"/>
			<point x="444" y="213"/>
			<point x="444" y="139" type="curve" smooth="yes"/>
			<point x="444" y="67"/>
			<point x="405" y="17"/>
			<point x="297" y="17" type="curve" smooth="yes"/>
			<point x="225" y="17" type="line"/>
		</contour>
	</outline>
	<anchor name="aboveLC" x="226" y="616"/>
</glyph>
<glyph name="Kadescender" format="2">
	<unicode hex="049A"/>
	<advance width="610"/>
	<outline>
		<contour>
			<point x="511" y="0" type="line"/>
			<point x="591" y="0" type="line"/>
			<point x="569" y="9" type="line"/>
			<point x="584" y="-169" type="line"/>
			<point x="596" y="-169" type="line"/>
			<point x="604" y="12" type="line"/>
			<point x="502" y="19" type="line"/>
		</contour>
		<component base="Ka"/>
	</outline>
</glyph>
<glyph name="kadescender" format="2">
	<unicode hex="049B"/>
	<advance width="492"/>
	<outline>
		<contour>
			<point x="470" y="0" type="line"/>
			<point x="449" y="9" type="line"/>
			<point x="464" y="-157" type="line"/>
			<point x="476" y="-157" type="line"/>
			<point x="483" y="12" type="line"/>
			<point x="390" y="20" type="line"/>
			<point x="397" y="0" type="line"/>
		</contour>
		<component base="ka"/>
	</outline>
</glyph>
<glyph name="a.sups" format="2">
	<unicode hex="1D43"/>
	<advance width="311"/>
	<outline>
		<contour>
			<point x="253" y="426" type="curve" smooth="yes"/>
			<point x="275" y="426"/>
			<point x="291" y="437"/>
			<point x="300" y="453" type="curve"/>
			<point x="294" y="458" type="line"/>
			<point x="283" y="447"/>
			<point x="275" y="444"/>
			<point x="265" y="444" type="curve" smooth="yes"/>
			<point x="250" y="444"/>
			<point x="241" y="452"/>
			<point x="241" y="475" type="curve" smooth="yes"/>
			<point x="241" y="627" type="line" smooth="yes"/>
			<point x="241" y="694"/>
			<point x="213" y="723"/>
			<point x="150" y="723" type="curve" smooth="yes"/>
			<point x="98" y="723"/>
			<point x="52" y="698"/>
			<point x="41" y="653" type="curve"/>
			<point x="43" y="642"/>
			<point x="49" y="635"/>
			<point x="60" y="635" type="curve" smooth="yes"/>
			<point x="73" y="635"/>
			<point x="81" y="642"/>
			<point x="84" y="656" type="curve" smooth="yes"/>
			<point x="96" y="704" type="line"/>
			<point x="82" y="694" type="line"/>
			<point x="101" y="704"/>
			<point x="118" y="710"/>
			<point x="140" y="710" type="curve" smooth="yes"/>
			<point x="185" y="710"/>
			<point x="205" y="688"/>
			<point x="205" y="625" type="curve" smooth="yes"/>
			<point x="205" y="474" type="line"/>
			<point x="205" y="473" type="line" smooth="yes"/>
			<point x="206" y="443"/>
			<point x="222" y="426"/>
		</contour>
		<contour>
			<point x="108" y="425" type="curve" smooth="yes"/>
			<point x="144" y="425"/>
			<point x="174" y="440"/>
			<point x="207" y="478" type="curve" smooth="yes"/>
			<point x="220" y="478" type="line"/>
			<point x="218" y="498" type="line"/>
			<point x="177" y="458"/>
			<point x="152" y="447"/>
			<point x="121" y="447" type="curve" smooth="yes"/>
			<point x="89" y="447"/>
			<point x="66" y="465"/>
			<point x="66" y="501" type="curve" smooth="yes"/>
			<point x="66" y="529"/>
			<point x="82" y="554"/>
			<point x="133" y="573" type="curve" smooth="yes"/>
			<point x="155" y="581"/>
			<point x="188" y="589"/>
			<point x="223" y="599" type="curve"/>
			<point x="223" y="607" type="line"/>
			<point x="186" y="599"/>
			<point x="152" y="591"/>
			<point x="126" y="583" type="curve" smooth="yes"/>
			<point x="54" y="561"/>
			<point x="30" y="532"/>
			<point x="30" y="494" type="curve" smooth="yes"/>
			<point x="30" y="449"/>
			<point x="62" y="425"/>
		</contour>
	</outline>
</glyph>
<glyph name="b.sups" format="2">
	<unicode hex="1D47"/>
	<advance width="361"/>
	<outline>
		<contour>
			<point x="25" y="429" type="line"/>
			<point x="111" y="425" type="line"/>
			<point x="111" y="475" type="line"/>
			<point x="111" y="476" type="line"/>
			<point x="111" y="658" type="line"/>
			<point x="111" y="660" type="line"/>
			<point x="111" y="888" type="line"/>
			<point x="106" y="893" type="line"/>
			<point x="24" y="878" type="line"/>
			<point x="24" y="870" type="line"/>
			<point x="76" y="865" type="line"/>
			<point x="76" y="442" type="line"/>
			<point x="25" y="437" type="line"/>
		</contour>
		<contour>
			<point x="206" y="421" type="curve" smooth="yes"/>
			<point x="273" y="421"/>
			<point x="331" y="474"/>
			<point x="331" y="576" type="curve" smooth="yes"/>
			<point x="331" y="669"/>
			<point x="276" y="718"/>
			<point x="211" y="718" type="curve" smooth="yes"/>
			<point x="168" y="718"/>
			<point x="133" y="696"/>
			<point x="107" y="658" type="curve"/>
			<point x="101" y="658" type="line"/>
			<point x="106" y="645" type="line"/>
			<point x="133" y="681"/>
			<point x="163" y="700"/>
			<point x="198" y="700" type="curve" smooth="yes"/>
			<point x="252" y="700"/>
			<point x="293" y="658"/>
			<point x="293" y="574" type="curve" smooth="yes"/>
			<point x="293" y="481"/>
			<point x="249" y="440"/>
			<point x="199" y="440" type="curve" smooth="yes"/>
			<point x="162" y="440"/>
			<point x="137" y="453"/>
			<point x="104" y="489" type="curve"/>
			<point x="99" y="477" type="line"/>
			<point x="106" y="477" type="line"/>
			<point x="134" y="436"/>
			<point x="171" y="421"/>
		</contour>
	</outline>
</glyph>
<glyph name="d.sups" format="2">
	<unicode hex="1D48"/>
	<advance width="355"/>
	<outline>
		<contour>
			<point x="151" y="425" type="curve" smooth="yes"/>
			<point x="192" y="425"/>
			<point x="227" y="447"/>
			<point x="253" y="485" type="curve"/>
			<point x="260" y="485" type="line"/>
			<point x="255" y="498" type="line"/>
			<point x="228" y="462"/>
			<point x="198" y="443"/>
			<point x="162" y="443" type="curve" smooth="yes"/>
			<point x="108" y="443"/>
			<point x="69" y="485"/>
			<point x="69" y="570" type="curve" smooth="yes"/>
			<point x="69" y="662"/>
			<point x="116" y="704"/>
			<point x="167" y="704" type="curve" smooth="yes"/>
			<point x="203" y="704"/>
			<point x="226" y="690"/>
			<point x="256" y="655" type="curve"/>
			<point x="261" y="666" type="line"/>
			<point x="254" y="666" type="line"/>
			<point x="230" y="708"/>
			<point x="195" y="723"/>
			<point x="160" y="723" type="curve" smooth="yes"/>
			<point x="92" y="723"/>
			<point x="31" y="669"/>
			<point x="31" y="567" type="curve" smooth="yes"/>
			<point x="31" y="474"/>
			<point x="84" y="425"/>
		</contour>
		<contour>
			<point x="249" y="429" type="line"/>
			<point x="332" y="433" type="line"/>
			<point x="332" y="442" type="line"/>
			<point x="284" y="446" type="line"/>
			<point x="284" y="892" type="line"/>
			<point x="279" y="897" type="line"/>
			<point x="197" y="882" type="line"/>
			<point x="197" y="874" type="line"/>
			<point x="249" y="869" type="line"/>
			<point x="249" y="671" type="line"/>
			<point x="249" y="667" type="line"/>
			<point x="249" y="484" type="line"/>
			<point x="249" y="483" type="line"/>
		</contour>
	</outline>
</glyph>
<glyph name="e.sups" format="2">
	<unicode hex="1D49"/>
	<advance width="304"/>
	<outline>
		<contour>
			<point x="166" y="421" type="curve" smooth="yes"/>
			<point x="208" y="421"/>
			<point x="249" y="440"/>
			<point x="273" y="480" type="curve"/>
			<point x="265" y="485" type="line"/>
			<point x="242" y="460"/>
			<point x="213" y="445"/>
			<point x="175" y="445" type="curve" smooth="yes"/>
			<point x="109" y="445"/>
			<point x="68" y="493"/>
			<point x="68" y="576" type="curve" smooth="yes"/>
			<point x="68" y="658"/>
			<point x="110" y="707"/>
			<point x="164" y="707" type="curve" smooth="yes"/>
			<point x="214" y="707"/>
			<point x="240" y="667"/>
			<point x="240" y="618" type="curve" smooth="yes"/>
			<point x="240" y="597"/>
			<point x="234" y="591"/>
			<point x="214" y="591" type="curve" smooth="yes"/>
			<point x="47" y="591" type="line"/>
			<point x="47" y="579" type="line"/>
			<point x="270" y="579" type="line"/>
			<point x="273" y="589"/>
			<point x="274" y="598"/>
			<point x="274" y="609" type="curve" smooth="yes"/>
			<point x="274" y="672"/>
			<point x="234" y="718"/>
			<point x="166" y="718" type="curve" smooth="yes"/>
			<point x="93" y="718"/>
			<point x="31" y="657"/>
			<point x="31" y="567" type="curve" smooth="yes"/>
			<point x="31" y="473"/>
			<point x="88" y="421"/>
		</contour>
	</outline>
</glyph>
<glyph name="k.sups" format="2">
	<unicode hex="1D4F"/>
	<advance width="338"/>
	<outline>
		<contour>
			<point x="76" y="429" type="line"/>
			<point x="111" y="429" type="line"/>
			<point x="111" y="888" type="line"/>
			<point x="106" y="893" type="line"/>
			<point x="24" y="878" type="line"/>
			<point x="24" y="870" type="line"/>
			<point x="76" y="865" type="line"/>
		</contour>
		<contour>
			<point x="25" y="429" type="line"/>
			<point x="160" y="429" type="line"/>
			<point x="160" y="437" type="line"/>
			<point x="99" y="443" type="line"/>
			<point x="87" y="443" type="line"/>
			<point x="25" y="437" type="line"/>
		</contour>
		<contour>
			<point x="257" y="429" type="line"/>
			<point x="333" y="429" type="line"/>
			<point x="333" y="437" type="line"/>
			<point x="290" y="441" type="line"/>
			<point x="180" y="615" type="line"/>
			<point x="155" y="592" type="line"/>
		</contour>
		<contour>
			<point x="188" y="702" type="line"/>
			<point x="254" y="696" type="line"/>
			<point x="262" y="696" type="line"/>
			<point x="322" y="702" type="line"/>
			<point x="322" y="710" type="line"/>
			<point x="188" y="710" type="line"/>
		</contour>
		<contour>
			<point x="94" y="524" type="line"/>
			<point x="281" y="710" type="line"/>
			<point x="263" y="710" type="line"/>
			<point x="98" y="543" type="line"/>
			<point x="94" y="543" type="line"/>
		</contour>
	</outline>
</glyph>
<glyph name="m.sups" format="2">
	<unicode hex="1D50"/>
	<advance width="554"/>
	<outline>
		<contour>
			<point x="76" y="429" type="line"/>
			<point x="111" y="429" type="line"/>
			<point x="111" y="650" type="line"/>
			<point x="111" y="651" type="line"/>
			<point x="111" y="711" type="line"/>
			<point x="106" y="716" type="line"/>
			<point x="23" y="699" type="line"/>
			<point x="23" y="690" type="line"/>
			<point x="76" y="685" type="line"/>
		</contour>
		<contour>
			<point x="263" y="429" type="line"/>
			<point x="299" y="429" type="line"/>
			<point x="299" y="619" type="line" smooth="yes"/>
			<point x="299" y="692"/>
			<point x="273" y="718"/>
			<point x="223" y="718" type="curve" smooth="yes"/>
			<point x="181" y="718"/>
			<point x="141" y="692"/>
			<point x="104" y="648" type="curve"/>
			<point x="100" y="648" type="line"/>
			<point x="104" y="639" type="line"/>
			<point x="146" y="681"/>
			<point x="181" y="696"/>
			<point x="208" y="696" type="curve" smooth="yes"/>
			<point x="246" y="696"/>
			<point x="263" y="677"/>
			<point x="263" y="620" type="curve" smooth="yes"/>
		</contour>
		<contour>
			<point x="451" y="429" type="line"/>
			<point x="487" y="429" type="line"/>
			<point x="487" y="619" type="line" smooth="yes"/>
			<point x="487" y="692"/>
			<point x="460" y="718"/>
			<point x="411" y="718" type="curve" smooth="yes"/>
			<point x="369" y="718"/>
			<point x="328" y="693"/>
			<point x="291" y="649" type="curve"/>
			<point x="288" y="649" type="line"/>
			<point x="292" y="639" type="line"/>
			<point x="333" y="682"/>
			<point x="368" y="696"/>
			<point x="396" y="696" type="curve" smooth="yes"/>
			<point x="433" y="696"/>
			<point x="451" y="677"/>
			<point x="451" y="620" type="curve" smooth="yes"/>
		</contour>
		<contour>
			<point x="25" y="429" type="line"/>
			<point x="160" y="429" type="line"/>
			<point x="160" y="437" type="line"/>
			<point x="99" y="443" type="line"/>
			<point x="87" y="443" type="line"/>
			<point x="25" y="437" type="line"/>
		</contour>
		<contour>
			<point x="213" y="429" type="line"/>
			<point x="347" y="429" type="line"/>
			<point x="347" y="437" type="line"/>
			<point x="286" y="443" type="line"/>
			<point x="275" y="443" type="line"/>
			<point x="213" y="437" type="line"/>
		</contour>
		<contour>
			<point x="400" y="429" type="line"/>
			<point x="534" y="429" type="line"/>
			<point x="534" y="437" type="line"/>
			<point x="474" y="443" type="line"/>
			<point x="463" y="443" type="line"/>
			<point x="400" y="437" type="line"/>
		</contour>
	</outline>
</glyph>
<glyph name="o.sups" format="2">
	<unicode hex="1D52"/>
	<advance width="333"/>
	<outline>
		<contour>
			<point x="167" y="421" type="curve" smooth="yes"/>
			<point x="237" y="421"/>
			<point x="303" y="472"/>
			<point x="303" y="572" type="curve" smooth="yes"/>
			<point x="303" y="670"/>
			<point x="238" y="718"/>
			<point x="167" y="718" type="curve" smooth="yes"/>
			<point x="96" y="718"/>
			<point x="31" y="667"/>
			<point x="31" y="568" type="curve" smooth="yes"/>
			<point x="31" y="469"/>
			<point x="95" y="421"/>
		</contour>
		<contour>
			<point x="167" y="432" type="curve" smooth="yes"/>
			<point x="111" y="432"/>
			<point x="69" y="476"/>
			<point x="69" y="568" type="curve" smooth="yes"/>
			<point x="69" y="660"/>
			<point x="111" y="707"/>
			<point x="167" y="707" type="curve" smooth="yes"/>
			<point x="222" y="707"/>
			<point x="264" y="663"/>
			<point x="264" y="572" type="curve" smooth="yes"/>
			<point x="264" y="480"/>
			<point x="222" y="432"/>
		</contour>
	</outline>
</glyph>
<glyph name="p.sups" format="2">
	<unicode hex="1D56"/>
	<advance width="361"/>
	<outline>
		<contour>
			<point x="206" y="421" type="curve" smooth="yes"/>
			<point x="274" y="421"/>
			<point x="331" y="474"/>
			<point x="331" y="576" type="curve" smooth="yes"/>
			<point x="331" y="669"/>
			<point x="277" y="718"/>
			<point x="211" y="718" type="curve" smooth="yes"/>
			<point x="169" y="718"/>
			<point x="134" y="696"/>
			<point x="109" y="658" type="curve"/>
			<point x="102" y="658" type="line"/>
			<point x="107" y="645" type="line"/>
			<point x="134" y="681"/>
			<point x="163" y="700"/>
			<point x="199" y="700" type="curve" smooth="yes"/>
			<point x="253" y="700"/>
			<point x="293" y="658"/>
			<point x="293" y="574" type="curve" smooth="yes"/>
			<point x="293" y="481"/>
			<point x="251" y="440"/>
			<point x="200" y="440" type="curve" smooth="yes"/>
			<point x="163" y="440"/>
			<point x="138" y="453"/>
			<point x="105" y="489" type="curve"/>
			<point x="100" y="477" type="line"/>
			<point x="107" y="477" type="line"/>
			<point x="135" y="436"/>
			<point x="172" y="421"/>
		</contour>
		<contour>
			<point x="77" y="266" type="line"/>
			<point x="112" y="266" type="line"/>
			<point x="112" y="476" type="line"/>
			<point x="112" y="478" type="line"/>
			<point x="112" y="658" type="line"/>
			<point x="112" y="660" type="line"/>
			<point x="112" y="711" type="line"/>
			<point x="107" y="716" type="line"/>
			<point x="24" y="699" type="line"/>
			<point x="24" y="690" type="line"/>
			<point x="77" y="685" type="line"/>
		</contour>
		<contour>
			<point x="26" y="266" type="line"/>
			<point x="171" y="266" type="line"/>
			<point x="171" y="274" type="line"/>
			<point x="99" y="281" type="line"/>
			<point x="88" y="281" type="line"/>
			<point x="26" y="274" type="line"/>
		</contour>
	</outline>
</glyph>
<glyph name="t.sups" format="2">
	<unicode hex="1D57"/>
	<advance width="204"/>
	<outline>
		<contour>
			<point x="131" y="425" type="curve" smooth="yes"/>
			<point x="160" y="425"/>
			<point x="178" y="436"/>
			<point x="192" y="455" type="curve"/>
			<point x="186" y="461" type="line"/>
			<point x="173" y="450"/>
			<point x="161" y="443"/>
			<point x="142" y="443" type="curve" smooth="yes"/>
			<point x="114" y="443"/>
			<point x="100" y="459"/>
			<point x="100" y="494" type="curve" smooth="yes"/>
			<point x="100" y="707" type="line"/>
			<point x="100" y="710" type="line"/>
			<point x="103" y="809" type="line"/>
			<point x="90" y="809" type="line"/>
			<point x="64" y="710" type="line"/>
			<point x="79" y="719" type="line"/>
			<point x="9" y="711" type="line"/>
			<point x="9" y="702" type="line"/>
			<point x="64" y="702" type="line"/>
			<point x="64" y="491" type="line" smooth="yes"/>
			<point x="64" y="447"/>
			<point x="87" y="425"/>
		</contour>
		<contour>
			<point x="84" y="702" type="line"/>
			<point x="186" y="702" type="line"/>
			<point x="186" y="715" type="line"/>
			<point x="84" y="715" type="line"/>
		</contour>
	</outline>
</glyph>
<glyph name="u.sups" format="2">
	<unicode hex="1D58"/>
	<advance width="370"/>
	<outline>
		<contour>
			<point x="152" y="421" type="curve" smooth="yes"/>
			<point x="195" y="421"/>
			<point x="233" y="444"/>
			<point x="269" y="488" type="curve"/>
			<point x="273" y="488" type="line"/>
			<point x="269" y="498" type="line"/>
			<point x="227" y="454"/>
			<point x="195" y="443"/>
			<point x="166" y="443" type="curve" smooth="yes"/>
			<point x="127" y="443"/>
			<point x="104" y="462"/>
			<point x="104" y="520" type="curve" smooth="yes"/>
			<point x="104" y="712" type="line"/>
			<point x="99" y="716" type="line"/>
			<point x="19" y="702" type="line"/>
			<point x="19" y="694" type="line"/>
			<point x="78" y="688" type="line"/>
			<point x="68" y="699" type="line"/>
			<point x="68" y="515" type="line" smooth="yes"/>
			<point x="68" y="447"/>
			<point x="102" y="421"/>
		</contour>
		<contour>
			<point x="263" y="424" type="line"/>
			<point x="348" y="429" type="line"/>
			<point x="348" y="437" type="line"/>
			<point x="298" y="442" type="line"/>
			<point x="298" y="712" type="line"/>
			<point x="293" y="716" type="line"/>
			<point x="212" y="702" type="line"/>
			<point x="212" y="694" type="line"/>
			<point x="263" y="689" type="line"/>
			<point x="263" y="486" type="line"/>
			<point x="263" y="484" type="line"/>
		</contour>
	</outline>
</glyph>
<glyph name="f.sups" format="2">
	<unicode hex="1DA0"/>
	<advance width="216"/>
	<outline>
		<contour>
			<point x="76" y="433" type="line"/>
			<point x="111" y="433" type="line"/>
			<point x="111" y="709" type="line"/>
			<point x="109" y="805"/>
			<point x="128" y="855"/>
			<point x="155" y="878" type="curve" smooth="yes"/>
			<point x="168" y="888"/>
			<point x="187" y="894"/>
			<point x="205" y="894" type="curve"/>
			<point x="205" y="897" type="line"/>
			<point x="174" y="897" type="line"/>
			<point x="174" y="894" type="line"/>
			<point x="193" y="880" type="line" smooth="yes"/>
			<point x="208" y="868"/>
			<point x="220" y="862"/>
			<point x="233" y="862" type="curve" smooth="yes"/>
			<point x="249" y="862"/>
			<point x="259" y="869"/>
			<point x="260" y="882" type="curve"/>
			<point x="254" y="896"/>
			<point x="232" y="903"/>
			<point x="210" y="903" type="curve" smooth="yes"/>
			<point x="182" y="903"/>
			<point x="155" y="895"/>
			<point x="135" y="877" type="curve" smooth="yes"/>
			<point x="101" y="847"/>
			<point x="78" y="805"/>
			<point x="76" y="712" type="curve"/>
			<point x="89" y="718" type="line"/>
			<point x="23" y="711" type="line"/>
			<point x="23" y="702" type="line"/>
			<point x="76" y="702" type="line"/>
		</contour>
		<contour>
			<point x="25" y="433" type="line"/>
			<point x="172" y="433" type="line"/>
			<point x="172" y="442" type="line"/>
			<point x="101" y="448" type="line"/>
			<point x="87" y="448" type="line"/>
			<point x="25" y="442" type="line"/>
		</contour>
		<contour>
			<point x="93" y="702" type="line"/>
			<point x="197" y="702" type="line"/>
			<point x="197" y="715" type="line"/>
			<point x="93" y="715" type="line"/>
		</contour>
	</outline>
</glyph>
<glyph name="z.sups" format="2">
	<unicode hex="1DBB"/>
	<advance width="280"/>
	<outline>
		<contour>
			<point x="26" y="433" type="line"/>
			<point x="255" y="433" type="line"/>
			<point x="259" y="526" type="line"/>
			<point x="251" y="526" type="line"/>
			<point x="226" y="439" type="line"/>
			<point x="243" y="444" type="line"/>
			<point x="56" y="444" type="line"/>
			<point x="64" y="439" type="line"/>
			<point x="253" y="708" type="line"/>
			<point x="253" y="715" type="line"/>
			<point x="35" y="715" type="line"/>
			<point x="32" y="629" type="line"/>
			<point x="41" y="628" type="line"/>
			<point x="64" y="709" type="line"/>
			<point x="47" y="703" type="line"/>
			<point x="222" y="703" type="line"/>
			<point x="214" y="708" type="line"/>
			<point x="26" y="439" type="line"/>
		</contour>
	</outline>
</glyph>
<glyph name="quoteleft" format="2">
	<unicode hex="2018"/>
	<unicode hex="02BB"/>
	<advance width="179"/>
	<outline>
		<contour>
			<point x="88" y="548" type="curve" smooth="yes"/>
			<point x="108" y="548"/>
			<point x="121" y="562"/>
			<point x="121" y="581" type="curve" smooth="yes"/>
			<point x="121" y="594"/>
			<point x="115" y="606"/>
			<point x="98" y="618" type="curve" smooth="yes"/>
			<point x="67" y="639" type="line"/>
			<point x="68" y="620" type="line"/>
			<point x="77" y="675"/>
			<point x="104" y="704"/>
			<point x="144" y="727" type="curve"/>
			<point x="138" y="740" type="line"/>
			<point x="86" y="716"/>
			<point x="49" y="668"/>
			<point x="49" y="609" type="curve" smooth="yes"/>
			<point x="49" y="588"/>
			<point x="52" y="573"/>
			<point x="60" y="558" type="curve"/>
			<point x="73" y="549"/>
			<point x="80" y="548"/>
		</contour>
	</outline>
</glyph>
<glyph name="zero.sups" format="2">
	<unicode hex="2070"/>
	<advance width="316"/>
	<outline>
		<contour>
			<point x="158" y="425" type="curve" smooth="yes"/>
			<point x="226" y="425"/>
			<point x="286" y="484"/>
			<point x="286" y="634" type="curve" smooth="yes"/>
			<point x="286" y="787"/>
			<point x="226" y="846"/>
			<point x="158" y="846" type="curve" smooth="yes"/>
			<point x="91" y="846"/>
			<point x="31" y="787"/>
			<point x="31" y="634" type="curve" smooth="yes"/>
			<point x="31" y="484"/>
			<point x="91" y="425"/>
		</contour>
		<contour>
			<point x="158" y="436" type="curve" smooth="yes"/>
			<point x="115" y="436"/>
			<point x="70" y="482"/>
			<point x="70" y="634" type="curve" smooth="yes"/>
			<point x="70" y="788"/>
			<point x="115" y="835"/>
			<point x="158" y="835" type="curve" smooth="yes"/>
			<point x="202" y="835"/>
			<point x="247" y="788"/>
			<point x="247" y="634" type="curve" smooth="yes"/>
			<point x="247" y="482"/>
			<point x="202" y="436"/>
		</contour>
	</outline>
</glyph>
<glyph name="four.sups" format="2">
	<unicode hex="2074"/>
	<advance width="316"/>
	<outline>
		<contour>
			<point x="194" y="429" type="line"/>
			<point x="231" y="429" type="line"/>
			<point x="231" y="839" type="line"/>
			<point x="205" y="839" type="line"/>
			<point x="16" y="578" type="line"/>
			<point x="16" y="553" type="line"/>
			<point x="302" y="553" type="line"/>
			<point x="302" y="583" type="line"/>
			<point x="31" y="583" type="line"/>
			<point x="31" y="590" type="line"/>
			<point x="26" y="572" type="line"/>
			<point x="204" y="820" type="line"/>
			<point x="189" y="809" type="line"/>
			<point x="194" y="809" type="line"/>
			<point x="194" y="574" type="line"/>
			<point x="194" y="564" type="line"/>
		</contour>
	</outline>
</glyph>
<glyph name="five.sups" format="2">
	<unicode hex="2075"/>
	<advance width="316"/>
	<outline>
		<contour>
			<point x="145" y="425" type="curve" smooth="yes"/>
			<point x="228" y="425"/>
			<point x="290" y="474"/>
			<point x="290" y="554" type="curve" smooth="yes"/>
			<point x="290" y="633"/>
			<point x="234" y="677"/>
			<point x="154" y="677" type="curve" smooth="yes"/>
			<point x="121" y="677"/>
			<point x="92" y="670"/>
			<point x="64" y="654" type="curve"/>
			<point x="64" y="651" type="line"/>
			<point x="73" y="651" type="line"/>
			<point x="85" y="824" type="line"/>
			<point x="80" y="808" type="line"/>
			<point x="279" y="808" type="line"/>
			<point x="279" y="839" type="line"/>
			<point x="74" y="839" type="line"/>
			<point x="60" y="649" type="line"/>
			<point x="67" y="646" type="line"/>
			<point x="92" y="659"/>
			<point x="117" y="663"/>
			<point x="145" y="663" type="curve" smooth="yes"/>
			<point x="210" y="663"/>
			<point x="251" y="618"/>
			<point x="251" y="554" type="curve" smooth="yes"/>
			<point x="251" y="484"/>
			<point x="210" y="436"/>
			<point x="142" y="436" type="curve" smooth="yes"/>
			<point x="115" y="436"/>
			<point x="91" y="441"/>
			<point x="67" y="460" type="curve"/>
			<point x="85" y="441" type="line"/>
			<point x="71" y="496" type="line" smooth="yes"/>
			<point x="67" y="514"/>
			<point x="59" y="521"/>
			<point x="47" y="521" type="curve" smooth="yes"/>
			<point x="36" y="521"/>
			<point x="29" y="516"/>
			<point x="26" y="505" type="curve"/>
			<point x="38" y="452"/>
			<point x="82" y="425"/>
		</contour>
	</outline>
</glyph>
<glyph name="six.sups" format="2">
	<unicode hex="2076"/>
	<advance width="316"/>
	<outline>
		<contour>
			<point x="163" y="421" type="curve" smooth="yes"/>
			<point x="232" y="421"/>
			<point x="292" y="473"/>
			<point x="292" y="552" type="curve" smooth="yes"/>
			<point x="292" y="626"/>
			<point x="245" y="674"/>
			<point x="175" y="674" type="curve" smooth="yes"/>
			<point x="126" y="674"/>
			<point x="88" y="650"/>
			<point x="56" y="602" type="curve"/>
			<point x="52" y="602" type="line"/>
			<point x="59" y="598" type="line"/>
			<point x="90" y="637"/>
			<point x="128" y="656"/>
			<point x="163" y="656" type="curve" smooth="yes"/>
			<point x="214" y="656"/>
			<point x="254" y="620"/>
			<point x="254" y="550" type="curve" smooth="yes"/>
			<point x="254" y="477"/>
			<point x="213" y="432"/>
			<point x="163" y="432" type="curve" smooth="yes"/>
			<point x="103" y="432"/>
			<point x="68" y="492"/>
			<point x="68" y="583" type="curve" smooth="yes"/>
			<point x="68" y="711"/>
			<point x="139" y="804"/>
			<point x="276" y="833" type="curve"/>
			<point x="274" y="842" type="line"/>
			<point x="122" y="824"/>
			<point x="28" y="712"/>
			<point x="28" y="586" type="curve" smooth="yes"/>
			<point x="28" y="485"/>
			<point x="79" y="421"/>
		</contour>
	</outline>
</glyph>
<glyph name="nine.sups" format="2">
	<unicode hex="2079"/>
	<advance width="316"/>
	<outline>
		<contour>
			<point x="54" y="420" type="line"/>
			<point x="208" y="458"/>
			<point x="288" y="560"/>
			<point x="288" y="675" type="curve" smooth="yes"/>
			<point x="288" y="780"/>
			<point x="236" y="842"/>
			<point x="156" y="842" type="curve" smooth="yes"/>
			<point x="85" y="842"/>
			<point x="25" y="792"/>
			<point x="25" y="715" type="curve" smooth="yes"/>
			<point x="25" y="637"/>
			<point x="78" y="591"/>
			<point x="149" y="591" type="curve" smooth="yes"/>
			<point x="194" y="591"/>
			<point x="234" y="613"/>
			<point x="261" y="655" type="curve"/>
			<point x="266" y="655" type="line"/>
			<point x="259" y="664" type="line"/>
			<point x="235" y="628"/>
			<point x="195" y="609"/>
			<point x="161" y="609" type="curve" smooth="yes"/>
			<point x="104" y="609"/>
			<point x="63" y="646"/>
			<point x="63" y="716" type="curve" smooth="yes"/>
			<point x="63" y="788"/>
			<point x="106" y="831"/>
			<point x="156" y="831" type="curve" smooth="yes"/>
			<point x="212" y="831"/>
			<point x="249" y="774"/>
			<point x="249" y="674" type="curve" smooth="yes"/>
			<point x="249" y="555"/>
			<point x="186" y="475"/>
			<point x="51" y="429" type="curve"/>
		</contour>
	</outline>
</glyph>
<glyph name="parenleft.sups" format="2">
	<unicode hex="207D"/>
	<advance width="196"/>
	<outline>
		<contour>
			<point x="86" y="602" type="curve" smooth="yes"/>
			<point x="86" y="714"/>
			<point x="118" y="807"/>
			<point x="179" y="896" type="curve"/>
			<point x="172" y="901" type="line"/>
			<point x="95" y="813"/>
			<point x="53" y="711"/>
			<point x="53" y="602" type="curve" smooth="yes"/>
			<point x="53" y="492"/>
			<point x="95" y="389"/>
			<point x="172" y="302" type="curve"/>
			<point x="179" y="307" type="line"/>
			<point x="118" y="396"/>
			<point x="86" y="489"/>
		</contour>
	</outline>
</glyph>
<glyph name="parenright.sups" format="2">
	<unicode hex="207E"/>
	<advance width="196"/>
	<outline>
		<contour>
			<point x="110" y="602" type="curve" smooth="yes"/>
			<point x="110" y="490"/>
			<point x="77" y="396"/>
			<point x="16" y="307" type="curve"/>
			<point x="23" y="302" type="line"/>
			<point x="100" y="390"/>
			<point x="142" y="492"/>
			<point x="142" y="602" type="curve" smooth="yes"/>
			<point x="142" y="711"/>
			<point x="100" y="814"/>
			<point x="23" y="901" type="curve"/>
			<point x="16" y="897" type="line"/>
			<point x="77" y="808"/>
			<point x="110" y="714"/>
		</contour>
	</outline>
</glyph>
<glyph name="won" format="2">
	<unicode hex="20A9"/>
	<advance width="464"/>
	<outline>
		<contour>
			<point x="17" y="322" type="line"/>
			<point x="115" y="322" type="line"/>
			<point x="120" y="322" type="line"/>
			<point x="363" y="322" type="line"/>
			<point x="368" y="322" type="line"/>
			<point x="447" y="322" type="line"/>
			<point x="447" y="337" type="line"/>
			<point x="17" y="337" type="line"/>
		</contour>
		<contour>
			<point x="-1" y="640" type="line"/>
			<point x="64" y="634" type="line"/>
			<point x="69" y="634" type="line"/>
			<point x="151" y="640" type="line"/>
			<point x="151" y="653" type="line"/>
			<point x="-1" y="653" type="line"/>
		</contour>
		<contour>
			<point x="131" y="-8" type="line"/>
			<point x="147" y="-8" type="line"/>
			<point x="234" y="468" type="line"/>
			<point x="236" y="481" type="line"/>
			<point x="224" y="481" type="line"/>
			<point x="313" y="-8" type="line"/>
			<point x="328" y="-8" type="line"/>
			<point x="423" y="653" type="line"/>
			<point x="404" y="653" type="line"/>
			<point x="327" y="102" type="line"/>
			<point x="326" y="92" type="line"/>
			<point x="336" y="91" type="line"/>
			<point x="253" y="548" type="line"/>
			<point x="231" y="548" type="line"/>
			<point x="149" y="99" type="line"/>
			<point x="148" y="94" type="line"/>
			<point x="156" y="94" type="line"/>
			<point x="85" y="653" type="line"/>
			<point x="42" y="653" type="line"/>
		</contour>
		<contour>
			<point x="340" y="640" type="line"/>
			<point x="410" y="635" type="line"/>
			<point x="414" y="635" type="line"/>
			<point x="464" y="640" type="line"/>
			<point x="464" y="653" type="line"/>
			<point x="340" y="653" type="line"/>
		</contour>
	</outline>
</glyph>
<glyph name="summation" format="2">
	<unicode hex="2211"/>
	<advance width="533"/>
	<outline>
		<contour>
			<point x="46" y="-128" type="line"/>
			<point x="489" y="-128" type="line"/>
			<point x="500" y="58" type="line"/>
			<point x="488" y="58" type="line"/>
			<point x="451" y="-102" type="line"/>
			<point x="471" y="-90" type="line"/>
			<point x="83" y="-90" type="line"/>
			<point x="83" y="-83" type="line"/>
			<point x="78" y="-102" type="line"/>
			<point x="195" y="91" type="line"/>
			<point x="311" y="285" type="line"/>
			<point x="96" y="668" type="line"/>
			<point x="100" y="647" type="line"/>
			<point x="100" y="656" type="line"/>
			<point x="280" y="656" type="line"/>
			<point x="459" y="656" type="line"/>
			<point x="437" y="666" type="line"/>
			<point x="476" y="504" type="line"/>
			<point x="488" y="504" type="line"/>
			<point x="477" y="674" type="line"/>
			<point x="51" y="674" type="line"/>
			<point x="51" y="660" type="line"/>
			<point x="278" y="260" type="line"/>
			<point x="279" y="273" type="line"/>
			<point x="46" y="-114" type="line"/>
		</contour>
	</outline>
</glyph>
<glyph name="radical" format="2">
	<unicode hex="221A"/>
	<advance width="539"/>
	<outline>
		<contour>
			<point x="134" y="337" type="line"/>
			<point x="289" y="-98" type="line"/>
			<point x="313" y="-98" type="line"/>
			<point x="533" y="792" type="line"/>
			<point x="487" y="792" type="line"/>
			<point x="303" y="-61" type="line"/>
			<point x="318" y="-57" type="line"/>
			<point x="177" y="348" type="line"/>
			<point x="43" y="348" type="line"/>
			<point x="43" y="332" type="line"/>
			<point x="161" y="332" type="line"/>
		</contour>
	</outline>
</glyph>
<glyph name="notequal" format="2">
	<unicode hex="2260"/>
	<advance width="496"/>
	<outline>
		<contour>
			<point x="123" y="89" type="line"/>
			<point x="385" y="568" type="line"/>
			<point x="367" y="577" type="line"/>
			<point x="105" y="98" type="line"/>
		</contour>
		<component base="equal"/>
	</outline>
</glyph>
<glyph name="greaterequal" format="2">
	<unicode hex="2265"/>
	<advance width="500"/>
	<outline>
		<contour>
			<point x="35" y="0" type="line"/>
			<point x="465" y="0" type="line"/>
			<point x="465" y="22" type="line"/>
			<point x="35" y="22" type="line"/>
		</contour>
		<contour>
			<point x="448" y="314" type="line"/>
			<point x="448" y="325" type="line"/>
			<point x="67" y="534" type="line"/>
			<point x="55" y="515" type="line"/>
			<point x="425" y="314" type="line"/>
			<point x="425" y="325" type="line"/>
			<point x="55" y="119" type="line"/>
			<point x="67" y="100" type="line"/>
		</contour>
	</outline>
</glyph>
<glyph name="check" format="2">
	<unicode hex="2713"/>
	<advance width="577"/>
	<outline>
		<contour>
			<point x="49" y="349" type="line"/>
			<point x="110" y="233"/>
			<point x="163" y="113"/>
			<point x="209" y="-5" type="curve"/>
			<point x="231" y="-1" type="line"/>
			<point x="324" y="271"/>
			<point x="437" y="541"/>
			<point x="564" y="794" type="curve"/>
			<point x="546" y="804" type="line"/>
			<point x="416" y="554"/>
			<point x="303" y="297"/>
			<point x="215" y="34" type="curve"/>
			<point x="229" y="36" type="line"/>
			<point x="187" y="150"/>
			<point x="140" y="259"/>
			<point x="83" y="369" type="curve"/>
		</contour>
	</outline>
</glyph>
<glyph name="squareshadow" format="2">
	<unicode hex="2752"/>
	<advance width="842"/>
	<outline>
		<contour>
			<point x="82" y="0" type="line"/>
			<point x="82" y="600" type="line"/>
			<point x="692" y="600" type="line"/>
			<point x="692" y="0" type="line"/>
		</contour>
		<contour>
			<point x="59" y="-22" type="line"/>
			<point x="713" y="-22" type="line"/>
			<point x="784" y="90" type="line"/>
			<point x="784" y="679" type="line"/>
			<point x="166" y="679" type="line"/>
			<point x="59" y="613" type="line"/>
		</contour>
	</outline>
</glyph>
<glyph name="f_l" format="2">
	<unicode hex="FB02"/>
	<advance width="552"/>
	<outline>
		<contour>
			<point x="39" y="0" type="line"/>
			<point x="232" y="0" type="line"/>
			<point x="232" y="12" type="line"/>
			<point x="142" y="20" type="line"/>
			<point x="131" y="20" type="line"/>
			<point x="39" y="12" type="line"/>
		</contour>
		<contour>
			<point x="114" y="0" type="curve"/>
			<point x="160" y="0" type="line"/>
			<point x="158" y="45"/>
			<point x="157" y="147"/>
			<point x="157" y="209" type="curve" smooth="yes"/>
			<point x="157" y="441" type="line"/>
			<point x="156" y="542"/>
			<point x="171" y="649"/>
			<point x="230" y="705" type="curve" smooth="yes"/>
			<point x="255" y="731"/>
			<point x="292" y="744"/>
			<point x="341" y="744" type="curve"/>
			<point x="341" y="749" type="line"/>
			<point x="298" y="749" type="line"/>
			<point x="298" y="744" type="line"/>
			<point x="325" y="725" type="line" smooth="yes"/>
			<point x="345" y="709"/>
			<point x="362" y="701"/>
			<point x="379" y="701" type="curve" smooth="yes"/>
			<point x="401" y="701"/>
			<point x="413" y="710"/>
			<point x="415" y="727" type="curve"/>
			<point x="407" y="747"/>
			<point x="380" y="758"/>
			<point x="339" y="758" type="curve" smooth="yes"/>
			<point x="290" y="758"/>
			<point x="244" y="743"/>
			<point x="209" y="711" type="curve" smooth="yes"/>
			<point x="150" y="657"/>
			<point x="119" y="560"/>
			<point x="117" y="436" type="curve"/>
			<point x="136" y="455" type="line"/>
			<point x="34" y="444" type="line"/>
			<point x="34" y="432" type="line"/>
			<point x="117" y="432" type="line"/>
			<point x="117" y="209" type="line" smooth="yes"/>
			<point x="117" y="147"/>
			<point x="116" y="45"/>
		</contour>
		<contour>
			<point x="136" y="432" type="line"/>
			<point x="287" y="432" type="line"/>
			<point x="287" y="449" type="line"/>
			<point x="136" y="449" type="line"/>
		</contour>
		<contour>
			<point x="323" y="0" type="line"/>
			<point x="516" y="0" type="line"/>
			<point x="516" y="12" type="line"/>
			<point x="426" y="20" type="line"/>
			<point x="416" y="20" type="line"/>
			<point x="323" y="12" type="line"/>
		</contour>
		<contour>
			<point x="399" y="0" type="curve"/>
			<point x="445" y="0" type="line"/>
			<point x="443" y="45"/>
			<point x="442" y="147"/>
			<point x="442" y="209" type="curve" smooth="yes"/>
			<point x="442" y="563" type="line"/>
			<point x="445" y="740" type="line"/>
			<point x="438" y="747" type="line"/>
			<point x="402" y="736" type="line"/>
			<point x="402" y="209" type="line" smooth="yes"/>
			<point x="402" y="147"/>
			<point x="401" y="45"/>
		</contour>
	</outline>
</glyph>
<glyph name="A.sups" format="2">
	<advance width="415"/>
	<outline>
		<contour>
			<point x="7" y="429" type="line"/>
			<point x="134" y="429" type="line"/>
			<point x="134" y="437" type="line"/>
			<point x="70" y="442" type="line"/>
			<point x="60" y="442" type="line"/>
			<point x="7" y="437" type="line"/>
		</contour>
		<contour>
			<point x="51" y="429" type="line"/>
			<point x="67" y="429" type="line"/>
			<point x="196" y="801" type="line"/>
			<point x="198" y="804" type="line"/>
			<point x="193" y="804" type="line"/>
			<point x="322" y="429" type="line"/>
			<point x="363" y="429" type="line"/>
			<point x="214" y="852" type="line"/>
			<point x="199" y="852" type="line"/>
		</contour>
		<contour>
			<point x="111" y="582" type="line"/>
			<point x="295" y="582" type="line"/>
			<point x="286" y="595" type="line"/>
			<point x="119" y="595" type="line"/>
		</contour>
		<contour>
			<point x="257" y="429" type="line"/>
			<point x="408" y="429" type="line"/>
			<point x="408" y="437" type="line"/>
			<point x="350" y="443" type="line"/>
			<point x="327" y="443" type="line"/>
			<point x="257" y="437" type="line"/>
		</contour>
	</outline>
</glyph>
<glyph name="Be.sc" format="2">
	<advance width="499"/>
	<outline>
		<contour>
			<point x="53" y="0" type="line"/>
			<point x="157" y="0" type="line"/>
			<point x="156" y="19" type="line"/>
			<point x="142" y="19" type="line"/>
			<point x="53" y="12" type="line"/>
		</contour>
		<contour>
			<point x="128" y="0" type="curve"/>
			<point x="173" y="0" type="line"/>
			<point x="171" y="69"/>
			<point x="171" y="169"/>
			<point x="171" y="257" type="curve" smooth="yes"/>
			<point x="171" y="290" type="line" smooth="yes"/>
			<point x="171" y="375"/>
			<point x="171" y="472"/>
			<point x="173" y="540" type="curve"/>
			<point x="128" y="540" type="line"/>
			<point x="131" y="472"/>
			<point x="131" y="375"/>
			<point x="131" y="290" type="curve" smooth="yes"/>
			<point x="131" y="257" type="line" smooth="yes"/>
			<point x="131" y="169"/>
			<point x="131" y="69"/>
		</contour>
		<contour>
			<point x="142" y="520" type="line"/>
			<point x="160" y="520" type="line"/>
			<point x="162" y="540" type="line"/>
			<point x="53" y="540" type="line"/>
			<point x="53" y="528" type="line"/>
		</contour>
		<contour>
			<point x="149" y="0" type="line"/>
			<point x="235" y="0" type="line" smooth="yes"/>
			<point x="384" y="0"/>
			<point x="451" y="69"/>
			<point x="451" y="158" type="curve" smooth="yes"/>
			<point x="451" y="251"/>
			<point x="387" y="300"/>
			<point x="261" y="300" type="curve" smooth="yes"/>
			<point x="224" y="300"/>
			<point x="186" y="294"/>
			<point x="147" y="288" type="curve"/>
			<point x="147" y="272" type="line"/>
			<point x="184" y="278"/>
			<point x="217" y="283"/>
			<point x="254" y="283" type="curve" smooth="yes"/>
			<point x="360" y="283"/>
			<point x="409" y="244"/>
			<point x="409" y="158" type="curve" smooth="yes"/>
			<point x="409" y="76"/>
			<point x="360" y="16"/>
			<point x="233" y="16" type="curve" smooth="yes"/>
			<point x="149" y="16" type="line"/>
		</contour>
		<contour>
			<point x="410" y="399" type="line"/>
			<point x="421" y="399" type="line"/>
			<point x="411" y="540" type="line"/>
			<point x="150" y="540" type="line"/>
			<point x="150" y="524" type="line"/>
			<point x="394" y="524" type="line"/>
			<point x="376" y="533" type="line"/>
		</contour>
	</outline>
</glyph>
<glyph name="Chedescender.sc" format="2">
	<advance width="592"/>
	<outline>
		<contour>
			<point x="455" y="0" type="line"/>
			<point x="532" y="0" type="line"/>
			<point x="512" y="9" type="line"/>
			<point x="527" y="-154" type="line"/>
			<point x="538" y="-154" type="line"/>
			<point x="545" y="12" type="line"/>
			<point x="455" y="19" type="line"/>
		</contour>
		<component base="Che.sc"/>
	</outline>
</glyph>
<glyph name="D.sc" format="2">
	<advance width="587"/>
	<outline>
		<contour>
			<point x="53" y="0" type="line"/>
			<point x="159" y="0" type="line"/>
			<point x="159" y="19" type="line"/>
			<point x="142" y="19" type="line"/>
			<point x="53" y="12" type="line"/>
		</contour>
		<contour>
			<point x="128" y="0" type="curve"/>
			<point x="173" y="0" type="line"/>
			<point x="171" y="69"/>
			<point x="171" y="169"/>
			<point x="171" y="257" type="curve" smooth="yes"/>
			<point x="171" y="290" type="line" smooth="yes"/>
			<point x="171" y="375"/>
			<point x="171" y="472"/>
			<point x="173" y="540" type="curve"/>
			<point x="128" y="540" type="line"/>
			<point x="131" y="472"/>
			<point x="131" y="375"/>
			<point x="131" y="290" type="curve" smooth="yes"/>
			<point x="131" y="257" type="line" smooth="yes"/>
			<point x="131" y="169"/>
			<point x="131" y="69"/>
		</contour>
		<contour>
			<point x="142" y="520" type="line"/>
			<point x="159" y="520" type="line"/>
			<point x="159" y="540" type="line"/>
			<point x="53" y="540" type="line"/>
			<point x="53" y="528" type="line"/>
		</contour>
		<contour>
			<point x="157" y="0" type="line"/>
			<point x="245" y="0" type="line" smooth="yes"/>
			<point x="416" y="0"/>
			<point x="526" y="100"/>
			<point x="526" y="271" type="curve" smooth="yes"/>
			<point x="526" y="448"/>
			<point x="420" y="540"/>
			<point x="252" y="540" type="curve" smooth="yes"/>
			<point x="157" y="540" type="line"/>
			<point x="157" y="524" type="line"/>
			<point x="246" y="524" type="line" smooth="yes"/>
			<point x="397" y="524"/>
			<point x="482" y="443"/>
			<point x="482" y="271" type="curve" smooth="yes"/>
			<point x="482" y="112"/>
			<point x="398" y="16"/>
			<point x="235" y="16" type="curve" smooth="yes"/>
			<point x="157" y="16" type="line"/>
		</contour>
	</outline>
	<anchor name="aboveUC" x="287" y="560"/>
	<anchor name="belowLC" x="282" y="-20"/>
</glyph>
<glyph name="Ecyr.sc" format="2">
	<advance width="547"/>
	<outline>
		<contour>
			<point x="74" y="28" type="line"/>
			<point x="127" y="-3"/>
			<point x="173" y="-12"/>
			<point x="228" y="-12" type="curve" smooth="yes"/>
			<point x="383" y="-12"/>
			<point x="484" y="95"/>
			<point x="484" y="271" type="curve" smooth="yes"/>
			<point x="484" y="447"/>
			<point x="377" y="551"/>
			<point x="226" y="551" type="curve" smooth="yes"/>
			<point x="175" y="551"/>
			<point x="127" y="541"/>
			<point x="81" y="511" type="curve"/>
			<point x="74" y="386" type="line"/>
			<point x="84" y="386" type="line"/>
			<point x="117" y="518" type="line"/>
			<point x="93" y="513" type="line"/>
			<point x="91" y="496" type="line"/>
			<point x="137" y="527"/>
			<point x="175" y="537"/>
			<point x="225" y="537" type="curve" smooth="yes"/>
			<point x="353" y="537"/>
			<point x="440" y="444"/>
			<point x="440" y="270" type="curve" smooth="yes"/>
			<point x="440" y="94"/>
			<point x="352" y="3"/>
			<point x="227" y="3" type="curve" smooth="yes"/>
			<point x="181" y="3"/>
			<point x="132" y="11"/>
			<point x="86" y="43" type="curve"/>
			<point x="87" y="28" type="line"/>
			<point x="110" y="22" type="line"/>
			<point x="78" y="155" type="line"/>
			<point x="67" y="155" type="line"/>
		</contour>
		<contour>
			<point x="204" y="186" type="line"/>
			<point x="215" y="186" type="line"/>
			<point x="230" y="272" type="line"/>
			<point x="230" y="282" type="line"/>
			<point x="215" y="361" type="line"/>
			<point x="204" y="361" type="line"/>
		</contour>
		<contour>
			<point x="220" y="268" type="line"/>
			<point x="454" y="268" type="line"/>
			<point x="454" y="285" type="line"/>
			<point x="220" y="285" type="line"/>
		</contour>
	</outline>
	<anchor name="aboveUC" x="244" y="560"/>
</glyph>
<glyph name="Endescender.sc" format="2">
	<advance width="643"/>
	<outline>
		<contour>
			<point x="516" y="0" type="line"/>
			<point x="581" y="0" type="line"/>
			<point x="560" y="9" type="line"/>
			<point x="575" y="-152" type="line"/>
			<point x="587" y="-152" type="line"/>
			<point x="594" y="12" type="line"/>
			<point x="503" y="19" type="line"/>
		</contour>
		<component base="En.sc"/>
	</outline>
</glyph>
<glyph name="Eng.sc" format="2">
	<advance width="630"/>
	<outline>
		<contour>
			<point x="53" y="0" type="line"/>
			<point x="236" y="0" type="line"/>
			<point x="236" y="12" type="line"/>
			<point x="144" y="18" type="line"/>
			<point x="137" y="18" type="line"/>
			<point x="53" y="12" type="line"/>
		</contour>
		<contour>
			<point x="132" y="0" type="line"/>
			<point x="150" y="0" type="line"/>
			<point x="150" y="271" type="line"/>
			<point x="150" y="532" type="line"/>
			<point x="132" y="532" type="line"/>
		</contour>
		<contour>
			<point x="389" y="-104" type="curve" smooth="yes"/>
			<point x="420" y="-104"/>
			<point x="447" y="-86"/>
			<point x="470" y="-56" type="curve" smooth="yes"/>
			<point x="499" y="-18"/>
			<point x="505" y="32"/>
			<point x="505" y="100" type="curve" smooth="yes"/>
			<point x="505" y="539" type="line"/>
			<point x="486" y="539" type="line"/>
			<point x="486" y="298" type="line"/>
			<point x="486" y="87" type="line" smooth="yes"/>
			<point x="486" y="-17"/>
			<point x="459" y="-58"/>
			<point x="414" y="-84" type="curve"/>
			<point x="414" y="-89" type="line"/>
			<point x="430" y="-89" type="line"/>
			<point x="430" y="-83" type="line"/>
			<point x="409" y="-68" type="line" smooth="yes"/>
			<point x="394" y="-57"/>
			<point x="386" y="-52"/>
			<point x="370" y="-52" type="curve" smooth="yes"/>
			<point x="353" y="-52"/>
			<point x="341" y="-63"/>
			<point x="340" y="-76" type="curve"/>
			<point x="342" y="-95"/>
			<point x="366" y="-104"/>
		</contour>
		<contour>
			<point x="485" y="0" type="line"/>
			<point x="493" y="0" type="line"/>
			<point x="497" y="62" type="line"/>
			<point x="490" y="62" type="line"/>
			<point x="158" y="540" type="line"/>
			<point x="53" y="540" type="line"/>
			<point x="53" y="528" type="line"/>
			<point x="122" y="523" type="line"/>
			<point x="148" y="484" type="line"/>
			<point x="148" y="484" type="line"/>
		</contour>
		<contour>
			<point x="491" y="521" type="line"/>
			<point x="499" y="521" type="line"/>
			<point x="577" y="528" type="line"/>
			<point x="577" y="540" type="line"/>
			<point x="400" y="540" type="line"/>
			<point x="400" y="528" type="line"/>
		</contour>
	</outline>
</glyph>
<glyph name="F.sc" format="2">
	<advance width="476"/>
	<outline>
		<contour>
			<point x="53" y="0" type="line"/>
			<point x="261" y="0" type="line"/>
			<point x="261" y="12" type="line"/>
			<point x="160" y="19" type="line"/>
			<point x="142" y="19" type="line"/>
			<point x="53" y="12" type="line"/>
		</contour>
		<contour>
			<point x="128" y="0" type="curve"/>
			<point x="173" y="0" type="line"/>
			<point x="171" y="69"/>
			<point x="171" y="169"/>
			<point x="171" y="257" type="curve" smooth="yes"/>
			<point x="171" y="290" type="line" smooth="yes"/>
			<point x="171" y="375"/>
			<point x="171" y="472"/>
			<point x="173" y="540" type="curve"/>
			<point x="128" y="540" type="line"/>
			<point x="131" y="472"/>
			<point x="131" y="375"/>
			<point x="131" y="290" type="curve" smooth="yes"/>
			<point x="131" y="257" type="line" smooth="yes"/>
			<point x="131" y="169"/>
			<point x="131" y="69"/>
		</contour>
		<contour>
			<point x="142" y="520" type="line"/>
			<point x="155" y="520" type="line"/>
			<point x="155" y="540" type="line"/>
			<point x="53" y="540" type="line"/>
			<point x="53" y="528" type="line"/>
		</contour>
		<contour>
			<point x="151" y="268" type="line"/>
			<point x="317" y="268" type="line"/>
			<point x="317" y="285" type="line"/>
			<point x="151" y="285" type="line"/>
		</contour>
		<contour>
			<point x="322" y="186" type="line"/>
			<point x="334" y="186" type="line"/>
			<point x="334" y="360" type="line"/>
			<point x="322" y="360" type="line"/>
			<point x="305" y="282" type="line"/>
			<point x="305" y="271" type="line"/>
		</contour>
		<contour>
			<point x="426" y="399" type="line"/>
			<point x="437" y="399" type="line"/>
			<point x="427" y="540" type="line"/>
			<point x="150" y="540" type="line"/>
			<point x="150" y="524" type="line"/>
			<point x="404" y="524" type="line"/>
			<point x="391" y="533" type="line"/>
		</contour>
	</outline>
	<anchor name="aboveUC" x="278" y="560"/>
	<anchor name="belowLC" x="153" y="-20"/>
</glyph>
<glyph name="Fita.sc" format="2">
	<advance width="597"/>
	<outline>
		<contour>
			<point x="513" y="270" type="line"/>
			<point x="513" y="286" type="line"/>
			<point x="78" y="286" type="line"/>
			<point x="78" y="270" type="line"/>
		</contour>
		<contour>
			<point x="107" y="270" type="curve" smooth="yes"/>
			<point x="107" y="431"/>
			<point x="175" y="536"/>
			<point x="298" y="536" type="curve" smooth="yes"/>
			<point x="421" y="536"/>
			<point x="489" y="431"/>
			<point x="489" y="271" type="curve" smooth="yes"/>
			<point x="489" y="110"/>
			<point x="421" y="4"/>
			<point x="298" y="4" type="curve" smooth="yes"/>
			<point x="175" y="4"/>
			<point x="107" y="110"/>
		</contour>
		<contour>
			<point x="298" y="551" type="curve" smooth="yes"/>
			<point x="167" y="551"/>
			<point x="63" y="453"/>
			<point x="63" y="270" type="curve" smooth="yes"/>
			<point x="63" y="86"/>
			<point x="167" y="-11"/>
			<point x="298" y="-11" type="curve" smooth="yes"/>
			<point x="429" y="-11"/>
			<point x="533" y="88"/>
			<point x="533" y="271" type="curve" smooth="yes"/>
			<point x="533" y="455"/>
			<point x="429" y="551"/>
		</contour>
	</outline>
	<anchor name="aboveUC" x="299" y="560"/>
</glyph>
<glyph name="G.sups" format="2">
	<advance width="417"/>
	<outline>
		<contour>
			<point x="236" y="423" type="curve" smooth="yes"/>
			<point x="281" y="423"/>
			<point x="318" y="434"/>
			<point x="357" y="457" type="curve"/>
			<point x="357" y="633" type="line"/>
			<point x="322" y="633" type="line"/>
			<point x="322" y="449" type="line"/>
			<point x="333" y="460" type="line"/>
			<point x="303" y="442"/>
			<point x="271" y="435"/>
			<point x="237" y="435" type="curve" smooth="yes"/>
			<point x="140" y="435"/>
			<point x="77" y="510"/>
			<point x="77" y="642" type="curve" smooth="yes"/>
			<point x="77" y="774"/>
			<point x="144" y="850"/>
			<point x="240" y="850" type="curve" smooth="yes"/>
			<point x="276" y="850"/>
			<point x="302" y="843"/>
			<point x="334" y="824" type="curve"/>
			<point x="332" y="832" type="line"/>
			<point x="320" y="835" type="line"/>
			<point x="349" y="734" type="line"/>
			<point x="358" y="734" type="line"/>
			<point x="352" y="830" type="line"/>
			<point x="316" y="853"/>
			<point x="279" y="860"/>
			<point x="238" y="860" type="curve" smooth="yes"/>
			<point x="120" y="860"/>
			<point x="35" y="774"/>
			<point x="35" y="643" type="curve" smooth="yes"/>
			<point x="35" y="511"/>
			<point x="112" y="423"/>
		</contour>
		<contour>
			<point x="332" y="619" type="line"/>
			<point x="347" y="619" type="line"/>
			<point x="402" y="625" type="line"/>
			<point x="402" y="633" type="line"/>
			<point x="251" y="633" type="line"/>
			<point x="251" y="625" type="line"/>
		</contour>
	</outline>
</glyph>
<glyph name="Germandbls.sc" format="2">
	<advance width="604"/>
	<outline>
		<contour>
			<point x="53" y="0" type="line"/>
			<point x="155" y="0" type="line"/>
			<point x="157" y="19" type="line"/>
			<point x="146" y="19" type="line"/>
			<point x="53" y="12" type="line"/>
		</contour>
		<contour>
			<point x="128" y="0" type="curve"/>
			<point x="173" y="0" type="line"/>
			<point x="171" y="76"/>
			<point x="171" y="182"/>
			<point x="171" y="273" type="curve" smooth="yes"/>
			<point x="171" y="356" type="line" smooth="yes"/>
			<point x="171" y="493"/>
			<point x="250" y="537"/>
			<point x="350" y="537" type="curve" smooth="yes"/>
			<point x="398" y="537"/>
			<point x="453" y="527"/>
			<point x="494" y="506" type="curve"/>
			<point x="494" y="513" type="line"/>
			<point x="421" y="483"/>
			<point x="377" y="437"/>
			<point x="377" y="373" type="curve" smooth="yes"/>
			<point x="377" y="319"/>
			<point x="411" y="287"/>
			<point x="446" y="248" type="curve" smooth="yes"/>
			<point x="472" y="219" type="line" smooth="yes"/>
			<point x="506" y="183"/>
			<point x="536" y="156"/>
			<point x="536" y="114" type="curve" smooth="yes"/>
			<point x="536" y="54"/>
			<point x="486" y="3"/>
			<point x="411" y="3" type="curve" smooth="yes"/>
			<point x="372" y="3"/>
			<point x="340" y="11"/>
			<point x="304" y="38" type="curve"/>
			<point x="327" y="14" type="line"/>
			<point x="307" y="150" type="line"/>
			<point x="296" y="150" type="line"/>
			<point x="292" y="27" type="line"/>
			<point x="318" y="4"/>
			<point x="367" y="-11"/>
			<point x="414" y="-11" type="curve" smooth="yes"/>
			<point x="520" y="-11"/>
			<point x="570" y="52"/>
			<point x="570" y="120" type="curve" smooth="yes"/>
			<point x="570" y="181"/>
			<point x="533" y="212"/>
			<point x="497" y="250" type="curve" smooth="yes"/>
			<point x="471" y="279" type="line" smooth="yes"/>
			<point x="438" y="313"/>
			<point x="410" y="340"/>
			<point x="410" y="381" type="curve" smooth="yes"/>
			<point x="410" y="435"/>
			<point x="445" y="477"/>
			<point x="504" y="507" type="curve"/>
			<point x="504" y="515" type="line"/>
			<point x="462" y="540"/>
			<point x="404" y="551"/>
			<point x="350" y="551" type="curve" smooth="yes"/>
			<point x="231" y="551"/>
			<point x="131" y="501"/>
			<point x="131" y="356" type="curve" smooth="yes"/>
			<point x="131" y="273" type="line" smooth="yes"/>
			<point x="131" y="182"/>
			<point x="131" y="76"/>
		</contour>
	</outline>
</glyph>
<glyph name="H.sc" format="2">
	<advance width="643"/>
	<outline>
		<contour>
			<point x="53" y="0" type="line"/>
			<point x="250" y="0" type="line"/>
			<point x="250" y="12" type="line"/>
			<point x="160" y="19" type="line"/>
			<point x="142" y="19" type="line"/>
			<point x="53" y="12" type="line"/>
		</contour>
		<contour>
			<point x="128" y="0" type="curve"/>
			<point x="173" y="0" type="line"/>
			<point x="171" y="69"/>
			<point x="171" y="169"/>
			<point x="171" y="257" type="curve" smooth="yes"/>
			<point x="171" y="290" type="line" smooth="yes"/>
			<point x="171" y="375"/>
			<point x="171" y="472"/>
			<point x="173" y="540" type="curve"/>
			<point x="128" y="540" type="line"/>
			<point x="131" y="472"/>
			<point x="131" y="375"/>
			<point x="131" y="290" type="curve" smooth="yes"/>
			<point x="131" y="257" type="line" smooth="yes"/>
			<point x="131" y="169"/>
			<point x="131" y="69"/>
		</contour>
		<contour>
			<point x="142" y="520" type="line"/>
			<point x="160" y="520" type="line"/>
			<point x="250" y="528" type="line"/>
			<point x="250" y="540" type="line"/>
			<point x="53" y="540" type="line"/>
			<point x="53" y="528" type="line"/>
		</contour>
		<contour>
			<point x="150" y="272" type="line"/>
			<point x="494" y="272" type="line"/>
			<point x="494" y="288" type="line"/>
			<point x="150" y="288" type="line"/>
		</contour>
		<contour>
			<point x="394" y="0" type="line"/>
			<point x="590" y="0" type="line"/>
			<point x="590" y="12" type="line"/>
			<point x="502" y="19" type="line"/>
			<point x="483" y="19" type="line"/>
			<point x="394" y="12" type="line"/>
		</contour>
		<contour>
			<point x="470" y="0" type="curve"/>
			<point x="515" y="0" type="line"/>
			<point x="513" y="69"/>
			<point x="513" y="169"/>
			<point x="513" y="257" type="curve" smooth="yes"/>
			<point x="513" y="290" type="line" smooth="yes"/>
			<point x="513" y="375"/>
			<point x="513" y="472"/>
			<point x="515" y="540" type="curve"/>
			<point x="470" y="540" type="line"/>
			<point x="473" y="472"/>
			<point x="473" y="375"/>
			<point x="473" y="290" type="curve" smooth="yes"/>
			<point x="473" y="257" type="line" smooth="yes"/>
			<point x="473" y="169"/>
			<point x="473" y="69"/>
		</contour>
		<contour>
			<point x="483" y="520" type="line"/>
			<point x="502" y="520" type="line"/>
			<point x="590" y="528" type="line"/>
			<point x="590" y="540" type="line"/>
			<point x="394" y="540" type="line"/>
			<point x="394" y="528" type="line"/>
		</contour>
	</outline>
	<anchor name="aboveUC" x="322" y="560"/>
	<anchor name="belowLC" x="322" y="-20"/>
</glyph>
<glyph name="H.sups" format="2">
	<advance width="473"/>
	<outline>
		<contour>
			<point x="29" y="843" type="line"/>
			<point x="98" y="838" type="line"/>
			<point x="115" y="838" type="line"/>
			<point x="185" y="843" type="line"/>
			<point x="185" y="852" type="line"/>
			<point x="29" y="852" type="line"/>
		</contour>
		<contour>
			<point x="29" y="433" type="line"/>
			<point x="185" y="433" type="line"/>
			<point x="185" y="442" type="line"/>
			<point x="115" y="448" type="line"/>
			<point x="98" y="448" type="line"/>
			<point x="29" y="442" type="line"/>
		</contour>
		<contour>
			<point x="87" y="433" type="line"/>
			<point x="125" y="433" type="line"/>
			<point x="125" y="852" type="line"/>
			<point x="87" y="852" type="line"/>
		</contour>
		<contour>
			<point x="105" y="643" type="line"/>
			<point x="369" y="643" type="line"/>
			<point x="369" y="655" type="line"/>
			<point x="105" y="655" type="line"/>
		</contour>
		<contour>
			<point x="289" y="433" type="line"/>
			<point x="444" y="433" type="line"/>
			<point x="444" y="442" type="line"/>
			<point x="375" y="448" type="line"/>
			<point x="358" y="448" type="line"/>
			<point x="289" y="442" type="line"/>
		</contour>
		<contour>
			<point x="348" y="433" type="line"/>
			<point x="386" y="433" type="line"/>
			<point x="386" y="852" type="line"/>
			<point x="348" y="852" type="line"/>
		</contour>
		<contour>
			<point x="289" y="843" type="line"/>
			<point x="358" y="838" type="line"/>
			<point x="375" y="838" type="line"/>
			<point x="444" y="843" type="line"/>
			<point x="444" y="852" type="line"/>
			<point x="289" y="852" type="line"/>
		</contour>
	</outline>
</glyph>
<glyph name="Hadescender.sc" format="2">
	<advance width="545"/>
	<outline>
		<contour>
			<point x="447" y="0" type="line"/>
			<point x="512" y="0" type="line"/>
			<point x="492" y="9" type="line"/>
			<point x="506" y="-152" type="line"/>
			<point x="518" y="-152" type="line"/>
			<point x="525" y="12" type="line"/>
			<point x="434" y="19" type="line"/>
		</contour>
		<component base="Ha.sc"/>
	</outline>
</glyph>
<glyph name="Hbar.sc" format="2">
	<advance width="641"/>
	<outline>
		<contour>
			<point x="127" y="0" type="curve"/>
			<point x="172" y="0" type="line"/>
			<point x="170" y="69"/>
			<point x="170" y="169"/>
			<point x="170" y="257" type="curve" smooth="yes"/>
			<point x="170" y="290" type="line" smooth="yes"/>
			<point x="170" y="375"/>
			<point x="170" y="472"/>
			<point x="172" y="540" type="curve"/>
			<point x="127" y="540" type="line"/>
			<point x="130" y="472"/>
			<point x="130" y="375"/>
			<point x="130" y="290" type="curve" smooth="yes"/>
			<point x="130" y="257" type="line" smooth="yes"/>
			<point x="130" y="169"/>
			<point x="130" y="69"/>
		</contour>
		<contour>
			<point x="469" y="0" type="curve"/>
			<point x="514" y="0" type="line"/>
			<point x="511" y="69"/>
			<point x="511" y="169"/>
			<point x="511" y="257" type="curve" smooth="yes"/>
			<point x="511" y="290" type="line" smooth="yes"/>
			<point x="511" y="375"/>
			<point x="511" y="472"/>
			<point x="514" y="540" type="curve"/>
			<point x="469" y="540" type="line"/>
			<point x="472" y="472"/>
			<point x="472" y="375"/>
			<point x="472" y="290" type="curve" smooth="yes"/>
			<point x="472" y="257" type="line" smooth="yes"/>
			<point x="472" y="169"/>
			<point x="472" y="69"/>
		</contour>
		<contour>
			<point x="51" y="0" type="line"/>
			<point x="249" y="0" type="line"/>
			<point x="249" y="12" type="line"/>
			<point x="159" y="19" type="line"/>
			<point x="141" y="19" type="line"/>
			<point x="51" y="12" type="line"/>
		</contour>
		<contour>
			<point x="51" y="528" type="line"/>
			<point x="141" y="520" type="line"/>
			<point x="159" y="520" type="line"/>
			<point x="249" y="528" type="line"/>
			<point x="249" y="540" type="line"/>
			<point x="51" y="540" type="line"/>
		</contour>
		<contour>
			<point x="392" y="0" type="line"/>
			<point x="589" y="0" type="line"/>
			<point x="589" y="12" type="line"/>
			<point x="500" y="19" type="line"/>
			<point x="482" y="19" type="line"/>
			<point x="392" y="12" type="line"/>
		</contour>
		<contour>
			<point x="392" y="528" type="line"/>
			<point x="482" y="520" type="line"/>
			<point x="500" y="520" type="line"/>
			<point x="589" y="528" type="line"/>
			<point x="589" y="540" type="line"/>
			<point x="392" y="540" type="line"/>
		</contour>
		<contour>
			<point x="148" y="272" type="line"/>
			<point x="493" y="272" type="line"/>
			<point x="493" y="288" type="line"/>
			<point x="148" y="288" type="line"/>
		</contour>
		<contour>
			<point x="43" y="397" type="line"/>
			<point x="598" y="397" type="line"/>
			<point x="598" y="413" type="line"/>
			<point x="43" y="413" type="line"/>
		</contour>
	</outline>
</glyph>
<glyph name="I.sups" format="2">
	<advance width="213"/>
	<outline>
		<contour>
			<point x="29" y="433" type="line"/>
			<point x="184" y="433" type="line"/>
			<point x="184" y="442" type="line"/>
			<point x="115" y="448" type="line"/>
			<point x="98" y="448" type="line"/>
			<point x="29" y="442" type="line"/>
		</contour>
		<contour>
			<point x="29" y="843" type="line"/>
			<point x="98" y="838" type="line"/>
			<point x="115" y="838" type="line"/>
			<point x="184" y="843" type="line"/>
			<point x="184" y="852" type="line"/>
			<point x="29" y="852" type="line"/>
		</contour>
		<contour>
			<point x="87" y="433" type="line"/>
			<point x="125" y="433" type="line"/>
			<point x="125" y="852" type="line"/>
			<point x="87" y="852" type="line"/>
		</contour>
	</outline>
</glyph>
<glyph name="Icyr.bgr" format="2">
	<advance width="716"/>
	<outline>
		<contour>
			<point x="45" y="0" type="line"/>
			<point x="155" y="0" type="line"/>
			<point x="155" y="20" type="line"/>
			<point x="146" y="20" type="line"/>
			<point x="45" y="12" type="line"/>
		</contour>
		<contour>
			<point x="45" y="662" type="line"/>
			<point x="146" y="653" type="line"/>
			<point x="166" y="653" type="line"/>
			<point x="268" y="662" type="line"/>
			<point x="268" y="674" type="line"/>
			<point x="45" y="674" type="line"/>
		</contour>
		<contour>
			<point x="132" y="0" type="curve"/>
			<point x="165" y="0" type="line"/>
			<point x="178" y="33" type="line"/>
			<point x="178" y="461"/>
			<point x="178" y="589"/>
			<point x="180" y="674" type="curve"/>
			<point x="132" y="674" type="line"/>
			<point x="135" y="590"/>
			<point x="135" y="464"/>
			<point x="135" y="360" type="curve" smooth="yes"/>
			<point x="135" y="321" type="line" smooth="yes"/>
			<point x="135" y="214"/>
			<point x="135" y="85"/>
		</contour>
		<contour>
			<point x="158" y="0" type="line"/>
			<point x="172" y="0" type="line"/>
			<point x="544" y="643" type="line"/>
			<point x="558" y="643" type="line"/>
			<point x="558" y="674" type="line"/>
			<point x="539" y="674" type="line"/>
			<point x="170" y="34" type="line"/>
			<point x="158" y="34" type="line"/>
		</contour>
		<contour>
			<point x="445" y="0" type="line"/>
			<point x="668" y="0" type="line"/>
			<point x="668" y="12" type="line"/>
			<point x="567" y="20" type="line"/>
			<point x="547" y="20" type="line"/>
			<point x="445" y="12" type="line"/>
		</contour>
		<contour>
			<point x="533" y="0" type="curve"/>
			<point x="581" y="0" type="line"/>
			<point x="578" y="84"/>
			<point x="578" y="209"/>
			<point x="578" y="313" type="curve" smooth="yes"/>
			<point x="578" y="352" type="line" smooth="yes"/>
			<point x="578" y="459"/>
			<point x="578" y="589"/>
			<point x="581" y="674" type="curve"/>
			<point x="548" y="674" type="line"/>
			<point x="536" y="641" type="line"/>
			<point x="536" y="213"/>
			<point x="536" y="85"/>
		</contour>
		<contour>
			<point x="558" y="653" type="line"/>
			<point x="567" y="653" type="line"/>
			<point x="668" y="662" type="line"/>
			<point x="668" y="674" type="line"/>
			<point x="558" y="674" type="line"/>
		</contour>
	</outline>
	<anchor name="aboveUC" x="364" y="694"/>
</glyph>
<glyph name="Icyr.sc" format="2">
	<advance width="656"/>
	<outline>
		<contour>
			<point x="128" y="0" type="curve"/>
			<point x="171" y="0" type="line"/>
			<point x="171" y="273" type="line" smooth="yes"/>
			<point x="171" y="364"/>
			<point x="171" y="449"/>
			<point x="171" y="540" type="curve"/>
			<point x="128" y="540" type="line"/>
			<point x="131" y="472"/>
			<point x="131" y="375"/>
			<point x="131" y="290" type="curve" smooth="yes"/>
			<point x="131" y="257" type="line" smooth="yes"/>
			<point x="131" y="169"/>
			<point x="131" y="69"/>
		</contour>
		<contour>
			<point x="485" y="0" type="curve"/>
			<point x="527" y="0" type="line"/>
			<point x="525" y="69"/>
			<point x="525" y="169"/>
			<point x="525" y="257" type="curve" smooth="yes"/>
			<point x="525" y="290" type="line" smooth="yes"/>
			<point x="525" y="375"/>
			<point x="525" y="472"/>
			<point x="527" y="540" type="curve"/>
			<point x="485" y="540" type="line"/>
			<point x="485" y="274" type="line" smooth="yes"/>
			<point x="485" y="181"/>
			<point x="485" y="94"/>
		</contour>
		<contour>
			<point x="53" y="0" type="line"/>
			<point x="250" y="0" type="line"/>
			<point x="250" y="12" type="line"/>
			<point x="160" y="19" type="line"/>
			<point x="142" y="19" type="line"/>
			<point x="53" y="12" type="line"/>
		</contour>
		<contour>
			<point x="53" y="528" type="line"/>
			<point x="142" y="520" type="line"/>
			<point x="160" y="520" type="line"/>
			<point x="250" y="528" type="line"/>
			<point x="250" y="540" type="line"/>
			<point x="53" y="540" type="line"/>
		</contour>
		<contour>
			<point x="406" y="0" type="line"/>
			<point x="603" y="0" type="line"/>
			<point x="603" y="12" type="line"/>
			<point x="514" y="19" type="line"/>
			<point x="496" y="19" type="line"/>
			<point x="406" y="12" type="line"/>
		</contour>
		<contour>
			<point x="406" y="528" type="line"/>
			<point x="496" y="520" type="line"/>
			<point x="514" y="520" type="line"/>
			<point x="603" y="528" type="line"/>
			<point x="603" y="540" type="line"/>
			<point x="406" y="540" type="line"/>
		</contour>
		<contour>
			<point x="143" y="66" type="line"/>
			<point x="151" y="39" type="line"/>
			<point x="328" y="258" type="line"/>
			<point x="506" y="477" type="line"/>
			<point x="514" y="477" type="line"/>
			<point x="506" y="504" type="line"/>
			<point x="328" y="285" type="line"/>
			<point x="151" y="66" type="line"/>
		</contour>
	</outline>
	<anchor name="aboveUC" x="328" y="560"/>
</glyph>
<glyph name="Kadescender.sc" format="2">
	<advance width="557"/>
	<outline>
		<contour>
			<point x="466" y="0" type="line"/>
			<point x="531" y="0" type="line"/>
			<point x="511" y="9" type="line"/>
			<point x="526" y="-152" type="line"/>
			<point x="537" y="-152" type="line"/>
			<point x="545" y="12" type="line"/>
			<point x="454" y="19" type="line"/>
		</contour>
		<component base="Ka.sc"/>
	</outline>
</glyph>
<glyph name="Lambda.sc" format="2">
	<advance width="557"/>
	<outline>
		<contour>
			<point x="17" y="0" type="line"/>
			<point x="185" y="0" type="line"/>
			<point x="185" y="12" type="line"/>
			<point x="100" y="18" type="line"/>
			<point x="88" y="18" type="line"/>
			<point x="17" y="12" type="line"/>
		</contour>
		<contour>
			<point x="78" y="0" type="line"/>
			<point x="97" y="0" type="line"/>
			<point x="268" y="482" type="line"/>
			<point x="271" y="488" type="line"/>
			<point x="262" y="488" type="line"/>
			<point x="436" y="0" type="line"/>
			<point x="479" y="0" type="line"/>
			<point x="285" y="546" type="line"/>
			<point x="271" y="546" type="line"/>
		</contour>
		<contour>
			<point x="349" y="0" type="line"/>
			<point x="539" y="0" type="line"/>
			<point x="539" y="12" type="line"/>
			<point x="463" y="19" type="line"/>
			<point x="441" y="19" type="line"/>
			<point x="349" y="12" type="line"/>
		</contour>
	</outline>
</glyph>
<glyph name="M.sups" format="2">
	<advance width="555"/>
	<outline>
		<contour>
			<point x="29" y="429" type="line"/>
			<point x="163" y="429" type="line"/>
			<point x="163" y="437" type="line"/>
			<point x="99" y="442" type="line"/>
			<point x="92" y="442" type="line"/>
			<point x="29" y="437" type="line"/>
		</contour>
		<contour>
			<point x="88" y="429" type="line"/>
			<point x="103" y="429" type="line"/>
			<point x="103" y="822" type="line"/>
			<point x="103" y="841" type="line"/>
			<point x="88" y="841" type="line"/>
		</contour>
		<contour>
			<point x="260" y="429" type="line"/>
			<point x="272" y="429" type="line"/>
			<point x="430" y="818" type="line"/>
			<point x="430" y="819" type="line"/>
			<point x="441" y="819" type="line"/>
			<point x="441" y="848" type="line"/>
			<point x="426" y="848" type="line"/>
			<point x="277" y="480" type="line"/>
			<point x="275" y="475" type="line"/>
			<point x="282" y="475" type="line"/>
			<point x="133" y="848" type="line"/>
			<point x="29" y="848" type="line"/>
			<point x="29" y="839" type="line"/>
			<point x="97" y="834" type="line"/>
			<point x="97" y="822" type="line"/>
			<point x="102" y="822" type="line"/>
		</contour>
		<contour>
			<point x="373" y="429" type="line"/>
			<point x="526" y="429" type="line"/>
			<point x="526" y="437" type="line"/>
			<point x="457" y="443" type="line"/>
			<point x="439" y="443" type="line"/>
			<point x="373" y="437" type="line"/>
		</contour>
		<contour>
			<point x="429" y="429" type="line"/>
			<point x="467" y="429" type="line"/>
			<point x="467" y="848" type="line"/>
			<point x="429" y="848" type="line"/>
			<point x="429" y="839" type="line"/>
		</contour>
		<contour>
			<point x="439" y="834" type="line"/>
			<point x="457" y="834" type="line"/>
			<point x="526" y="839" type="line"/>
			<point x="526" y="848" type="line"/>
			<point x="439" y="848" type="line"/>
		</contour>
	</outline>
</glyph>
<glyph name="N.sups" format="2">
	<advance width="458"/>
	<outline>
		<contour>
			<point x="28" y="429" type="line"/>
			<point x="168" y="429" type="line"/>
			<point x="168" y="437" type="line"/>
			<point x="99" y="442" type="line"/>
			<point x="92" y="442" type="line"/>
			<point x="28" y="437" type="line"/>
		</contour>
		<contour>
			<point x="88" y="429" type="line"/>
			<point x="103" y="429" type="line"/>
			<point x="103" y="801" type="line"/>
			<point x="103" y="842" type="line"/>
			<point x="88" y="842" type="line"/>
		</contour>
		<contour>
			<point x="362" y="425" type="line"/>
			<point x="376" y="425" type="line"/>
			<point x="376" y="848" type="line"/>
			<point x="361" y="848" type="line"/>
			<point x="361" y="489" type="line"/>
			<point x="361" y="487" type="line"/>
			<point x="364" y="487" type="line"/>
			<point x="116" y="848" type="line"/>
			<point x="28" y="848" type="line"/>
			<point x="28" y="839" type="line"/>
			<point x="79" y="835" type="line"/>
			<point x="95" y="813" type="line"/>
			<point x="102" y="801" type="line"/>
		</contour>
		<contour>
			<point x="365" y="834" type="line"/>
			<point x="372" y="834" type="line"/>
			<point x="430" y="839" type="line"/>
			<point x="430" y="848" type="line"/>
			<point x="296" y="848" type="line"/>
			<point x="296" y="839" type="line"/>
		</contour>
	</outline>
</glyph>
<glyph name="O.sups" format="2">
	<advance width="435"/>
	<outline>
		<contour>
			<point x="217" y="420" type="curve" smooth="yes"/>
			<point x="318" y="420"/>
			<point x="400" y="501"/>
			<point x="400" y="638" type="curve" smooth="yes"/>
			<point x="400" y="778"/>
			<point x="318" y="856"/>
			<point x="217" y="856" type="curve" smooth="yes"/>
			<point x="118" y="856"/>
			<point x="35" y="776"/>
			<point x="35" y="638" type="curve" smooth="yes"/>
			<point x="35" y="498"/>
			<point x="117" y="420"/>
		</contour>
		<contour>
			<point x="217" y="431" type="curve" smooth="yes"/>
			<point x="126" y="431"/>
			<point x="77" y="518"/>
			<point x="77" y="638" type="curve" smooth="yes"/>
			<point x="77" y="759"/>
			<point x="126" y="845"/>
			<point x="217" y="845" type="curve" smooth="yes"/>
			<point x="309" y="845"/>
			<point x="358" y="759"/>
			<point x="358" y="638" type="curve" smooth="yes"/>
			<point x="358" y="518"/>
			<point x="309" y="431"/>
		</contour>
	</outline>
</glyph>
<glyph name="P.sc" format="2">
	<advance width="483"/>
	<outline>
		<contour>
			<point x="53" y="0" type="line"/>
			<point x="261" y="0" type="line"/>
			<point x="261" y="12" type="line"/>
			<point x="160" y="19" type="line"/>
			<point x="142" y="19" type="line"/>
			<point x="53" y="12" type="line"/>
		</contour>
		<contour>
			<point x="128" y="0" type="curve"/>
			<point x="173" y="0" type="line"/>
			<point x="171" y="69"/>
			<point x="171" y="169"/>
			<point x="171" y="257" type="curve" smooth="yes"/>
			<point x="171" y="290" type="line" smooth="yes"/>
			<point x="171" y="375"/>
			<point x="171" y="472"/>
			<point x="173" y="540" type="curve"/>
			<point x="128" y="540" type="line"/>
			<point x="131" y="472"/>
			<point x="131" y="375"/>
			<point x="131" y="290" type="curve" smooth="yes"/>
			<point x="131" y="257" type="line" smooth="yes"/>
			<point x="131" y="169"/>
			<point x="131" y="69"/>
		</contour>
		<contour>
			<point x="142" y="520" type="line"/>
			<point x="156" y="520" type="line"/>
			<point x="156" y="540" type="line"/>
			<point x="53" y="540" type="line"/>
			<point x="53" y="528" type="line"/>
		</contour>
		<contour>
			<point x="148" y="233" type="line"/>
			<point x="224" y="233" type="line" smooth="yes"/>
			<point x="381" y="233"/>
			<point x="441" y="301"/>
			<point x="441" y="387" type="curve" smooth="yes"/>
			<point x="441" y="479"/>
			<point x="374" y="540"/>
			<point x="245" y="540" type="curve" smooth="yes"/>
			<point x="148" y="540" type="line"/>
			<point x="148" y="524" type="line"/>
			<point x="233" y="524" type="line" smooth="yes"/>
			<point x="349" y="524"/>
			<point x="399" y="473"/>
			<point x="399" y="387" type="curve" smooth="yes"/>
			<point x="399" y="305"/>
			<point x="356" y="249"/>
			<point x="220" y="249" type="curve" smooth="yes"/>
			<point x="148" y="249" type="line"/>
		</contour>
	</outline>
	<anchor name="aboveUC" x="253" y="560"/>
	<anchor name="belowLC" x="152" y="-20"/>
</glyph>
<glyph name="Q.sups" format="2">
	<advance width="435"/>
	<outline>
		<contour>
			<point x="313" y="300" type="curve" smooth="yes"/>
			<point x="337" y="300"/>
			<point x="365" y="306"/>
			<point x="386" y="320" type="curve"/>
			<point x="382" y="328" type="line"/>
			<point x="363" y="320"/>
			<point x="345" y="317"/>
			<point x="325" y="317" type="curve" smooth="yes"/>
			<point x="270" y="317"/>
			<point x="231" y="360"/>
			<point x="236" y="428" type="curve"/>
			<point x="199" y="430" type="line"/>
			<point x="199" y="419" type="line" smooth="yes"/>
			<point x="199" y="356"/>
			<point x="236" y="300"/>
		</contour>
		<component base="O.sups"/>
	</outline>
</glyph>
<glyph name="S.sc" format="2">
	<advance width="452"/>
	<outline>
		<contour>
			<point x="212" y="-11" type="curve" smooth="yes"/>
			<point x="322" y="-11"/>
			<point x="392" y="46"/>
			<point x="392" y="139" type="curve" smooth="yes"/>
			<point x="392" y="232"/>
			<point x="320" y="259"/>
			<point x="247" y="290" type="curve" smooth="yes"/>
			<point x="217" y="302" type="line" smooth="yes"/>
			<point x="155" y="328"/>
			<point x="100" y="351"/>
			<point x="100" y="419" type="curve" smooth="yes"/>
			<point x="100" y="502"/>
			<point x="163" y="537"/>
			<point x="234" y="537" type="curve" smooth="yes"/>
			<point x="284" y="537"/>
			<point x="321" y="527"/>
			<point x="354" y="499" type="curve"/>
			<point x="353" y="512" type="line"/>
			<point x="332" y="521" type="line"/>
			<point x="353" y="393" type="line"/>
			<point x="364" y="393" type="line"/>
			<point x="368" y="512" type="line"/>
			<point x="331" y="537"/>
			<point x="296" y="551"/>
			<point x="234" y="551" type="curve" smooth="yes"/>
			<point x="145" y="551"/>
			<point x="68" y="506"/>
			<point x="68" y="411" type="curve" smooth="yes"/>
			<point x="68" y="324"/>
			<point x="134" y="297"/>
			<point x="203" y="268" type="curve" smooth="yes"/>
			<point x="233" y="255" type="line" smooth="yes"/>
			<point x="299" y="227"/>
			<point x="358" y="204"/>
			<point x="358" y="133" type="curve" smooth="yes"/>
			<point x="358" y="44"/>
			<point x="297" y="3"/>
			<point x="212" y="3" type="curve" smooth="yes"/>
			<point x="154" y="3"/>
			<point x="113" y="18"/>
			<point x="76" y="42" type="curve"/>
			<point x="73" y="34" type="line"/>
			<point x="95" y="21" type="line"/>
			<point x="78" y="154" type="line"/>
			<point x="66" y="154" type="line"/>
			<point x="59" y="33" type="line"/>
			<point x="94" y="9"/>
			<point x="148" y="-11"/>
		</contour>
	</outline>
	<anchor name="aboveUC" x="228" y="560"/>
	<anchor name="baseLC" x="213" y="0"/>
	<anchor name="belowLC" x="225" y="-20"/>
</glyph>
<glyph name="Sigma.sc" format="2">
	<advance width="494"/>
	<outline>
		<contour>
			<point x="431" y="399" type="line"/>
			<point x="443" y="399" type="line"/>
			<point x="432" y="540" type="line"/>
			<point x="78" y="540" type="line"/>
			<point x="78" y="524" type="line"/>
			<point x="416" y="524" type="line"/>
			<point x="396" y="533" type="line"/>
		</contour>
		<contour>
			<point x="443" y="0" type="line"/>
			<point x="453" y="155" type="line"/>
			<point x="442" y="155" type="line"/>
			<point x="408" y="24" type="line"/>
			<point x="427" y="35" type="line"/>
			<point x="87" y="35" type="line"/>
			<point x="84" y="23" type="line"/>
			<point x="288" y="282" type="line"/>
			<point x="107" y="525" type="line"/>
			<point x="107" y="540" type="line"/>
			<point x="58" y="540" type="line"/>
			<point x="58" y="527" type="line"/>
			<point x="257" y="260" type="line"/>
			<point x="258" y="272" type="line"/>
			<point x="54" y="13" type="line"/>
			<point x="54" y="0" type="line"/>
		</contour>
	</outline>
</glyph>
<glyph name="T.sc" format="2">
	<advance width="515"/>
	<outline>
		<contour>
			<point x="148" y="0" type="line"/>
			<point x="366" y="0" type="line"/>
			<point x="366" y="12" type="line"/>
			<point x="266" y="19" type="line"/>
			<point x="247" y="19" type="line"/>
			<point x="148" y="12" type="line"/>
		</contour>
		<contour>
			<point x="235" y="0" type="curve"/>
			<point x="280" y="0" type="line"/>
			<point x="277" y="69"/>
			<point x="277" y="169"/>
			<point x="277" y="257" type="curve" smooth="yes"/>
			<point x="277" y="290" type="line" smooth="yes"/>
			<point x="277" y="375"/>
			<point x="277" y="472"/>
			<point x="280" y="540" type="curve"/>
			<point x="235" y="540" type="line"/>
			<point x="237" y="472"/>
			<point x="237" y="375"/>
			<point x="237" y="290" type="curve" smooth="yes"/>
			<point x="237" y="257" type="line" smooth="yes"/>
			<point x="237" y="169"/>
			<point x="237" y="69"/>
		</contour>
		<contour>
			<point x="33" y="391" type="line"/>
			<point x="45" y="391" type="line"/>
			<point x="79" y="533" type="line"/>
			<point x="60" y="524" type="line"/>
			<point x="456" y="524" type="line"/>
			<point x="436" y="533" type="line"/>
			<point x="470" y="391" type="line"/>
			<point x="482" y="391" type="line"/>
			<point x="472" y="540" type="line"/>
			<point x="44" y="540" type="line"/>
		</contour>
	</outline>
	<anchor name="aboveUC" x="258" y="560"/>
	<anchor name="baseLC" x="258" y="0"/>
	<anchor name="belowLC" x="258" y="-20"/>
</glyph>
<glyph name="Tse.sc" format="2">
	<advance width="635"/>
	<outline>
		<contour>
			<point x="128" y="0" type="curve"/>
			<point x="173" y="0" type="line"/>
			<point x="171" y="69"/>
			<point x="171" y="169"/>
			<point x="171" y="257" type="curve" smooth="yes"/>
			<point x="171" y="290" type="line" smooth="yes"/>
			<point x="171" y="375"/>
			<point x="171" y="472"/>
			<point x="173" y="540" type="curve"/>
			<point x="128" y="540" type="line"/>
			<point x="131" y="472"/>
			<point x="131" y="375"/>
			<point x="131" y="290" type="curve" smooth="yes"/>
			<point x="131" y="257" type="line" smooth="yes"/>
			<point x="131" y="169"/>
			<point x="131" y="69"/>
		</contour>
		<contour>
			<point x="460" y="0" type="curve"/>
			<point x="505" y="0" type="line"/>
			<point x="503" y="69"/>
			<point x="503" y="169"/>
			<point x="503" y="257" type="curve" smooth="yes"/>
			<point x="503" y="290" type="line" smooth="yes"/>
			<point x="503" y="375"/>
			<point x="503" y="472"/>
			<point x="505" y="540" type="curve"/>
			<point x="460" y="540" type="line"/>
			<point x="462" y="472"/>
			<point x="463" y="375"/>
			<point x="463" y="290" type="curve" smooth="yes"/>
			<point x="463" y="257" type="line" smooth="yes"/>
			<point x="463" y="169"/>
			<point x="462" y="69"/>
		</contour>
		<contour>
			<point x="149" y="0" type="line"/>
			<point x="575" y="0" type="line"/>
			<point x="556" y="10" type="line"/>
			<point x="570" y="-152" type="line"/>
			<point x="582" y="-152" type="line"/>
			<point x="589" y="16" type="line"/>
			<point x="149" y="16" type="line"/>
		</contour>
		<contour>
			<point x="53" y="528" type="line"/>
			<point x="142" y="520" type="line"/>
			<point x="160" y="520" type="line"/>
			<point x="250" y="528" type="line"/>
			<point x="250" y="540" type="line"/>
			<point x="53" y="540" type="line"/>
		</contour>
		<contour>
			<point x="384" y="528" type="line"/>
			<point x="473" y="520" type="line"/>
			<point x="492" y="520" type="line"/>
			<point x="581" y="528" type="line"/>
			<point x="581" y="540" type="line"/>
			<point x="384" y="540" type="line"/>
		</contour>
		<contour>
			<point x="53" y="0" type="line"/>
			<point x="161" y="0" type="line"/>
			<point x="159" y="19" type="line"/>
			<point x="142" y="19" type="line"/>
			<point x="53" y="12" type="line"/>
		</contour>
	</outline>
	<anchor name="aboveUC" x="320" y="560"/>
</glyph>
<glyph name="Ucyr.sc" format="2">
	<advance width="552"/>
	<outline>
		<contour>
			<point x="105" y="-9" type="curve"/>
			<point x="106" y="-30"/>
			<point x="125" y="-45"/>
			<point x="154" y="-45" type="curve" smooth="yes"/>
			<point x="208" y="-45"/>
			<point x="249" y="2"/>
			<point x="291" y="101" type="curve" smooth="yes"/>
			<point x="475" y="540" type="line"/>
			<point x="455" y="540" type="line"/>
			<point x="375" y="349" type="line"/>
			<point x="277" y="116" type="line"/>
			<point x="274" y="109" type="line"/>
			<point x="239" y="22"/>
			<point x="212" y="-11"/>
			<point x="170" y="-21" type="curve"/>
			<point x="178" y="-28" type="line"/>
			<point x="196" y="-16" type="line"/>
			<point x="175" y="12"/>
			<point x="161" y="20"/>
			<point x="141" y="20" type="curve" smooth="yes"/>
			<point x="123" y="20"/>
			<point x="108" y="11"/>
		</contour>
		<contour>
			<point x="17" y="528" type="line"/>
			<point x="94" y="520" type="line"/>
			<point x="116" y="520" type="line"/>
			<point x="207" y="528" type="line"/>
			<point x="207" y="540" type="line"/>
			<point x="17" y="540" type="line"/>
		</contour>
		<contour>
			<point x="369" y="528" type="line"/>
			<point x="454" y="521" type="line"/>
			<point x="464" y="521" type="line"/>
			<point x="535" y="528" type="line"/>
			<point x="535" y="540" type="line"/>
			<point x="369" y="540" type="line"/>
		</contour>
		<contour>
			<point x="273" y="77" type="line"/>
			<point x="291" y="137" type="line"/>
			<point x="121" y="540" type="line"/>
			<point x="77" y="540" type="line"/>
		</contour>
	</outline>
	<anchor name="aboveUC" x="288" y="560"/>
</glyph>
<glyph name="Uhorn.sc" format="2">
	<advance width="626"/>
	<outline>
		<contour>
			<point x="314" y="-11" type="curve" smooth="yes"/>
			<point x="434" y="-11"/>
			<point x="500" y="47"/>
			<point x="500" y="194" type="curve" smooth="yes"/>
			<point x="500" y="540" type="line"/>
			<point x="482" y="540" type="line"/>
			<point x="482" y="203" type="line" smooth="yes"/>
			<point x="482" y="61"/>
			<point x="427" y="15"/>
			<point x="319" y="15" type="curve" smooth="yes"/>
			<point x="228" y="15"/>
			<point x="167" y="58"/>
			<point x="167" y="190" type="curve" smooth="yes"/>
			<point x="167" y="272" type="line" smooth="yes"/>
			<point x="167" y="388"/>
			<point x="167" y="463"/>
			<point x="168" y="540" type="curve"/>
			<point x="125" y="540" type="line"/>
			<point x="127" y="463"/>
			<point x="127" y="388"/>
			<point x="127" y="272" type="curve" smooth="yes"/>
			<point x="127" y="184" type="line" smooth="yes"/>
			<point x="127" y="39"/>
			<point x="204" y="-11"/>
		</contour>
		<contour>
			<point x="484" y="523" type="line"/>
			<point x="554" y="526"/>
			<point x="592" y="554"/>
			<point x="592" y="622" type="curve" smooth="yes"/>
			<point x="592" y="648"/>
			<point x="584" y="668"/>
			<point x="576" y="681" type="curve"/>
			<point x="572" y="685"/>
			<point x="566" y="687"/>
			<point x="560" y="687" type="curve" smooth="yes"/>
			<point x="549" y="687"/>
			<point x="539" y="678"/>
			<point x="539" y="664" type="curve" smooth="yes"/>
			<point x="539" y="645"/>
			<point x="565" y="627"/>
			<point x="565" y="601" type="curve" smooth="yes"/>
			<point x="565" y="567"/>
			<point x="546" y="540"/>
			<point x="484" y="540" type="curve"/>
		</contour>
		<contour>
			<point x="55" y="528" type="line"/>
			<point x="137" y="520" type="line"/>
			<point x="156" y="520" type="line"/>
			<point x="245" y="528" type="line"/>
			<point x="245" y="540" type="line"/>
			<point x="55" y="540" type="line"/>
		</contour>
		<contour>
			<point x="403" y="528" type="line"/>
			<point x="488" y="521" type="line"/>
			<point x="496" y="521" type="line"/>
			<point x="496" y="540" type="line"/>
			<point x="403" y="540" type="line"/>
		</contour>
	</outline>
	<anchor name="aboveUC" x="324" y="560"/>
	<anchor name="belowLC" x="317" y="-20"/>
</glyph>
<glyph name="Uogonek.sc" format="2">
	<advance width="626"/>
	<outline>
		<contour>
			<point x="137" y="520" type="line"/>
			<point x="156" y="520" type="line"/>
			<point x="245" y="528" type="line"/>
			<point x="245" y="540" type="line"/>
			<point x="55" y="540" type="line"/>
			<point x="55" y="528" type="line"/>
		</contour>
		<contour>
			<point x="376" y="-221" type="curve" smooth="yes"/>
			<point x="411" y="-221"/>
			<point x="444" y="-203"/>
			<point x="463" y="-177" type="curve"/>
			<point x="456" y="-169" type="line"/>
			<point x="436" y="-187"/>
			<point x="413" y="-194"/>
			<point x="389" y="-194" type="curve" smooth="yes"/>
			<point x="350" y="-194"/>
			<point x="321" y="-168"/>
			<point x="321" y="-124" type="curve" smooth="yes"/>
			<point x="321" y="-69"/>
			<point x="373" y="-15"/>
			<point x="420" y="13" type="curve" smooth="yes"/>
			<point x="472" y="45"/>
			<point x="500" y="99"/>
			<point x="500" y="194" type="curve" smooth="yes"/>
			<point x="500" y="540" type="line"/>
			<point x="482" y="540" type="line"/>
			<point x="482" y="203" type="line" smooth="yes"/>
			<point x="482" y="61"/>
			<point x="427" y="15"/>
			<point x="319" y="15" type="curve" smooth="yes"/>
			<point x="228" y="15"/>
			<point x="167" y="58"/>
			<point x="167" y="190" type="curve" smooth="yes"/>
			<point x="167" y="272" type="line" smooth="yes"/>
			<point x="167" y="388"/>
			<point x="167" y="465"/>
			<point x="168" y="540" type="curve"/>
			<point x="125" y="540" type="line"/>
			<point x="127" y="465"/>
			<point x="127" y="388"/>
			<point x="127" y="272" type="curve" smooth="yes"/>
			<point x="127" y="184" type="line" smooth="yes"/>
			<point x="127" y="39"/>
			<point x="204" y="-11"/>
			<point x="314" y="-11" type="curve" smooth="yes"/>
			<point x="347" y="-11"/>
			<point x="373" y="-6"/>
			<point x="397" y="3" type="curve"/>
			<point x="397" y="9" type="line"/>
			<point x="350" y="-21"/>
			<point x="288" y="-70"/>
			<point x="288" y="-135" type="curve" smooth="yes"/>
			<point x="288" y="-185"/>
			<point x="326" y="-221"/>
		</contour>
		<contour>
			<point x="488" y="521" type="line"/>
			<point x="494" y="521" type="line"/>
			<point x="570" y="528" type="line"/>
			<point x="570" y="540" type="line"/>
			<point x="403" y="540" type="line"/>
			<point x="403" y="528" type="line"/>
		</contour>
	</outline>
	<anchor name="aboveUC" x="324" y="560"/>
	<anchor name="belowLC" x="317" y="-20"/>
</glyph>
<glyph name="Ustraightstroke.sc" format="2">
	<advance width="543"/>
	<outline>
		<contour>
			<point x="411" y="210" type="line"/>
			<point x="411" y="225" type="line"/>
			<point x="135" y="225" type="line"/>
			<point x="135" y="210" type="line"/>
		</contour>
		<component base="Ustraight.sc"/>
	</outline>
	<anchor name="aboveUC" x="281" y="560"/>
</glyph>
<glyph name="W.sc" format="2">
	<advance width="795"/>
	<outline>
		<contour>
			<point x="97" y="520" type="line"/>
			<point x="112" y="520" type="line"/>
			<point x="208" y="528" type="line"/>
			<point x="208" y="540" type="line"/>
			<point x="17" y="540" type="line"/>
			<point x="17" y="528" type="line"/>
		</contour>
		<contour>
			<point x="233" y="-6" type="line"/>
			<point x="250" y="-6" type="line"/>
			<point x="400" y="480" type="line"/>
			<point x="401" y="486" type="line"/>
			<point x="394" y="486" type="line"/>
			<point x="542" y="-6" type="line"/>
			<point x="557" y="-6" type="line"/>
			<point x="716" y="540" type="line"/>
			<point x="697" y="540" type="line"/>
			<point x="558" y="62" type="line"/>
			<point x="555" y="55" type="line"/>
			<point x="565" y="55" type="line"/>
			<point x="419" y="540" type="line"/>
			<point x="398" y="540" type="line"/>
			<point x="253" y="64" type="line"/>
			<point x="251" y="57" type="line"/>
			<point x="260" y="57" type="line"/>
			<point x="121" y="540" type="line"/>
			<point x="78" y="540" type="line"/>
		</contour>
		<contour>
			<point x="397" y="521" type="line"/>
			<point x="412" y="520" type="line"/>
			<point x="496" y="528" type="line"/>
			<point x="496" y="540" type="line"/>
			<point x="320" y="540" type="line"/>
			<point x="320" y="528" type="line"/>
		</contour>
		<contour>
			<point x="696" y="521" type="line"/>
			<point x="706" y="521" type="line"/>
			<point x="778" y="528" type="line"/>
			<point x="778" y="540" type="line"/>
			<point x="609" y="540" type="line"/>
			<point x="609" y="528" type="line"/>
		</contour>
	</outline>
	<anchor name="aboveUC" x="408" y="560"/>
	<anchor name="belowLC" x="403" y="-20"/>
</glyph>
<glyph name="X.sc" format="2">
	<advance width="545"/>
	<outline>
		<contour>
			<point x="23" y="0" type="line"/>
			<point x="192" y="0" type="line"/>
			<point x="192" y="12" type="line"/>
			<point x="109" y="18" type="line"/>
			<point x="94" y="18" type="line"/>
			<point x="23" y="12" type="line"/>
		</contour>
		<contour>
			<point x="81" y="0" type="line"/>
			<point x="101" y="0" type="line"/>
			<point x="266" y="264" type="line"/>
			<point x="270" y="270" type="line"/>
			<point x="279" y="270" type="line"/>
			<point x="259" y="283" type="line"/>
		</contour>
		<contour>
			<point x="114" y="520" type="line"/>
			<point x="134" y="520" type="line"/>
			<point x="224" y="528" type="line"/>
			<point x="224" y="540" type="line"/>
			<point x="34" y="540" type="line"/>
			<point x="34" y="528" type="line"/>
		</contour>
		<contour>
			<point x="331" y="0" type="line"/>
			<point x="522" y="0" type="line"/>
			<point x="522" y="12" type="line"/>
			<point x="443" y="19" type="line"/>
			<point x="423" y="19" type="line"/>
			<point x="331" y="12" type="line"/>
		</contour>
		<contour>
			<point x="283" y="274" type="line"/>
			<point x="450" y="540" type="line"/>
			<point x="429" y="540" type="line"/>
			<point x="276" y="293" type="line"/>
			<point x="272" y="287" type="line"/>
			<point x="264" y="287" type="line"/>
		</contour>
		<contour>
			<point x="420" y="0" type="line"/>
			<point x="465" y="0" type="line"/>
			<point x="135" y="540" type="line"/>
			<point x="90" y="540" type="line"/>
		</contour>
		<contour>
			<point x="420" y="521" type="line"/>
			<point x="436" y="521" type="line"/>
			<point x="508" y="528" type="line"/>
			<point x="508" y="540" type="line"/>
			<point x="339" y="540" type="line"/>
			<point x="339" y="528" type="line"/>
		</contour>
	</outline>
	<anchor name="aboveUC" x="279" y="560"/>
	<anchor name="belowLC" x="268" y="-20"/>
</glyph>
<glyph name="X.sups" format="2">
	<advance width="405"/>
	<outline>
		<contour>
			<point x="9" y="429" type="line"/>
			<point x="139" y="429" type="line"/>
			<point x="139" y="437" type="line"/>
			<point x="77" y="442" type="line"/>
			<point x="65" y="442" type="line"/>
			<point x="9" y="437" type="line"/>
		</contour>
		<contour>
			<point x="17" y="839" type="line"/>
			<point x="80" y="834" type="line"/>
			<point x="99" y="834" type="line"/>
			<point x="170" y="839" type="line"/>
			<point x="170" y="848" type="line"/>
			<point x="17" y="848" type="line"/>
		</contour>
		<contour>
			<point x="245" y="429" type="line"/>
			<point x="397" y="429" type="line"/>
			<point x="397" y="437" type="line"/>
			<point x="335" y="443" type="line"/>
			<point x="316" y="443" type="line"/>
			<point x="245" y="437" type="line"/>
		</contour>
		<contour>
			<point x="256" y="839" type="line"/>
			<point x="317" y="834" type="line"/>
			<point x="331" y="834" type="line"/>
			<point x="385" y="839" type="line"/>
			<point x="385" y="848" type="line"/>
			<point x="256" y="848" type="line"/>
		</contour>
		<contour>
			<point x="53" y="429" type="line"/>
			<point x="70" y="429" type="line"/>
			<point x="197" y="632" type="line"/>
			<point x="202" y="641" type="line"/>
			<point x="207" y="641" type="line"/>
			<point x="193" y="651" type="line"/>
		</contour>
		<contour>
			<point x="313" y="429" type="line"/>
			<point x="355" y="429" type="line"/>
			<point x="102" y="848" type="line"/>
			<point x="59" y="848" type="line"/>
		</contour>
		<contour>
			<point x="207" y="634" type="line"/>
			<point x="342" y="848" type="line"/>
			<point x="324" y="848" type="line"/>
			<point x="205" y="654" type="line"/>
			<point x="198" y="643" type="line"/>
			<point x="195" y="643" type="line"/>
		</contour>
	</outline>
</glyph>
<glyph name="Yu.sc" format="2">
	<advance width="807"/>
	<outline>
		<contour>
			<point x="128" y="0" type="curve"/>
			<point x="173" y="0" type="line"/>
			<point x="171" y="69"/>
			<point x="171" y="169"/>
			<point x="171" y="257" type="curve" smooth="yes"/>
			<point x="171" y="290" type="line" smooth="yes"/>
			<point x="171" y="375"/>
			<point x="171" y="472"/>
			<point x="173" y="540" type="curve"/>
			<point x="128" y="540" type="line"/>
			<point x="131" y="472"/>
			<point x="131" y="375"/>
			<point x="131" y="290" type="curve" smooth="yes"/>
			<point x="131" y="257" type="line" smooth="yes"/>
			<point x="131" y="169"/>
			<point x="131" y="69"/>
		</contour>
		<contour>
			<point x="53" y="0" type="line"/>
			<point x="250" y="0" type="line"/>
			<point x="250" y="12" type="line"/>
			<point x="160" y="19" type="line"/>
			<point x="142" y="19" type="line"/>
			<point x="53" y="12" type="line"/>
		</contour>
		<contour>
			<point x="53" y="528" type="line"/>
			<point x="142" y="520" type="line"/>
			<point x="160" y="520" type="line"/>
			<point x="250" y="528" type="line"/>
			<point x="250" y="540" type="line"/>
			<point x="53" y="540" type="line"/>
		</contour>
		<contour>
			<point x="137" y="270" type="line"/>
			<point x="324" y="270" type="line"/>
			<point x="324" y="286" type="line"/>
			<point x="137" y="286" type="line"/>
		</contour>
		<contour>
			<point x="524" y="-11" type="curve" smooth="yes"/>
			<point x="645" y="-11"/>
			<point x="745" y="88"/>
			<point x="745" y="271" type="curve" smooth="yes"/>
			<point x="745" y="455"/>
			<point x="645" y="551"/>
			<point x="524" y="551" type="curve" smooth="yes"/>
			<point x="401" y="551"/>
			<point x="301" y="453"/>
			<point x="301" y="270" type="curve" smooth="yes"/>
			<point x="301" y="86"/>
			<point x="401" y="-11"/>
		</contour>
		<contour>
			<point x="524" y="4" type="curve" smooth="yes"/>
			<point x="411" y="4"/>
			<point x="345" y="114"/>
			<point x="345" y="270" type="curve" smooth="yes"/>
			<point x="345" y="427"/>
			<point x="411" y="536"/>
			<point x="524" y="536" type="curve" smooth="yes"/>
			<point x="635" y="536"/>
			<point x="702" y="427"/>
			<point x="702" y="271" type="curve" smooth="yes"/>
			<point x="702" y="114"/>
			<point x="635" y="4"/>
		</contour>
	</outline>
	<anchor name="aboveUC" x="354" y="560"/>
</glyph>
<glyph name="Zhedescender.sc" format="2">
	<advance width="788"/>
	<outline>
		<contour>
			<point x="697" y="0" type="line"/>
			<point x="762" y="0" type="line"/>
			<point x="742" y="9" type="line"/>
			<point x="757" y="-152" type="line"/>
			<point x="768" y="-152" type="line"/>
			<point x="775" y="12" type="line"/>
			<point x="684" y="19" type="line"/>
		</contour>
		<component base="Zhe.sc"/>
	</outline>
</glyph>
<glyph name="bracketleft.sups" format="2">
	<advance width="183"/>
	<outline>
		<contour>
			<point x="64" y="328" type="line"/>
			<point x="96" y="328" type="line"/>
			<point x="96" y="877" type="line"/>
			<point x="64" y="877" type="line"/>
		</contour>
		<contour>
			<point x="74" y="328" type="line"/>
			<point x="159" y="328" type="line"/>
			<point x="159" y="338" type="line"/>
			<point x="87" y="345" type="line"/>
			<point x="74" y="345" type="line"/>
		</contour>
		<contour>
			<point x="75" y="861" type="line"/>
			<point x="87" y="861" type="line"/>
			<point x="159" y="868" type="line"/>
			<point x="159" y="877" type="line"/>
			<point x="75" y="877" type="line"/>
		</contour>
	</outline>
</glyph>
<glyph name="bracketright.sups" format="2">
	<advance width="183"/>
	<outline>
		<contour>
			<point x="24" y="328" type="line"/>
			<point x="108" y="328" type="line"/>
			<point x="108" y="344" type="line"/>
			<point x="96" y="344" type="line"/>
			<point x="24" y="337" type="line"/>
		</contour>
		<contour>
			<point x="87" y="328" type="line"/>
			<point x="119" y="328" type="line"/>
			<point x="119" y="877" type="line"/>
			<point x="87" y="877" type="line"/>
		</contour>
		<contour>
			<point x="96" y="860" type="line"/>
			<point x="109" y="860" type="line"/>
			<point x="109" y="877" type="line"/>
			<point x="24" y="877" type="line"/>
			<point x="24" y="867" type="line"/>
		</contour>
	</outline>
</glyph>
<glyph name="brevecmb.cyrcap" format="2">
	<outline>
		<contour>
			<point x="0" y="733" type="curve" smooth="yes"/>
			<point x="81" y="733"/>
			<point x="138" y="774"/>
			<point x="140" y="829" type="curve"/>
			<point x="135" y="847"/>
			<point x="121" y="857"/>
			<point x="107" y="857" type="curve" smooth="yes"/>
			<point x="91" y="857"/>
			<point x="78" y="845"/>
			<point x="78" y="826" type="curve" smooth="yes"/>
			<point x="78" y="808"/>
			<point x="89" y="793"/>
			<point x="114" y="781" type="curve"/>
			<point x="118" y="797" type="line"/>
			<point x="87" y="762"/>
			<point x="47" y="750"/>
			<point x="0" y="750" type="curve" smooth="yes"/>
			<point x="-47" y="750"/>
			<point x="-87" y="762"/>
			<point x="-118" y="797" type="curve"/>
			<point x="-114" y="781" type="line"/>
			<point x="-89" y="793"/>
			<point x="-78" y="808"/>
			<point x="-78" y="826" type="curve" smooth="yes"/>
			<point x="-78" y="845"/>
			<point x="-91" y="857"/>
			<point x="-107" y="857" type="curve" smooth="yes"/>
			<point x="-121" y="857"/>
			<point x="-135" y="847"/>
			<point x="-140" y="829" type="curve"/>
			<point x="-138" y="774"/>
			<point x="-81" y="733"/>
		</contour>
	</outline>
	<anchor name="_aboveUC" x="0" y="693"/>
	<anchor name="aboveUC" x="0" y="857"/>
</glyph>
<glyph name="caron.alt" format="2">
	<advance width="10"/>
	<outline>
		<contour>
			<point x="25" y="755" type="curve" smooth="yes"/>
			<point x="17" y="755"/>
			<point x="11" y="753"/>
			<point x="3" y="749" type="curve"/>
			<point x="0" y="532" type="line"/>
			<point x="12" y="532" type="line"/>
			<point x="28" y="635" type="line" smooth="yes"/>
			<point x="37" y="673"/>
			<point x="43" y="715"/>
			<point x="43" y="733" type="curve" smooth="yes"/>
			<point x="43" y="746"/>
			<point x="39" y="755"/>
		</contour>
	</outline>
</glyph>
<glyph name="comma.sups" format="2">
	<advance width="170"/>
	<outline>
		<contour>
			<point x="116" y="433" type="curve" smooth="yes"/>
			<point x="116" y="451"/>
			<point x="115" y="461"/>
			<point x="111" y="474" type="curve"/>
			<point x="101" y="483"/>
			<point x="95" y="485"/>
			<point x="84" y="485" type="curve" smooth="yes"/>
			<point x="66" y="485"/>
			<point x="55" y="472"/>
			<point x="55" y="456" type="curve" smooth="yes"/>
			<point x="55" y="444"/>
			<point x="63" y="434"/>
			<point x="75" y="425" type="curve" smooth="yes"/>
			<point x="103" y="405" type="line"/>
			<point x="100" y="423" type="line"/>
			<point x="91" y="380"/>
			<point x="68" y="357"/>
			<point x="25" y="331" type="curve"/>
			<point x="30" y="321" type="line"/>
			<point x="79" y="343"/>
			<point x="116" y="384"/>
		</contour>
	</outline>
</glyph>
<glyph name="dieresiscmb.tight" format="2">
	<outline>
		<contour>
			<point x="-75" y="602" type="curve" smooth="yes"/>
			<point x="-57" y="602"/>
			<point x="-41" y="615"/>
			<point x="-41" y="636" type="curve" smooth="yes"/>
			<point x="-41" y="658"/>
			<point x="-57" y="670"/>
			<point x="-75" y="670" type="curve" smooth="yes"/>
			<point x="-94" y="670"/>
			<point x="-109" y="658"/>
			<point x="-109" y="636" type="curve" smooth="yes"/>
			<point x="-109" y="615"/>
			<point x="-94" y="602"/>
		</contour>
		<contour>
			<point x="75" y="602" type="curve" smooth="yes"/>
			<point x="93" y="602"/>
			<point x="109" y="615"/>
			<point x="109" y="636" type="curve" smooth="yes"/>
			<point x="109" y="658"/>
			<point x="93" y="670"/>
			<point x="75" y="670" type="curve" smooth="yes"/>
			<point x="56" y="670"/>
			<point x="40" y="658"/>
			<point x="40" y="636" type="curve" smooth="yes"/>
			<point x="40" y="615"/>
			<point x="56" y="602"/>
		</contour>
	</outline>
	<anchor name="_aboveLC" x="0" y="469"/>
</glyph>
<glyph name="ef.bgr" format="2">
	<advance width="631"/>
	<outline>
		<contour>
			<point x="292" y="-262" type="curve"/>
			<point x="338" y="-262" type="line"/>
			<point x="336" y="-217"/>
			<point x="335" y="-116"/>
			<point x="335" y="-7" type="curve"/>
			<point x="335" y="-4" type="line"/>
			<point x="335" y="563" type="line"/>
			<point x="338" y="740" type="line"/>
			<point x="331" y="747" type="line"/>
			<point x="215" y="728" type="line"/>
			<point x="215" y="717" type="line"/>
			<point x="295" y="710" type="line"/>
			<point x="295" y="457" type="line"/>
			<point x="295" y="453" type="line"/>
			<point x="295" y="-7" type="line" smooth="yes"/>
			<point x="295" y="-116"/>
			<point x="294" y="-217"/>
		</contour>
		<contour>
			<point x="303" y="-13" type="curve"/>
			<point x="303" y="2" type="line"/>
			<point x="179" y="2"/>
			<point x="79" y="77"/>
			<point x="79" y="221" type="curve" smooth="yes"/>
			<point x="79" y="367"/>
			<point x="179" y="447"/>
			<point x="304" y="447" type="curve"/>
			<point x="304" y="463" type="line"/>
			<point x="166" y="463"/>
			<point x="36" y="382"/>
			<point x="36" y="221" type="curve" smooth="yes"/>
			<point x="36" y="61"/>
			<point x="166" y="-13"/>
		</contour>
		<contour>
			<point x="216" y="-262" type="line"/>
			<point x="410" y="-262" type="line"/>
			<point x="410" y="-250" type="line"/>
			<point x="319" y="-242" type="line"/>
			<point x="310" y="-242" type="line"/>
			<point x="216" y="-250" type="line"/>
		</contour>
		<contour>
			<point x="327" y="-13" type="line"/>
			<point x="464" y="-13"/>
			<point x="595" y="68"/>
			<point x="595" y="228" type="curve" smooth="yes"/>
			<point x="595" y="388"/>
			<point x="464" y="463"/>
			<point x="327" y="463" type="curve"/>
			<point x="327" y="447" type="line"/>
			<point x="452" y="447"/>
			<point x="551" y="373"/>
			<point x="551" y="228" type="curve" smooth="yes"/>
			<point x="551" y="82"/>
			<point x="452" y="2"/>
			<point x="327" y="2" type="curve"/>
		</contour>
	</outline>
</glyph>
